<?xml version="1.0" standalone="no"?>
<!DOCTYPE svg PUBLIC "-//W3C//DTD SVG 20010904//EN"
 "http://www.w3.org/TR/2001/REC-SVG-20010904/DTD/svg10.dtd">
<svg version="1.0" xmlns="http://www.w3.org/2000/svg"
 width="900.000000pt" height="900.000000pt" viewBox="0 0 900.000000 900.000000"
 preserveAspectRatio="xMidYMid meet">
<metadata>
Created by potrace 1.14, written by Peter Selinger 2001-2017
</metadata>
<g transform="translate(0.000000,900.000000) scale(0.100000,-0.100000)"
fill="#000000" stroke="none">
<path d="M3554 6664 c-84 -21 -123 -61 -199 -199 -15 -27 -66 -117 -113 -200
-47 -82 -94 -166 -105 -185 -184 -327 -195 -344 -260 -397 -21 -18 -56 -37
-77 -43 -23 -6 -253 -11 -586 -13 l-549 -2 -53 -30 c-95 -52 -119 -107 -167
-375 -39 -223 -63 -335 -106 -505 -12 -44 -23 -91 -25 -103 -8 -39 -90 -300
-124 -392 -91 -248 -217 -507 -352 -721 -75 -120 -226 -331 -275 -384 -10 -11
-36 -43 -57 -70 -22 -28 -130 -140 -240 -249 -178 -177 -201 -204 -211 -245
-21 -79 16 -161 90 -203 l40 -23 4295 0 c2362 -1 4310 2 4328 6 104 22 172
145 133 242 -6 16 -100 117 -209 225 -205 204 -243 246 -376 416 -70 90 -246
347 -246 359 0 3 -17 34 -38 68 -147 243 -310 659 -408 1034 -4 17 -8 32 -9
35 -4 16 -16 69 -20 90 -3 14 -14 66 -24 115 -11 50 -25 115 -31 145 -5 30
-12 66 -15 80 -3 14 -7 39 -10 55 -3 17 -7 44 -10 60 -8 46 -21 132 -49 335
-5 35 -11 86 -21 178 -3 26 -8 61 -10 77 -2 17 -7 62 -10 100 -4 39 -8 81 -10
95 -2 14 -6 52 -9 85 -31 349 -36 395 -43 425 -9 39 -48 85 -90 106 -37 17
-109 18 -1872 19 -1286 0 -1847 -3 -1877 -11z"/>
</g>
</svg>
