<svg width="277" height="301" viewBox="0 0 277 301" fill="none" xmlns="http://www.w3.org/2000/svg">
<path d="M0 30C0 13.4315 13.4315 0 30 0H247C263.569 0 277 13.4315 277 30V301H0V30Z" fill="#F1F1F1"/>
<path d="M68.8125 48.625H37.1875C36.3936 48.625 35.75 49.2686 35.75 50.0625V75.9375C35.75 76.7314 36.3936 77.375 37.1875 77.375H68.8125C69.6064 77.375 70.25 76.7314 70.25 75.9375V50.0625C70.25 49.2686 69.6064 48.625 68.8125 48.625Z" stroke="black" stroke-width="2" stroke-linecap="round" stroke-linejoin="round"/>
<path d="M35.75 70.1873L44.796 61.1412C44.9295 61.0078 45.088 60.9019 45.2624 60.8296C45.4368 60.7574 45.6237 60.7202 45.8125 60.7202C46.0012 60.7202 46.1882 60.7574 46.3626 60.8296C46.537 60.9019 46.6955 61.0078 46.8289 61.1412L54.8585 69.1708C54.992 69.3043 55.1505 69.4102 55.3249 69.4824C55.4993 69.5547 55.6862 69.5919 55.875 69.5919C56.0637 69.5919 56.2507 69.5547 56.4251 69.4824C56.5995 69.4102 56.758 69.3043 56.8914 69.1708L60.6085 65.4537C60.742 65.3203 60.9005 65.2144 61.0749 65.1421C61.2493 65.0699 61.4362 65.0327 61.625 65.0327C61.8137 65.0327 62.0007 65.0699 62.1751 65.1421C62.3495 65.2144 62.508 65.3203 62.6414 65.4537L70.25 73.0623" stroke="black" stroke-width="2" stroke-linecap="round" stroke-linejoin="round"/>
<path d="M60.125 57.9688C60.125 59.1251 59.1876 60.0625 58.0312 60.0625C56.8749 60.0625 55.9375 59.1251 55.9375 57.9688C55.9375 56.8124 56.8749 55.875 58.0312 55.875C59.1876 55.875 60.125 56.8124 60.125 57.9688Z" fill="#FFF6A8" stroke="black" stroke-width="0.125"/>
<path d="M33.636 124C32.904 124 32.274 123.742 31.746 123.226C31.23 122.698 30.972 122.068 30.972 121.336V120.13H33.762V120.598C33.762 120.994 33.762 121.192 33.762 121.192C33.762 121.192 33.96 121.192 34.356 121.192H40.512C40.908 121.192 41.106 121.192 41.106 121.192C41.106 121.192 41.106 120.994 41.106 120.598V119.518C41.106 119.122 41.106 118.924 41.106 118.924C41.106 118.924 40.908 118.924 40.512 118.924H33.636C32.904 118.924 32.274 118.666 31.746 118.15C31.23 117.622 30.972 116.992 30.972 116.26V113.704C30.972 112.972 31.23 112.348 31.746 111.832C32.274 111.304 32.904 111.04 33.636 111.04H41.268C41.988 111.04 42.612 111.304 43.14 111.832C43.668 112.348 43.932 112.972 43.932 113.704V114.91H41.106V114.442C41.106 114.046 41.106 113.848 41.106 113.848C41.106 113.848 40.908 113.848 40.512 113.848H34.356C33.96 113.848 33.762 113.848 33.762 113.848C33.762 113.848 33.762 114.046 33.762 114.442V115.522C33.762 115.918 33.762 116.116 33.762 116.116C33.762 116.116 33.96 116.116 34.356 116.116H41.268C41.988 116.116 42.612 116.38 43.14 116.908C43.668 117.424 43.932 118.048 43.932 118.78V121.336C43.932 122.068 43.668 122.698 43.14 123.226C42.612 123.742 41.988 124 41.268 124H33.636ZM45.8783 124V110.14H48.6323V113.56H53.8523C54.5603 113.56 55.1723 113.818 55.6883 114.334C56.2043 114.85 56.4623 115.462 56.4623 116.17V124H53.7083V116.908C53.7083 116.512 53.7083 116.314 53.7083 116.314C53.7083 116.314 53.5103 116.314 53.1143 116.314H49.2263C48.8303 116.314 48.6323 116.314 48.6323 116.314C48.6323 116.314 48.6323 116.512 48.6323 116.908V124H45.8783ZM60.4577 124C59.7497 124 59.1377 123.742 58.6217 123.226C58.1057 122.71 57.8477 122.098 57.8477 121.39V116.17C57.8477 115.462 58.1057 114.85 58.6217 114.334C59.1377 113.818 59.7497 113.56 60.4577 113.56H65.8217C66.5417 113.56 67.1537 113.818 67.6577 114.334C68.1737 114.85 68.4317 115.462 68.4317 116.17V121.39C68.4317 122.098 68.1737 122.71 67.6577 123.226C67.1537 123.742 66.5417 124 65.8217 124H60.4577ZM61.1957 121.246H65.0837C65.4797 121.246 65.6777 121.246 65.6777 121.246C65.6777 121.246 65.6777 121.048 65.6777 120.652V116.908C65.6777 116.512 65.6777 116.314 65.6777 116.314C65.6777 116.314 65.4797 116.314 65.0837 116.314H61.1957C60.7997 116.314 60.6017 116.314 60.6017 116.314C60.6017 116.314 60.6017 116.512 60.6017 116.908V120.652C60.6017 121.048 60.6017 121.246 60.6017 121.246C60.6017 121.246 60.7997 121.246 61.1957 121.246ZM72.8434 124L68.7394 113.56H71.6554L73.9054 118.978L76.2634 113.56H78.9274L81.4474 119.05L83.5354 113.56H86.4514L82.5274 124H80.4394L77.6134 117.772L74.9134 124H72.8434ZM90.0417 124C89.3337 124 88.7217 123.742 88.2057 123.226C87.6897 122.71 87.4317 122.098 87.4317 121.39V116.17C87.4317 115.462 87.6897 114.85 88.2057 114.334C88.7217 113.818 89.3337 113.56 90.0417 113.56H97.9977V116.314H90.7797C90.3837 116.314 90.1857 116.314 90.1857 116.314C90.1857 116.314 90.1857 116.512 90.1857 116.908V120.652C90.1857 121.048 90.1857 121.246 90.1857 121.246C90.1857 121.246 90.3837 121.246 90.7797 121.246H98.0157V124H90.0417ZM102.4 124C101.68 124 101.062 123.742 100.546 123.226C100.042 122.71 99.7895 122.098 99.7895 121.39V117.394H107.62V116.908C107.62 116.512 107.62 116.314 107.62 116.314C107.62 116.314 107.422 116.314 107.026 116.314H99.7895V113.56H107.764C108.484 113.56 109.096 113.818 109.6 114.334C110.116 114.85 110.374 115.462 110.374 116.17V124H102.4ZM103.138 121.246H107.62V119.806H102.544V120.652C102.544 121.048 102.544 121.246 102.544 121.246C102.544 121.246 102.742 121.246 103.138 121.246ZM114.404 124C113.696 124 113.084 123.742 112.568 123.226C112.052 122.71 111.794 122.098 111.794 121.39V120.868H114.548V120.958C114.548 121.15 114.548 121.246 114.548 121.246C114.548 121.246 114.644 121.246 114.836 121.246H119.336C119.528 121.246 119.624 121.246 119.624 121.246C119.624 121.246 119.624 121.15 119.624 120.958V120.454C119.624 120.262 119.624 120.166 119.624 120.166C119.624 120.166 119.528 120.166 119.336 120.166H114.404C113.696 120.166 113.084 119.908 112.568 119.392C112.052 118.876 111.794 118.264 111.794 117.556V116.17C111.794 115.462 112.052 114.85 112.568 114.334C113.084 113.818 113.696 113.56 114.404 113.56H119.768C120.488 113.56 121.106 113.818 121.622 114.334C122.138 114.85 122.396 115.462 122.396 116.17V116.692H119.624V116.602C119.624 116.41 119.624 116.314 119.624 116.314C119.624 116.314 119.528 116.314 119.336 116.314H114.836C114.644 116.314 114.548 116.314 114.548 116.314C114.548 116.314 114.548 116.41 114.548 116.602V117.106C114.548 117.298 114.548 117.394 114.548 117.394C114.548 117.394 114.644 117.394 114.836 117.394H119.768C120.488 117.394 121.106 117.652 121.622 118.168C122.138 118.684 122.396 119.296 122.396 120.004V121.39C122.396 122.098 122.138 122.71 121.622 123.226C121.106 123.742 120.488 124 119.768 124H114.404ZM126.411 124C125.703 124 125.091 123.742 124.575 123.226C124.059 122.71 123.801 122.098 123.801 121.39V116.17C123.801 115.462 124.059 114.85 124.575 114.334C125.091 113.818 125.703 113.56 126.411 113.56H131.775C132.495 113.56 133.107 113.818 133.611 114.334C134.127 114.85 134.385 115.462 134.385 116.17V120.166H126.555V120.652C126.555 121.048 126.555 121.246 126.555 121.246C126.555 121.246 126.753 121.246 127.149 121.246H134.385V124H126.411ZM126.555 117.754H131.631V116.908C131.631 116.512 131.631 116.314 131.631 116.314C131.631 116.314 131.433 116.314 131.037 116.314H127.149C126.753 116.314 126.555 116.314 126.555 116.314C126.555 116.314 126.555 116.512 126.555 116.908V117.754ZM145.412 124V115.234L144.818 115.972H141.164L145.304 111.04H148.166V124H145.412ZM155.023 124V111.04H166.993V113.848H157.849V116.116H165.211V118.924H157.849V121.192H166.993V124H155.023ZM168.588 124V123.1L172.188 118.69L168.588 114.46V113.56H171.414L173.97 116.584L176.508 113.56H179.352V114.46L175.752 118.69L179.352 123.1V124H176.526L173.97 120.868L171.414 124H168.588ZM183.769 124C183.049 124 182.431 123.742 181.915 123.226C181.411 122.71 181.159 122.098 181.159 121.39V117.394H188.989V116.908C188.989 116.512 188.989 116.314 188.989 116.314C188.989 116.314 188.791 116.314 188.395 116.314H181.159V113.56H189.133C189.853 113.56 190.465 113.818 190.969 114.334C191.485 114.85 191.743 115.462 191.743 116.17V124H183.769ZM184.507 121.246H188.989V119.806H183.913V120.652C183.913 121.048 183.913 121.246 183.913 121.246C183.913 121.246 184.111 121.246 184.507 121.246ZM193.165 124V113.56H205.729C206.449 113.56 207.061 113.818 207.565 114.334C208.081 114.85 208.339 115.462 208.339 116.17V124H205.603V116.908C205.603 116.512 205.603 116.314 205.603 116.314C205.603 116.314 205.405 116.314 205.009 116.314H202.741C202.345 116.314 202.147 116.314 202.147 116.314C202.147 116.314 202.147 116.512 202.147 116.908V124H199.375V116.908C199.375 116.512 199.375 116.314 199.375 116.314C199.375 116.314 199.177 116.314 198.781 116.314H196.513C196.117 116.314 195.919 116.314 195.919 116.314C195.919 116.314 195.919 116.512 195.919 116.908V124H193.165ZM209.742 128.14V113.56H217.716C218.436 113.56 219.048 113.818 219.552 114.334C220.068 114.85 220.326 115.462 220.326 116.17V121.39C220.326 122.098 220.068 122.71 219.552 123.226C219.048 123.742 218.436 124 217.716 124H212.496V128.14H209.742ZM213.09 121.246H216.978C217.374 121.246 217.572 121.246 217.572 121.246C217.572 121.246 217.572 121.048 217.572 120.652V116.908C217.572 116.512 217.572 116.314 217.572 116.314C217.572 116.314 217.374 116.314 216.978 116.314H213.09C212.694 116.314 212.496 116.314 212.496 116.314C212.496 116.314 212.496 116.512 212.496 116.908V120.652C212.496 121.048 212.496 121.246 212.496 121.246C212.496 121.246 212.694 121.246 213.09 121.246ZM224.269 124C223.561 124 222.949 123.742 222.433 123.226C221.917 122.71 221.659 122.098 221.659 121.39V110.122H224.431V120.652C224.431 121.048 224.431 121.246 224.431 121.246C224.431 121.246 224.629 121.246 225.025 121.246H226.537V124H224.269ZM230.491 124C229.783 124 229.171 123.742 228.655 123.226C228.139 122.71 227.881 122.098 227.881 121.39V116.17C227.881 115.462 228.139 114.85 228.655 114.334C229.171 113.818 229.783 113.56 230.491 113.56H235.855C236.575 113.56 237.187 113.818 237.691 114.334C238.207 114.85 238.465 115.462 238.465 116.17V120.166H230.635V120.652C230.635 121.048 230.635 121.246 230.635 121.246C230.635 121.246 230.833 121.246 231.229 121.246H238.465V124H230.491ZM230.635 117.754H235.711V116.908C235.711 116.512 235.711 116.314 235.711 116.314C235.711 116.314 235.513 116.314 235.117 116.314H231.229C230.833 116.314 230.635 116.314 230.635 116.314C230.635 116.314 230.635 116.512 230.635 116.908V117.754Z" fill="black"/>
<path d="M32.688 156.032V159.76H36.752V160.96H32.688V164.8H37.232V166H31.232V154.832H37.232V156.032H32.688ZM44.0111 166L41.9311 162.736L39.9311 166H38.4111L41.2431 161.648L38.4111 157.232H40.0591L42.1391 160.48L44.1231 157.232H45.6431L42.8271 161.568L45.6591 166H44.0111ZM46.5474 161.584C46.5474 160.688 46.7287 159.904 47.0914 159.232C47.454 158.549 47.95 158.021 48.5794 157.648C49.2194 157.275 49.9287 157.088 50.7074 157.088C51.4754 157.088 52.142 157.253 52.7074 157.584C53.2727 157.915 53.694 158.331 53.9714 158.832V157.232H55.4434V166H53.9714V164.368C53.6834 164.88 53.2514 165.307 52.6754 165.648C52.11 165.979 51.4487 166.144 50.6914 166.144C49.9127 166.144 49.2087 165.952 48.5794 165.568C47.95 165.184 47.454 164.645 47.0914 163.952C46.7287 163.259 46.5474 162.469 46.5474 161.584ZM53.9714 161.6C53.9714 160.939 53.838 160.363 53.5714 159.872C53.3047 159.381 52.942 159.008 52.4834 158.752C52.0354 158.485 51.5394 158.352 50.9954 158.352C50.4514 158.352 49.9554 158.48 49.5074 158.736C49.0594 158.992 48.702 159.365 48.4354 159.856C48.1687 160.347 48.0354 160.923 48.0354 161.584C48.0354 162.256 48.1687 162.843 48.4354 163.344C48.702 163.835 49.0594 164.213 49.5074 164.48C49.9554 164.736 50.4514 164.864 50.9954 164.864C51.5394 164.864 52.0354 164.736 52.4834 164.48C52.942 164.213 53.3047 163.835 53.5714 163.344C53.838 162.843 53.9714 162.261 53.9714 161.6ZM68.4479 157.072C69.1305 157.072 69.7385 157.216 70.2719 157.504C70.8052 157.781 71.2265 158.203 71.5359 158.768C71.8452 159.333 71.9999 160.021 71.9999 160.832V166H70.5599V161.04C70.5599 160.165 70.3412 159.499 69.9039 159.04C69.4772 158.571 68.8959 158.336 68.1599 158.336C67.4025 158.336 66.7999 158.581 66.3519 159.072C65.9039 159.552 65.6799 160.251 65.6799 161.168V166H64.2399V161.04C64.2399 160.165 64.0212 159.499 63.5839 159.04C63.1572 158.571 62.5759 158.336 61.8399 158.336C61.0825 158.336 60.4799 158.581 60.0319 159.072C59.5839 159.552 59.3599 160.251 59.3599 161.168V166H57.9039V157.232H59.3599V158.496C59.6479 158.037 60.0319 157.685 60.5119 157.44C61.0025 157.195 61.5412 157.072 62.1279 157.072C62.8639 157.072 63.5145 157.237 64.0799 157.568C64.6452 157.899 65.0665 158.384 65.3439 159.024C65.5892 158.405 65.9945 157.925 66.5599 157.584C67.1252 157.243 67.7545 157.072 68.4479 157.072ZM75.8443 158.848C76.1323 158.347 76.5589 157.931 77.1243 157.6C77.7003 157.259 78.3669 157.088 79.1243 157.088C79.9029 157.088 80.6069 157.275 81.2362 157.648C81.8762 158.021 82.3776 158.549 82.7403 159.232C83.1029 159.904 83.2843 160.688 83.2843 161.584C83.2843 162.469 83.1029 163.259 82.7403 163.952C82.3776 164.645 81.8762 165.184 81.2362 165.568C80.6069 165.952 79.9029 166.144 79.1243 166.144C78.3776 166.144 77.7163 165.979 77.1403 165.648C76.5749 165.307 76.1429 164.885 75.8443 164.384V170.16H74.3883V157.232H75.8443V158.848ZM81.7963 161.584C81.7963 160.923 81.6629 160.347 81.3963 159.856C81.1296 159.365 80.7669 158.992 80.3083 158.736C79.8603 158.48 79.3643 158.352 78.8203 158.352C78.2869 158.352 77.7909 158.485 77.3323 158.752C76.8843 159.008 76.5216 159.387 76.2443 159.888C75.9776 160.379 75.8443 160.949 75.8443 161.6C75.8443 162.261 75.9776 162.843 76.2443 163.344C76.5216 163.835 76.8843 164.213 77.3323 164.48C77.7909 164.736 78.2869 164.864 78.8203 164.864C79.3643 164.864 79.8603 164.736 80.3083 164.48C80.7669 164.213 81.1296 163.835 81.3963 163.344C81.6629 162.843 81.7963 162.256 81.7963 161.584ZM86.6568 154.16V166H85.2008V154.16H86.6568ZM97.1383 161.28C97.1383 161.557 97.1223 161.851 97.0903 162.16H90.0823C90.1356 163.024 90.4289 163.701 90.9623 164.192C91.5063 164.672 92.1623 164.912 92.9303 164.912C93.5596 164.912 94.0823 164.768 94.4983 164.48C94.9249 164.181 95.2236 163.787 95.3943 163.296H96.9623C96.7276 164.139 96.2583 164.827 95.5543 165.36C94.8503 165.883 93.9756 166.144 92.9303 166.144C92.0983 166.144 91.3516 165.957 90.6903 165.584C90.0396 165.211 89.5276 164.683 89.1543 164C88.7809 163.307 88.5943 162.507 88.5943 161.6C88.5943 160.693 88.7756 159.899 89.1383 159.216C89.5009 158.533 90.0076 158.011 90.6583 157.648C91.3196 157.275 92.0769 157.088 92.9303 157.088C93.7623 157.088 94.4983 157.269 95.1383 157.632C95.7783 157.995 96.2689 158.496 96.6103 159.136C96.9623 159.765 97.1383 160.48 97.1383 161.28ZM95.6343 160.976C95.6343 160.421 95.5116 159.947 95.2663 159.552C95.0209 159.147 94.6849 158.843 94.2583 158.64C93.8423 158.427 93.3783 158.32 92.8663 158.32C92.1303 158.32 91.5009 158.555 90.9783 159.024C90.4663 159.493 90.1729 160.144 90.0983 160.976H95.6343ZM104.782 158.848C105.07 158.347 105.496 157.931 106.062 157.6C106.638 157.259 107.304 157.088 108.062 157.088C108.84 157.088 109.544 157.275 110.174 157.648C110.814 158.021 111.315 158.549 111.678 159.232C112.04 159.904 112.222 160.688 112.222 161.584C112.222 162.469 112.04 163.259 111.678 163.952C111.315 164.645 110.814 165.184 110.174 165.568C109.544 165.952 108.84 166.144 108.062 166.144C107.315 166.144 106.654 165.979 106.078 165.648C105.512 165.307 105.08 164.885 104.782 164.384V170.16H103.326V157.232H104.782V158.848ZM110.734 161.584C110.734 160.923 110.6 160.347 110.334 159.856C110.067 159.365 109.704 158.992 109.246 158.736C108.798 158.48 108.302 158.352 107.758 158.352C107.224 158.352 106.728 158.485 106.27 158.752C105.822 159.008 105.459 159.387 105.182 159.888C104.915 160.379 104.782 160.949 104.782 161.6C104.782 162.261 104.915 162.843 105.182 163.344C105.459 163.835 105.822 164.213 106.27 164.48C106.728 164.736 107.224 164.864 107.758 164.864C108.302 164.864 108.798 164.736 109.246 164.48C109.704 164.213 110.067 163.835 110.334 163.344C110.6 162.843 110.734 162.256 110.734 161.584ZM115.594 158.656C115.85 158.155 116.213 157.765 116.682 157.488C117.162 157.211 117.744 157.072 118.426 157.072V158.576H118.042C116.41 158.576 115.594 159.461 115.594 161.232V166H114.138V157.232H115.594V158.656ZM123.931 166.144C123.11 166.144 122.363 165.957 121.691 165.584C121.03 165.211 120.507 164.683 120.123 164C119.75 163.307 119.563 162.507 119.563 161.6C119.563 160.704 119.755 159.915 120.139 159.232C120.534 158.539 121.067 158.011 121.739 157.648C122.411 157.275 123.163 157.088 123.995 157.088C124.827 157.088 125.579 157.275 126.251 157.648C126.923 158.011 127.451 158.533 127.835 159.216C128.23 159.899 128.427 160.693 128.427 161.6C128.427 162.507 128.224 163.307 127.819 164C127.424 164.683 126.886 165.211 126.203 165.584C125.52 165.957 124.763 166.144 123.931 166.144ZM123.931 164.864C124.454 164.864 124.944 164.741 125.403 164.496C125.862 164.251 126.23 163.883 126.507 163.392C126.795 162.901 126.939 162.304 126.939 161.6C126.939 160.896 126.8 160.299 126.523 159.808C126.246 159.317 125.883 158.955 125.435 158.72C124.987 158.475 124.502 158.352 123.979 158.352C123.446 158.352 122.955 158.475 122.507 158.72C122.07 158.955 121.718 159.317 121.451 159.808C121.184 160.299 121.051 160.896 121.051 161.6C121.051 162.315 121.179 162.917 121.435 163.408C121.702 163.899 122.054 164.267 122.491 164.512C122.928 164.747 123.408 164.864 123.931 164.864ZM131.125 155.808C130.848 155.808 130.613 155.712 130.421 155.52C130.24 155.328 130.149 155.093 130.149 154.816C130.149 154.539 130.24 154.304 130.421 154.112C130.613 153.92 130.848 153.824 131.125 153.824C131.403 153.824 131.632 153.92 131.813 154.112C132.005 154.304 132.101 154.539 132.101 154.816C132.101 155.093 132.005 155.328 131.813 155.52C131.632 155.712 131.403 155.808 131.125 155.808ZM131.845 167.904C131.845 168.683 131.648 169.253 131.253 169.616C130.859 169.979 130.283 170.16 129.525 170.16H128.677V168.928H129.285C129.691 168.928 129.973 168.848 130.133 168.688C130.304 168.528 130.389 168.256 130.389 167.872V157.232H131.845V167.904ZM142.31 161.28C142.31 161.557 142.294 161.851 142.262 162.16H135.254C135.307 163.024 135.601 163.701 136.134 164.192C136.678 164.672 137.334 164.912 138.102 164.912C138.731 164.912 139.254 164.768 139.67 164.48C140.097 164.181 140.395 163.787 140.566 163.296H142.134C141.899 164.139 141.43 164.827 140.726 165.36C140.022 165.883 139.147 166.144 138.102 166.144C137.27 166.144 136.523 165.957 135.862 165.584C135.211 165.211 134.699 164.683 134.326 164C133.953 163.307 133.766 162.507 133.766 161.6C133.766 160.693 133.947 159.899 134.31 159.216C134.673 158.533 135.179 158.011 135.83 157.648C136.491 157.275 137.249 157.088 138.102 157.088C138.934 157.088 139.67 157.269 140.31 157.632C140.95 157.995 141.441 158.496 141.782 159.136C142.134 159.765 142.31 160.48 142.31 161.28ZM140.806 160.976C140.806 160.421 140.683 159.947 140.438 159.552C140.193 159.147 139.857 158.843 139.43 158.64C139.014 158.427 138.55 158.32 138.038 158.32C137.302 158.32 136.673 158.555 136.15 159.024C135.638 159.493 135.345 160.144 135.27 160.976H140.806ZM143.688 161.6C143.688 160.693 143.869 159.904 144.232 159.232C144.595 158.549 145.096 158.021 145.736 157.648C146.387 157.275 147.128 157.088 147.96 157.088C149.037 157.088 149.923 157.349 150.616 157.872C151.32 158.395 151.784 159.12 152.008 160.048H150.44C150.291 159.515 149.997 159.093 149.56 158.784C149.133 158.475 148.6 158.32 147.96 158.32C147.128 158.32 146.456 158.608 145.944 159.184C145.432 159.749 145.176 160.555 145.176 161.6C145.176 162.656 145.432 163.472 145.944 164.048C146.456 164.624 147.128 164.912 147.96 164.912C148.6 164.912 149.133 164.763 149.56 164.464C149.987 164.165 150.28 163.739 150.44 163.184H152.008C151.773 164.08 151.304 164.8 150.6 165.344C149.896 165.877 149.016 166.144 147.96 166.144C147.128 166.144 146.387 165.957 145.736 165.584C145.096 165.211 144.595 164.683 144.232 164C143.869 163.317 143.688 162.517 143.688 161.6ZM155.727 158.432V163.6C155.727 164.027 155.817 164.331 155.999 164.512C156.18 164.683 156.495 164.768 156.943 164.768H158.015V166H156.703C155.892 166 155.284 165.813 154.879 165.44C154.473 165.067 154.271 164.453 154.271 163.6V158.432H153.135V157.232H154.271V155.024H155.727V157.232H158.015V158.432H155.727ZM163.501 161.584C163.501 160.688 163.682 159.904 164.045 159.232C164.407 158.549 164.903 158.021 165.533 157.648C166.173 157.275 166.887 157.088 167.677 157.088C168.359 157.088 168.994 157.248 169.581 157.568C170.167 157.877 170.615 158.288 170.925 158.8V154.16H172.397V166H170.925V164.352C170.637 164.875 170.21 165.307 169.645 165.648C169.079 165.979 168.418 166.144 167.661 166.144C166.882 166.144 166.173 165.952 165.533 165.568C164.903 165.184 164.407 164.645 164.045 163.952C163.682 163.259 163.501 162.469 163.501 161.584ZM170.925 161.6C170.925 160.939 170.791 160.363 170.525 159.872C170.258 159.381 169.895 159.008 169.437 158.752C168.989 158.485 168.493 158.352 167.949 158.352C167.405 158.352 166.909 158.48 166.461 158.736C166.013 158.992 165.655 159.365 165.389 159.856C165.122 160.347 164.989 160.923 164.989 161.584C164.989 162.256 165.122 162.843 165.389 163.344C165.655 163.835 166.013 164.213 166.461 164.48C166.909 164.736 167.405 164.864 167.949 164.864C168.493 164.864 168.989 164.736 169.437 164.48C169.895 164.213 170.258 163.835 170.525 163.344C170.791 162.843 170.925 162.261 170.925 161.6ZM182.857 161.28C182.857 161.557 182.841 161.851 182.809 162.16H175.801C175.854 163.024 176.148 163.701 176.681 164.192C177.225 164.672 177.881 164.912 178.649 164.912C179.278 164.912 179.801 164.768 180.217 164.48C180.644 164.181 180.942 163.787 181.113 163.296H182.681C182.446 164.139 181.977 164.827 181.273 165.36C180.569 165.883 179.694 166.144 178.649 166.144C177.817 166.144 177.07 165.957 176.409 165.584C175.758 165.211 175.246 164.683 174.873 164C174.5 163.307 174.313 162.507 174.313 161.6C174.313 160.693 174.494 159.899 174.857 159.216C175.22 158.533 175.726 158.011 176.377 157.648C177.038 157.275 177.796 157.088 178.649 157.088C179.481 157.088 180.217 157.269 180.857 157.632C181.497 157.995 181.988 158.496 182.329 159.136C182.681 159.765 182.857 160.48 182.857 161.28ZM181.353 160.976C181.353 160.421 181.23 159.947 180.985 159.552C180.74 159.147 180.404 158.843 179.977 158.64C179.561 158.427 179.097 158.32 178.585 158.32C177.849 158.32 177.22 158.555 176.697 159.024C176.185 159.493 175.892 160.144 175.817 160.976H181.353ZM187.883 166.144C187.211 166.144 186.608 166.032 186.075 165.808C185.542 165.573 185.12 165.253 184.811 164.848C184.502 164.432 184.331 163.957 184.299 163.424H185.803C185.846 163.861 186.048 164.219 186.411 164.496C186.784 164.773 187.27 164.912 187.867 164.912C188.422 164.912 188.859 164.789 189.179 164.544C189.499 164.299 189.659 163.989 189.659 163.616C189.659 163.232 189.488 162.949 189.147 162.768C188.806 162.576 188.278 162.389 187.563 162.208C186.912 162.037 186.379 161.867 185.963 161.696C185.558 161.515 185.206 161.253 184.907 160.912C184.619 160.56 184.475 160.101 184.475 159.536C184.475 159.088 184.608 158.677 184.875 158.304C185.142 157.931 185.52 157.637 186.011 157.424C186.502 157.2 187.062 157.088 187.691 157.088C188.662 157.088 189.446 157.333 190.043 157.824C190.64 158.315 190.96 158.987 191.003 159.84H189.547C189.515 159.381 189.328 159.013 188.987 158.736C188.656 158.459 188.208 158.32 187.643 158.32C187.12 158.32 186.704 158.432 186.395 158.656C186.086 158.88 185.931 159.173 185.931 159.536C185.931 159.824 186.022 160.064 186.203 160.256C186.395 160.437 186.63 160.587 186.907 160.704C187.195 160.811 187.59 160.933 188.091 161.072C188.72 161.243 189.232 161.413 189.627 161.584C190.022 161.744 190.358 161.989 190.635 162.32C190.923 162.651 191.072 163.083 191.083 163.616C191.083 164.096 190.95 164.528 190.683 164.912C190.416 165.296 190.038 165.6 189.547 165.824C189.067 166.037 188.512 166.144 187.883 166.144ZM192.594 161.6C192.594 160.693 192.776 159.904 193.138 159.232C193.501 158.549 194.002 158.021 194.642 157.648C195.293 157.275 196.034 157.088 196.866 157.088C197.944 157.088 198.829 157.349 199.522 157.872C200.226 158.395 200.69 159.12 200.914 160.048H199.346C199.197 159.515 198.904 159.093 198.466 158.784C198.04 158.475 197.506 158.32 196.866 158.32C196.034 158.32 195.362 158.608 194.85 159.184C194.338 159.749 194.082 160.555 194.082 161.6C194.082 162.656 194.338 163.472 194.85 164.048C195.362 164.624 196.034 164.912 196.866 164.912C197.506 164.912 198.04 164.763 198.466 164.464C198.893 164.165 199.186 163.739 199.346 163.184H200.914C200.68 164.08 200.21 164.8 199.506 165.344C198.802 165.877 197.922 166.144 196.866 166.144C196.034 166.144 195.293 165.957 194.642 165.584C194.002 165.211 193.501 164.683 193.138 164C192.776 163.317 192.594 162.517 192.594 161.6ZM204.313 158.656C204.569 158.155 204.932 157.765 205.401 157.488C205.881 157.211 206.462 157.072 207.145 157.072V158.576H206.761C205.129 158.576 204.313 159.461 204.313 161.232V166H202.857V157.232H204.313V158.656ZM209.578 155.808C209.3 155.808 209.066 155.712 208.874 155.52C208.682 155.328 208.586 155.093 208.586 154.816C208.586 154.539 208.682 154.304 208.874 154.112C209.066 153.92 209.3 153.824 209.578 153.824C209.844 153.824 210.068 153.92 210.25 154.112C210.442 154.304 210.538 154.539 210.538 154.816C210.538 155.093 210.442 155.328 210.25 155.52C210.068 155.712 209.844 155.808 209.578 155.808ZM210.282 157.232V166H208.826V157.232H210.282ZM214.219 158.848C214.507 158.347 214.934 157.931 215.499 157.6C216.075 157.259 216.742 157.088 217.499 157.088C218.278 157.088 218.982 157.275 219.611 157.648C220.251 158.021 220.753 158.549 221.115 159.232C221.478 159.904 221.659 160.688 221.659 161.584C221.659 162.469 221.478 163.259 221.115 163.952C220.753 164.645 220.251 165.184 219.611 165.568C218.982 165.952 218.278 166.144 217.499 166.144C216.753 166.144 216.091 165.979 215.515 165.648C214.95 165.307 214.518 164.885 214.219 164.384V170.16H212.763V157.232H214.219V158.848ZM220.171 161.584C220.171 160.923 220.038 160.347 219.771 159.856C219.505 159.365 219.142 158.992 218.683 158.736C218.235 158.48 217.739 158.352 217.195 158.352C216.662 158.352 216.166 158.485 215.707 158.752C215.259 159.008 214.897 159.387 214.619 159.888C214.353 160.379 214.219 160.949 214.219 161.6C214.219 162.261 214.353 162.843 214.619 163.344C214.897 163.835 215.259 164.213 215.707 164.48C216.166 164.736 216.662 164.864 217.195 164.864C217.739 164.864 218.235 164.736 218.683 164.48C219.142 164.213 219.505 163.835 219.771 163.344C220.038 162.843 220.171 162.256 220.171 161.584ZM225.352 158.432V163.6C225.352 164.027 225.442 164.331 225.624 164.512C225.805 164.683 226.12 164.768 226.568 164.768H227.64V166H226.328C225.517 166 224.909 165.813 224.504 165.44C224.098 165.067 223.896 164.453 223.896 163.6V158.432H222.76V157.232H223.896V155.024H225.352V157.232H227.64V158.432H225.352ZM230.156 155.808C229.879 155.808 229.644 155.712 229.452 155.52C229.26 155.328 229.164 155.093 229.164 154.816C229.164 154.539 229.26 154.304 229.452 154.112C229.644 153.92 229.879 153.824 230.156 153.824C230.423 153.824 230.647 153.92 230.828 154.112C231.02 154.304 231.116 154.539 231.116 154.816C231.116 155.093 231.02 155.328 230.828 155.52C230.647 155.712 230.423 155.808 230.156 155.808ZM230.86 157.232V166H229.404V157.232H230.86ZM237.165 166.144C236.344 166.144 235.597 165.957 234.925 165.584C234.264 165.211 233.741 164.683 233.357 164C232.984 163.307 232.797 162.507 232.797 161.6C232.797 160.704 232.989 159.915 233.373 159.232C233.768 158.539 234.301 158.011 234.973 157.648C235.645 157.275 236.397 157.088 237.229 157.088C238.061 157.088 238.813 157.275 239.485 157.648C240.157 158.011 240.685 158.533 241.069 159.216C241.464 159.899 241.661 160.693 241.661 161.6C241.661 162.507 241.459 163.307 241.053 164C240.659 164.683 240.12 165.211 239.437 165.584C238.755 165.957 237.997 166.144 237.165 166.144ZM237.165 164.864C237.688 164.864 238.179 164.741 238.637 164.496C239.096 164.251 239.464 163.883 239.741 163.392C240.029 162.901 240.173 162.304 240.173 161.6C240.173 160.896 240.035 160.299 239.757 159.808C239.48 159.317 239.117 158.955 238.669 158.72C238.221 158.475 237.736 158.352 237.213 158.352C236.68 158.352 236.189 158.475 235.741 158.72C235.304 158.955 234.952 159.317 234.685 159.808C234.419 160.299 234.285 160.896 234.285 161.6C234.285 162.315 234.413 162.917 234.669 163.408C234.936 163.899 235.288 164.267 235.725 164.512C236.163 164.747 236.643 164.864 237.165 164.864ZM247.848 157.072C248.914 157.072 249.778 157.397 250.44 158.048C251.101 158.688 251.432 159.616 251.432 160.832V166H249.992V161.04C249.992 160.165 249.773 159.499 249.336 159.04C248.898 158.571 248.301 158.336 247.544 158.336C246.776 158.336 246.162 158.576 245.704 159.056C245.256 159.536 245.032 160.235 245.032 161.152V166H243.576V157.232H245.032V158.48C245.32 158.032 245.709 157.685 246.2 157.44C246.701 157.195 247.25 157.072 247.848 157.072ZM33.008 182.432V187.6C33.008 188.027 33.0987 188.331 33.28 188.512C33.4613 188.683 33.776 188.768 34.224 188.768H35.296V190H33.984C33.1733 190 32.5653 189.813 32.16 189.44C31.7547 189.067 31.552 188.453 31.552 187.6V182.432H30.416V181.232H31.552V179.024H33.008V181.232H35.296V182.432H33.008ZM41.4121 181.072C42.0735 181.072 42.6708 181.216 43.2041 181.504C43.7375 181.781 44.1535 182.203 44.4521 182.768C44.7615 183.333 44.9161 184.021 44.9161 184.832V190H43.4761V185.04C43.4761 184.165 43.2575 183.499 42.8201 183.04C42.3828 182.571 41.7855 182.336 41.0281 182.336C40.2601 182.336 39.6468 182.576 39.1881 183.056C38.7401 183.536 38.5161 184.235 38.5161 185.152V190H37.0601V178.16H38.5161V182.48C38.8041 182.032 39.1988 181.685 39.7001 181.44C40.2121 181.195 40.7828 181.072 41.4121 181.072ZM46.7505 185.584C46.7505 184.688 46.9318 183.904 47.2945 183.232C47.6572 182.549 48.1532 182.021 48.7825 181.648C49.4225 181.275 50.1318 181.088 50.9105 181.088C51.6785 181.088 52.3452 181.253 52.9105 181.584C53.4758 181.915 53.8972 182.331 54.1745 182.832V181.232H55.6465V190H54.1745V188.368C53.8865 188.88 53.4545 189.307 52.8785 189.648C52.3132 189.979 51.6518 190.144 50.8945 190.144C50.1158 190.144 49.4118 189.952 48.7825 189.568C48.1532 189.184 47.6572 188.645 47.2945 187.952C46.9318 187.259 46.7505 186.469 46.7505 185.584ZM54.1745 185.6C54.1745 184.939 54.0412 184.363 53.7745 183.872C53.5078 183.381 53.1452 183.008 52.6865 182.752C52.2385 182.485 51.7425 182.352 51.1985 182.352C50.6545 182.352 50.1585 182.48 49.7105 182.736C49.2625 182.992 48.9052 183.365 48.6385 183.856C48.3718 184.347 48.2385 184.923 48.2385 185.584C48.2385 186.256 48.3718 186.843 48.6385 187.344C48.9052 187.835 49.2625 188.213 49.7105 188.48C50.1585 188.736 50.6545 188.864 51.1985 188.864C51.7425 188.864 52.2385 188.736 52.6865 188.48C53.1452 188.213 53.5078 187.835 53.7745 187.344C54.0412 186.843 54.1745 186.261 54.1745 185.6ZM59.883 182.432V187.6C59.883 188.027 59.9737 188.331 60.155 188.512C60.3363 188.683 60.651 188.768 61.099 188.768H62.171V190H60.859C60.0483 190 59.4403 189.813 59.035 189.44C58.6297 189.067 58.427 188.453 58.427 187.6V182.432H57.291V181.232H58.427V179.024H59.883V181.232H62.171V182.432H59.883ZM67.6568 185.584C67.6568 184.688 67.8381 183.904 68.2008 183.232C68.5634 182.549 69.0594 182.021 69.6888 181.648C70.3288 181.275 71.0434 181.088 71.8328 181.088C72.5154 181.088 73.1501 181.248 73.7368 181.568C74.3234 181.877 74.7714 182.288 75.0808 182.8V178.16H76.5528V190H75.0808V188.352C74.7928 188.875 74.3661 189.307 73.8008 189.648C73.2354 189.979 72.5741 190.144 71.8168 190.144C71.0381 190.144 70.3288 189.952 69.6888 189.568C69.0594 189.184 68.5634 188.645 68.2008 187.952C67.8381 187.259 67.6568 186.469 67.6568 185.584ZM75.0808 185.6C75.0808 184.939 74.9474 184.363 74.6808 183.872C74.4141 183.381 74.0514 183.008 73.5928 182.752C73.1448 182.485 72.6488 182.352 72.1048 182.352C71.5608 182.352 71.0648 182.48 70.6168 182.736C70.1688 182.992 69.8114 183.365 69.5448 183.856C69.2781 184.347 69.1448 184.923 69.1448 185.584C69.1448 186.256 69.2781 186.843 69.5448 187.344C69.8114 187.835 70.1688 188.213 70.6168 188.48C71.0648 188.736 71.5608 188.864 72.1048 188.864C72.6488 188.864 73.1448 188.736 73.5928 188.48C74.0514 188.213 74.4141 187.835 74.6808 187.344C74.9474 186.843 75.0808 186.261 75.0808 185.6ZM87.0133 185.28C87.0133 185.557 86.9973 185.851 86.9653 186.16H79.9573C80.0106 187.024 80.3039 187.701 80.8373 188.192C81.3813 188.672 82.0373 188.912 82.8053 188.912C83.4346 188.912 83.9573 188.768 84.3733 188.48C84.7999 188.181 85.0986 187.787 85.2693 187.296H86.8373C86.6026 188.139 86.1333 188.827 85.4293 189.36C84.7253 189.883 83.8506 190.144 82.8053 190.144C81.9733 190.144 81.2266 189.957 80.5653 189.584C79.9146 189.211 79.4026 188.683 79.0293 188C78.6559 187.307 78.4693 186.507 78.4693 185.6C78.4693 184.693 78.6506 183.899 79.0133 183.216C79.3759 182.533 79.8826 182.011 80.5333 181.648C81.1946 181.275 81.9519 181.088 82.8053 181.088C83.6373 181.088 84.3733 181.269 85.0133 181.632C85.6533 181.995 86.1439 182.496 86.4853 183.136C86.8373 183.765 87.0133 184.48 87.0133 185.28ZM85.5093 184.976C85.5093 184.421 85.3866 183.947 85.1413 183.552C84.8959 183.147 84.5599 182.843 84.1333 182.64C83.7173 182.427 83.2533 182.32 82.7413 182.32C82.0053 182.32 81.3759 182.555 80.8533 183.024C80.3413 183.493 80.0479 184.144 79.9733 184.976H85.5093ZM92.0391 190.144C91.3671 190.144 90.7645 190.032 90.2311 189.808C89.6978 189.573 89.2765 189.253 88.9671 188.848C88.6578 188.432 88.4871 187.957 88.4551 187.424H89.9591C90.0018 187.861 90.2045 188.219 90.5671 188.496C90.9405 188.773 91.4258 188.912 92.0231 188.912C92.5778 188.912 93.0151 188.789 93.3351 188.544C93.6551 188.299 93.8151 187.989 93.8151 187.616C93.8151 187.232 93.6445 186.949 93.3031 186.768C92.9618 186.576 92.4338 186.389 91.7191 186.208C91.0685 186.037 90.5351 185.867 90.1191 185.696C89.7138 185.515 89.3618 185.253 89.0631 184.912C88.7751 184.56 88.6311 184.101 88.6311 183.536C88.6311 183.088 88.7645 182.677 89.0311 182.304C89.2978 181.931 89.6765 181.637 90.1671 181.424C90.6578 181.2 91.2178 181.088 91.8471 181.088C92.8178 181.088 93.6018 181.333 94.1991 181.824C94.7965 182.315 95.1165 182.987 95.1591 183.84H93.7031C93.6711 183.381 93.4845 183.013 93.1431 182.736C92.8125 182.459 92.3645 182.32 91.7991 182.32C91.2765 182.32 90.8605 182.432 90.5511 182.656C90.2418 182.88 90.0871 183.173 90.0871 183.536C90.0871 183.824 90.1778 184.064 90.3591 184.256C90.5511 184.437 90.7858 184.587 91.0631 184.704C91.3511 184.811 91.7458 184.933 92.2471 185.072C92.8765 185.243 93.3885 185.413 93.7831 185.584C94.1778 185.744 94.5138 185.989 94.7911 186.32C95.0791 186.651 95.2285 187.083 95.2391 187.616C95.2391 188.096 95.1058 188.528 94.8391 188.912C94.5725 189.296 94.1938 189.6 93.7031 189.824C93.2231 190.037 92.6685 190.144 92.0391 190.144ZM96.7505 185.6C96.7505 184.693 96.9318 183.904 97.2945 183.232C97.6572 182.549 98.1585 182.021 98.7985 181.648C99.4492 181.275 100.191 181.088 101.023 181.088C102.1 181.088 102.985 181.349 103.679 181.872C104.383 182.395 104.847 183.12 105.071 184.048H103.503C103.353 183.515 103.06 183.093 102.623 182.784C102.196 182.475 101.663 182.32 101.023 182.32C100.191 182.32 99.5185 182.608 99.0065 183.184C98.4945 183.749 98.2385 184.555 98.2385 185.6C98.2385 186.656 98.4945 187.472 99.0065 188.048C99.5185 188.624 100.191 188.912 101.023 188.912C101.663 188.912 102.196 188.763 102.623 188.464C103.049 188.165 103.343 187.739 103.503 187.184H105.071C104.836 188.08 104.367 188.8 103.663 189.344C102.959 189.877 102.079 190.144 101.023 190.144C100.191 190.144 99.4492 189.957 98.7985 189.584C98.1585 189.211 97.6572 188.683 97.2945 188C96.9318 187.317 96.7505 186.517 96.7505 185.6ZM108.469 182.656C108.725 182.155 109.088 181.765 109.557 181.488C110.037 181.211 110.619 181.072 111.301 181.072V182.576H110.917C109.285 182.576 108.469 183.461 108.469 185.232V190H107.013V181.232H108.469V182.656ZM113.734 179.808C113.457 179.808 113.222 179.712 113.03 179.52C112.838 179.328 112.742 179.093 112.742 178.816C112.742 178.539 112.838 178.304 113.03 178.112C113.222 177.92 113.457 177.824 113.734 177.824C114.001 177.824 114.225 177.92 114.406 178.112C114.598 178.304 114.694 178.539 114.694 178.816C114.694 179.093 114.598 179.328 114.406 179.52C114.225 179.712 114.001 179.808 113.734 179.808ZM114.438 181.232V190H112.982V181.232H114.438ZM118.376 182.864C118.674 182.341 119.112 181.915 119.688 181.584C120.264 181.253 120.92 181.088 121.656 181.088C122.445 181.088 123.154 181.275 123.784 181.648C124.413 182.021 124.909 182.549 125.272 183.232C125.634 183.904 125.816 184.688 125.816 185.584C125.816 186.469 125.634 187.259 125.272 187.952C124.909 188.645 124.407 189.184 123.767 189.568C123.138 189.952 122.434 190.144 121.656 190.144C120.898 190.144 120.232 189.979 119.656 189.648C119.09 189.317 118.664 188.896 118.376 188.384V190H116.92V178.16H118.376V182.864ZM124.328 185.584C124.328 184.923 124.194 184.347 123.928 183.856C123.661 183.365 123.298 182.992 122.84 182.736C122.392 182.48 121.896 182.352 121.352 182.352C120.818 182.352 120.322 182.485 119.864 182.752C119.416 183.008 119.053 183.387 118.776 183.888C118.509 184.379 118.376 184.949 118.376 185.6C118.376 186.261 118.509 186.843 118.776 187.344C119.053 187.835 119.416 188.213 119.864 188.48C120.322 188.736 120.818 188.864 121.352 188.864C121.896 188.864 122.392 188.736 122.84 188.48C123.298 188.213 123.661 187.835 123.928 187.344C124.194 186.843 124.328 186.256 124.328 185.584ZM135.732 185.28C135.732 185.557 135.716 185.851 135.684 186.16H128.676C128.729 187.024 129.023 187.701 129.556 188.192C130.1 188.672 130.756 188.912 131.524 188.912C132.153 188.912 132.676 188.768 133.092 188.48C133.519 188.181 133.817 187.787 133.988 187.296H135.556C135.321 188.139 134.852 188.827 134.148 189.36C133.444 189.883 132.569 190.144 131.524 190.144C130.692 190.144 129.945 189.957 129.284 189.584C128.633 189.211 128.121 188.683 127.748 188C127.375 187.307 127.188 186.507 127.188 185.6C127.188 184.693 127.369 183.899 127.732 183.216C128.095 182.533 128.601 182.011 129.252 181.648C129.913 181.275 130.671 181.088 131.524 181.088C132.356 181.088 133.092 181.269 133.732 181.632C134.372 181.995 134.863 182.496 135.204 183.136C135.556 183.765 135.732 184.48 135.732 185.28ZM134.228 184.976C134.228 184.421 134.105 183.947 133.86 183.552C133.615 183.147 133.279 182.843 132.852 182.64C132.436 182.427 131.972 182.32 131.46 182.32C130.724 182.32 130.095 182.555 129.572 183.024C129.06 183.493 128.767 184.144 128.692 184.976H134.228ZM140.758 190.144C140.086 190.144 139.483 190.032 138.95 189.808C138.417 189.573 137.995 189.253 137.686 188.848C137.377 188.432 137.206 187.957 137.174 187.424H138.678C138.721 187.861 138.923 188.219 139.286 188.496C139.659 188.773 140.145 188.912 140.742 188.912C141.297 188.912 141.734 188.789 142.054 188.544C142.374 188.299 142.534 187.989 142.534 187.616C142.534 187.232 142.363 186.949 142.022 186.768C141.681 186.576 141.153 186.389 140.438 186.208C139.787 186.037 139.254 185.867 138.838 185.696C138.433 185.515 138.081 185.253 137.782 184.912C137.494 184.56 137.35 184.101 137.35 183.536C137.35 183.088 137.483 182.677 137.75 182.304C138.017 181.931 138.395 181.637 138.886 181.424C139.377 181.2 139.937 181.088 140.566 181.088C141.537 181.088 142.321 181.333 142.918 181.824C143.515 182.315 143.835 182.987 143.878 183.84H142.422C142.39 183.381 142.203 183.013 141.862 182.736C141.531 182.459 141.083 182.32 140.518 182.32C139.995 182.32 139.579 182.432 139.27 182.656C138.961 182.88 138.806 183.173 138.806 183.536C138.806 183.824 138.897 184.064 139.078 184.256C139.27 184.437 139.505 184.587 139.782 184.704C140.07 184.811 140.465 184.933 140.966 185.072C141.595 185.243 142.107 185.413 142.502 185.584C142.897 185.744 143.233 185.989 143.51 186.32C143.798 186.651 143.947 187.083 143.958 187.616C143.958 188.096 143.825 188.528 143.558 188.912C143.291 189.296 142.913 189.6 142.422 189.824C141.942 190.037 141.387 190.144 140.758 190.144ZM152.055 182.432V187.6C152.055 188.027 152.146 188.331 152.327 188.512C152.508 188.683 152.823 188.768 153.271 188.768H154.343V190H153.031C152.22 190 151.612 189.813 151.207 189.44C150.802 189.067 150.599 188.453 150.599 187.6V182.432H149.463V181.232H150.599V179.024H152.055V181.232H154.343V182.432H152.055ZM160.459 181.072C161.12 181.072 161.718 181.216 162.251 181.504C162.784 181.781 163.2 182.203 163.499 182.768C163.808 183.333 163.963 184.021 163.963 184.832V190H162.523V185.04C162.523 184.165 162.304 183.499 161.867 183.04C161.43 182.571 160.832 182.336 160.075 182.336C159.307 182.336 158.694 182.576 158.235 183.056C157.787 183.536 157.563 184.235 157.563 185.152V190H156.107V178.16H157.563V182.48C157.851 182.032 158.246 181.685 158.747 181.44C159.259 181.195 159.83 181.072 160.459 181.072ZM174.341 185.28C174.341 185.557 174.325 185.851 174.293 186.16H167.285C167.339 187.024 167.632 187.701 168.165 188.192C168.709 188.672 169.365 188.912 170.133 188.912C170.763 188.912 171.285 188.768 171.701 188.48C172.128 188.181 172.427 187.787 172.597 187.296H174.165C173.931 188.139 173.461 188.827 172.757 189.36C172.053 189.883 171.179 190.144 170.133 190.144C169.301 190.144 168.555 189.957 167.893 189.584C167.243 189.211 166.731 188.683 166.357 188C165.984 187.307 165.797 186.507 165.797 185.6C165.797 184.693 165.979 183.899 166.341 183.216C166.704 182.533 167.211 182.011 167.861 181.648C168.523 181.275 169.28 181.088 170.133 181.088C170.965 181.088 171.701 181.269 172.341 181.632C172.981 181.995 173.472 182.496 173.813 183.136C174.165 183.765 174.341 184.48 174.341 185.28ZM172.837 184.976C172.837 184.421 172.715 183.947 172.469 183.552C172.224 183.147 171.888 182.843 171.461 182.64C171.045 182.427 170.581 182.32 170.069 182.32C169.333 182.32 168.704 182.555 168.181 183.024C167.669 183.493 167.376 184.144 167.301 184.976H172.837ZM181.985 182.848C182.273 182.347 182.7 181.931 183.265 181.6C183.841 181.259 184.508 181.088 185.265 181.088C186.044 181.088 186.748 181.275 187.377 181.648C188.017 182.021 188.518 182.549 188.881 183.232C189.244 183.904 189.425 184.688 189.425 185.584C189.425 186.469 189.244 187.259 188.881 187.952C188.518 188.645 188.017 189.184 187.377 189.568C186.748 189.952 186.044 190.144 185.265 190.144C184.518 190.144 183.857 189.979 183.281 189.648C182.716 189.307 182.284 188.885 181.985 188.384V194.16H180.529V181.232H181.985V182.848ZM187.937 185.584C187.937 184.923 187.804 184.347 187.537 183.856C187.27 183.365 186.908 182.992 186.449 182.736C186.001 182.48 185.505 182.352 184.961 182.352C184.428 182.352 183.932 182.485 183.473 182.752C183.025 183.008 182.662 183.387 182.385 183.888C182.118 184.379 181.985 184.949 181.985 185.6C181.985 186.261 182.118 186.843 182.385 187.344C182.662 187.835 183.025 188.213 183.473 188.48C183.932 188.736 184.428 188.864 184.961 188.864C185.505 188.864 186.001 188.736 186.449 188.48C186.908 188.213 187.27 187.835 187.537 187.344C187.804 186.843 187.937 186.256 187.937 185.584ZM192.797 182.656C193.053 182.155 193.416 181.765 193.885 181.488C194.365 181.211 194.947 181.072 195.629 181.072V182.576H195.245C193.613 182.576 192.797 183.461 192.797 185.232V190H191.341V181.232H192.797V182.656ZM201.134 190.144C200.313 190.144 199.566 189.957 198.894 189.584C198.233 189.211 197.71 188.683 197.326 188C196.953 187.307 196.766 186.507 196.766 185.6C196.766 184.704 196.958 183.915 197.342 183.232C197.737 182.539 198.27 182.011 198.942 181.648C199.614 181.275 200.366 181.088 201.198 181.088C202.03 181.088 202.782 181.275 203.454 181.648C204.126 182.011 204.654 182.533 205.038 183.216C205.433 183.899 205.63 184.693 205.63 185.6C205.63 186.507 205.427 187.307 205.022 188C204.627 188.683 204.089 189.211 203.406 189.584C202.723 189.957 201.966 190.144 201.134 190.144ZM201.134 188.864C201.657 188.864 202.147 188.741 202.606 188.496C203.065 188.251 203.433 187.883 203.71 187.392C203.998 186.901 204.142 186.304 204.142 185.6C204.142 184.896 204.003 184.299 203.726 183.808C203.449 183.317 203.086 182.955 202.638 182.72C202.19 182.475 201.705 182.352 201.182 182.352C200.649 182.352 200.158 182.475 199.71 182.72C199.273 182.955 198.921 183.317 198.654 183.808C198.387 184.299 198.254 184.896 198.254 185.6C198.254 186.315 198.382 186.917 198.638 187.408C198.905 187.899 199.257 188.267 199.694 188.512C200.131 188.747 200.611 188.864 201.134 188.864ZM208.329 179.808C208.051 179.808 207.817 179.712 207.625 179.52C207.443 179.328 207.353 179.093 207.353 178.816C207.353 178.539 207.443 178.304 207.625 178.112C207.817 177.92 208.051 177.824 208.329 177.824C208.606 177.824 208.835 177.92 209.017 178.112C209.209 178.304 209.305 178.539 209.305 178.816C209.305 179.093 209.209 179.328 209.017 179.52C208.835 179.712 208.606 179.808 208.329 179.808ZM209.049 191.904C209.049 192.683 208.851 193.253 208.457 193.616C208.062 193.979 207.486 194.16 206.729 194.16H205.88V192.928H206.489C206.894 192.928 207.177 192.848 207.337 192.688C207.507 192.528 207.593 192.256 207.593 191.872V181.232H209.049V191.904ZM219.513 185.28C219.513 185.557 219.497 185.851 219.465 186.16H212.457C212.511 187.024 212.804 187.701 213.337 188.192C213.881 188.672 214.537 188.912 215.305 188.912C215.935 188.912 216.457 188.768 216.873 188.48C217.3 188.181 217.599 187.787 217.769 187.296H219.337C219.103 188.139 218.633 188.827 217.929 189.36C217.225 189.883 216.351 190.144 215.305 190.144C214.473 190.144 213.727 189.957 213.065 189.584C212.415 189.211 211.903 188.683 211.529 188C211.156 187.307 210.969 186.507 210.969 185.6C210.969 184.693 211.151 183.899 211.513 183.216C211.876 182.533 212.383 182.011 213.033 181.648C213.695 181.275 214.452 181.088 215.305 181.088C216.137 181.088 216.873 181.269 217.513 181.632C218.153 181.995 218.644 182.496 218.985 183.136C219.337 183.765 219.513 184.48 219.513 185.28ZM218.009 184.976C218.009 184.421 217.887 183.947 217.641 183.552C217.396 183.147 217.06 182.843 216.633 182.64C216.217 182.427 215.753 182.32 215.241 182.32C214.505 182.32 213.876 182.555 213.353 183.024C212.841 183.493 212.548 184.144 212.473 184.976H218.009ZM220.891 185.6C220.891 184.693 221.072 183.904 221.435 183.232C221.798 182.549 222.299 182.021 222.939 181.648C223.59 181.275 224.331 181.088 225.163 181.088C226.24 181.088 227.126 181.349 227.819 181.872C228.523 182.395 228.987 183.12 229.211 184.048H227.643C227.494 183.515 227.2 183.093 226.763 182.784C226.336 182.475 225.803 182.32 225.163 182.32C224.331 182.32 223.659 182.608 223.147 183.184C222.635 183.749 222.379 184.555 222.379 185.6C222.379 186.656 222.635 187.472 223.147 188.048C223.659 188.624 224.331 188.912 225.163 188.912C225.803 188.912 226.336 188.763 226.763 188.464C227.19 188.165 227.483 187.739 227.643 187.184H229.211C228.976 188.08 228.507 188.8 227.803 189.344C227.099 189.877 226.219 190.144 225.163 190.144C224.331 190.144 223.59 189.957 222.939 189.584C222.299 189.211 221.798 188.683 221.435 188C221.072 187.317 220.891 186.517 220.891 185.6ZM232.93 182.432V187.6C232.93 188.027 233.021 188.331 233.202 188.512C233.383 188.683 233.698 188.768 234.146 188.768H235.218V190H233.906C233.095 190 232.487 189.813 232.082 189.44C231.677 189.067 231.474 188.453 231.474 187.6V182.432H230.338V181.232H231.474V179.024H232.93V181.232H235.218V182.432H232.93ZM242 179.808C241.722 179.808 241.488 179.712 241.296 179.52C241.104 179.328 241.008 179.093 241.008 178.816C241.008 178.539 241.104 178.304 241.296 178.112C241.488 177.92 241.722 177.824 242 177.824C242.266 177.824 242.49 177.92 242.672 178.112C242.864 178.304 242.96 178.539 242.96 178.816C242.96 179.093 242.864 179.328 242.672 179.52C242.49 179.712 242.266 179.808 242 179.808ZM242.704 181.232V190H241.248V181.232H242.704ZM249.457 181.072C250.524 181.072 251.388 181.397 252.049 182.048C252.71 182.688 253.041 183.616 253.041 184.832V190H251.601V185.04C251.601 184.165 251.382 183.499 250.945 183.04C250.508 182.571 249.91 182.336 249.153 182.336C248.385 182.336 247.772 182.576 247.313 183.056C246.865 183.536 246.641 184.235 246.641 185.152V190H245.185V181.232H246.641V182.48C246.929 182.032 247.318 181.685 247.809 181.44C248.31 181.195 248.86 181.072 249.457 181.072ZM33.008 206.432V211.6C33.008 212.027 33.0987 212.331 33.28 212.512C33.4613 212.683 33.776 212.768 34.224 212.768H35.296V214H33.984C33.1733 214 32.5653 213.813 32.16 213.44C31.7547 213.067 31.552 212.453 31.552 211.6V206.432H30.416V205.232H31.552V203.024H33.008V205.232H35.296V206.432H33.008ZM41.4121 205.072C42.0735 205.072 42.6708 205.216 43.2041 205.504C43.7375 205.781 44.1535 206.203 44.4521 206.768C44.7615 207.333 44.9161 208.021 44.9161 208.832V214H43.4761V209.04C43.4761 208.165 43.2575 207.499 42.8201 207.04C42.3828 206.571 41.7855 206.336 41.0281 206.336C40.2601 206.336 39.6468 206.576 39.1881 207.056C38.7401 207.536 38.5161 208.235 38.5161 209.152V214H37.0601V202.16H38.5161V206.48C38.8041 206.032 39.1988 205.685 39.7001 205.44C40.2121 205.195 40.7828 205.072 41.4121 205.072ZM48.0465 203.808C47.7692 203.808 47.5345 203.712 47.3425 203.52C47.1505 203.328 47.0545 203.093 47.0545 202.816C47.0545 202.539 47.1505 202.304 47.3425 202.112C47.5345 201.92 47.7692 201.824 48.0465 201.824C48.3132 201.824 48.5372 201.92 48.7185 202.112C48.9105 202.304 49.0065 202.539 49.0065 202.816C49.0065 203.093 48.9105 203.328 48.7185 203.52C48.5372 203.712 48.3132 203.808 48.0465 203.808ZM48.7505 205.232V214H47.2945V205.232H48.7505ZM54.336 214.144C53.664 214.144 53.0613 214.032 52.528 213.808C51.9947 213.573 51.5733 213.253 51.264 212.848C50.9547 212.432 50.784 211.957 50.752 211.424H52.256C52.2987 211.861 52.5013 212.219 52.864 212.496C53.2373 212.773 53.7227 212.912 54.32 212.912C54.8747 212.912 55.312 212.789 55.632 212.544C55.952 212.299 56.112 211.989 56.112 211.616C56.112 211.232 55.9413 210.949 55.6 210.768C55.2587 210.576 54.7307 210.389 54.016 210.208C53.3653 210.037 52.832 209.867 52.416 209.696C52.0107 209.515 51.6587 209.253 51.36 208.912C51.072 208.56 50.928 208.101 50.928 207.536C50.928 207.088 51.0613 206.677 51.328 206.304C51.5947 205.931 51.9733 205.637 52.464 205.424C52.9547 205.2 53.5147 205.088 54.144 205.088C55.1147 205.088 55.8987 205.333 56.496 205.824C57.0933 206.315 57.4133 206.987 57.456 207.84H56C55.968 207.381 55.7813 207.013 55.44 206.736C55.1093 206.459 54.6613 206.32 54.096 206.32C53.5733 206.32 53.1573 206.432 52.848 206.656C52.5387 206.88 52.384 207.173 52.384 207.536C52.384 207.824 52.4747 208.064 52.656 208.256C52.848 208.437 53.0827 208.587 53.36 208.704C53.648 208.811 54.0427 208.933 54.544 209.072C55.1733 209.243 55.6853 209.413 56.08 209.584C56.4747 209.744 56.8107 209.989 57.088 210.32C57.376 210.651 57.5253 211.083 57.536 211.616C57.536 212.096 57.4027 212.528 57.136 212.912C56.8693 213.296 56.4907 213.6 56 213.824C55.52 214.037 54.9653 214.144 54.336 214.144ZM63.313 209.584C63.313 208.688 63.4943 207.904 63.857 207.232C64.2197 206.549 64.7157 206.021 65.345 205.648C65.985 205.275 66.6997 205.088 67.489 205.088C68.1717 205.088 68.8063 205.248 69.393 205.568C69.9797 205.877 70.4277 206.288 70.737 206.8V202.16H72.209V214H70.737V212.352C70.449 212.875 70.0223 213.307 69.457 213.648C68.8917 213.979 68.2303 214.144 67.473 214.144C66.6943 214.144 65.985 213.952 65.345 213.568C64.7157 213.184 64.2197 212.645 63.857 211.952C63.4943 211.259 63.313 210.469 63.313 209.584ZM70.737 209.6C70.737 208.939 70.6037 208.363 70.337 207.872C70.0703 207.381 69.7077 207.008 69.249 206.752C68.801 206.485 68.305 206.352 67.761 206.352C67.217 206.352 66.721 206.48 66.273 206.736C65.825 206.992 65.4677 207.365 65.201 207.856C64.9343 208.347 64.801 208.923 64.801 209.584C64.801 210.256 64.9343 210.843 65.201 211.344C65.4677 211.835 65.825 212.213 66.273 212.48C66.721 212.736 67.217 212.864 67.761 212.864C68.305 212.864 68.801 212.736 69.249 212.48C69.7077 212.213 70.0703 211.835 70.337 211.344C70.6037 210.843 70.737 210.261 70.737 209.6ZM82.6695 209.28C82.6695 209.557 82.6535 209.851 82.6215 210.16H75.6135C75.6668 211.024 75.9602 211.701 76.4935 212.192C77.0375 212.672 77.6935 212.912 78.4615 212.912C79.0908 212.912 79.6135 212.768 80.0295 212.48C80.4562 212.181 80.7548 211.787 80.9255 211.296H82.4935C82.2588 212.139 81.7895 212.827 81.0855 213.36C80.3815 213.883 79.5068 214.144 78.4615 214.144C77.6295 214.144 76.8828 213.957 76.2215 213.584C75.5708 213.211 75.0588 212.683 74.6855 212C74.3122 211.307 74.1255 210.507 74.1255 209.6C74.1255 208.693 74.3068 207.899 74.6695 207.216C75.0322 206.533 75.5388 206.011 76.1895 205.648C76.8508 205.275 77.6082 205.088 78.4615 205.088C79.2935 205.088 80.0295 205.269 80.6695 205.632C81.3095 205.995 81.8002 206.496 82.1415 207.136C82.4935 207.765 82.6695 208.48 82.6695 209.28ZM81.1655 208.976C81.1655 208.421 81.0428 207.947 80.7975 207.552C80.5522 207.147 80.2162 206.843 79.7895 206.64C79.3735 206.427 78.9095 206.32 78.3975 206.32C77.6615 206.32 77.0322 206.555 76.5095 207.024C75.9975 207.493 75.7042 208.144 75.6295 208.976H81.1655ZM87.6954 214.144C87.0234 214.144 86.4207 214.032 85.8874 213.808C85.354 213.573 84.9327 213.253 84.6234 212.848C84.314 212.432 84.1434 211.957 84.1114 211.424H85.6154C85.658 211.861 85.8607 212.219 86.2234 212.496C86.5967 212.773 87.082 212.912 87.6794 212.912C88.234 212.912 88.6714 212.789 88.9914 212.544C89.3114 212.299 89.4714 211.989 89.4714 211.616C89.4714 211.232 89.3007 210.949 88.9594 210.768C88.618 210.576 88.09 210.389 87.3754 210.208C86.7247 210.037 86.1914 209.867 85.7754 209.696C85.37 209.515 85.018 209.253 84.7194 208.912C84.4314 208.56 84.2874 208.101 84.2874 207.536C84.2874 207.088 84.4207 206.677 84.6874 206.304C84.954 205.931 85.3327 205.637 85.8234 205.424C86.314 205.2 86.874 205.088 87.5034 205.088C88.474 205.088 89.258 205.333 89.8554 205.824C90.4527 206.315 90.7727 206.987 90.8154 207.84H89.3594C89.3274 207.381 89.1407 207.013 88.7994 206.736C88.4687 206.459 88.0207 206.32 87.4554 206.32C86.9327 206.32 86.5167 206.432 86.2074 206.656C85.898 206.88 85.7434 207.173 85.7434 207.536C85.7434 207.824 85.834 208.064 86.0154 208.256C86.2074 208.437 86.442 208.587 86.7194 208.704C87.0074 208.811 87.402 208.933 87.9034 209.072C88.5327 209.243 89.0447 209.413 89.4394 209.584C89.834 209.744 90.17 209.989 90.4474 210.32C90.7354 210.651 90.8847 211.083 90.8954 211.616C90.8954 212.096 90.762 212.528 90.4954 212.912C90.2287 213.296 89.85 213.6 89.3594 213.824C88.8794 214.037 88.3247 214.144 87.6954 214.144ZM92.4068 209.6C92.4068 208.693 92.5881 207.904 92.9508 207.232C93.3134 206.549 93.8148 206.021 94.4548 205.648C95.1054 205.275 95.8468 205.088 96.6788 205.088C97.7561 205.088 98.6414 205.349 99.3348 205.872C100.039 206.395 100.503 207.12 100.727 208.048H99.1588C99.0094 207.515 98.7161 207.093 98.2788 206.784C97.8521 206.475 97.3188 206.32 96.6788 206.32C95.8468 206.32 95.1748 206.608 94.6628 207.184C94.1508 207.749 93.8948 208.555 93.8948 209.6C93.8948 210.656 94.1508 211.472 94.6628 212.048C95.1748 212.624 95.8468 212.912 96.6788 212.912C97.3188 212.912 97.8521 212.763 98.2788 212.464C98.7054 212.165 98.9988 211.739 99.1588 211.184H100.727C100.492 212.08 100.023 212.8 99.3188 213.344C98.6148 213.877 97.7348 214.144 96.6788 214.144C95.8468 214.144 95.1054 213.957 94.4548 213.584C93.8148 213.211 93.3134 212.683 92.9508 212C92.5881 211.317 92.4068 210.517 92.4068 209.6ZM104.126 206.656C104.382 206.155 104.744 205.765 105.214 205.488C105.694 205.211 106.275 205.072 106.958 205.072V206.576H106.574C104.942 206.576 104.126 207.461 104.126 209.232V214H102.67V205.232H104.126V206.656ZM109.39 203.808C109.113 203.808 108.878 203.712 108.686 203.52C108.494 203.328 108.398 203.093 108.398 202.816C108.398 202.539 108.494 202.304 108.686 202.112C108.878 201.92 109.113 201.824 109.39 201.824C109.657 201.824 109.881 201.92 110.062 202.112C110.254 202.304 110.35 202.539 110.35 202.816C110.35 203.093 110.254 203.328 110.062 203.52C109.881 203.712 109.657 203.808 109.39 203.808ZM110.094 205.232V214H108.638V205.232H110.094ZM114.032 206.848C114.32 206.347 114.746 205.931 115.312 205.6C115.888 205.259 116.554 205.088 117.312 205.088C118.09 205.088 118.794 205.275 119.424 205.648C120.064 206.021 120.565 206.549 120.928 207.232C121.29 207.904 121.472 208.688 121.472 209.584C121.472 210.469 121.29 211.259 120.928 211.952C120.565 212.645 120.064 213.184 119.424 213.568C118.794 213.952 118.09 214.144 117.312 214.144C116.565 214.144 115.904 213.979 115.328 213.648C114.762 213.307 114.33 212.885 114.032 212.384V218.16H112.576V205.232H114.032V206.848ZM119.984 209.584C119.984 208.923 119.85 208.347 119.584 207.856C119.317 207.365 118.954 206.992 118.496 206.736C118.048 206.48 117.552 206.352 117.008 206.352C116.474 206.352 115.978 206.485 115.52 206.752C115.072 207.008 114.709 207.387 114.432 207.888C114.165 208.379 114.032 208.949 114.032 209.6C114.032 210.261 114.165 210.843 114.432 211.344C114.709 211.835 115.072 212.213 115.52 212.48C115.978 212.736 116.474 212.864 117.008 212.864C117.552 212.864 118.048 212.736 118.496 212.48C118.954 212.213 119.317 211.835 119.584 211.344C119.85 210.843 119.984 210.256 119.984 209.584ZM125.164 206.432V211.6C125.164 212.027 125.255 212.331 125.436 212.512C125.618 212.683 125.932 212.768 126.38 212.768H127.452V214H126.14C125.33 214 124.722 213.813 124.316 213.44C123.911 213.067 123.708 212.453 123.708 211.6V206.432H122.572V205.232H123.708V203.024H125.164V205.232H127.452V206.432H125.164ZM129.968 203.808C129.691 203.808 129.456 203.712 129.264 203.52C129.072 203.328 128.976 203.093 128.976 202.816C128.976 202.539 129.072 202.304 129.264 202.112C129.456 201.92 129.691 201.824 129.968 201.824C130.235 201.824 130.459 201.92 130.64 202.112C130.832 202.304 130.928 202.539 130.928 202.816C130.928 203.093 130.832 203.328 130.64 203.52C130.459 203.712 130.235 203.808 129.968 203.808ZM130.672 205.232V214H129.216V205.232H130.672ZM136.978 214.144C136.157 214.144 135.41 213.957 134.738 213.584C134.077 213.211 133.554 212.683 133.17 212C132.797 211.307 132.61 210.507 132.61 209.6C132.61 208.704 132.802 207.915 133.186 207.232C133.581 206.539 134.114 206.011 134.786 205.648C135.458 205.275 136.21 205.088 137.042 205.088C137.874 205.088 138.626 205.275 139.298 205.648C139.97 206.011 140.498 206.533 140.882 207.216C141.277 207.899 141.474 208.693 141.474 209.6C141.474 210.507 141.271 211.307 140.866 212C140.471 212.683 139.933 213.211 139.25 213.584C138.567 213.957 137.81 214.144 136.978 214.144ZM136.978 212.864C137.501 212.864 137.991 212.741 138.45 212.496C138.909 212.251 139.277 211.883 139.554 211.392C139.842 210.901 139.986 210.304 139.986 209.6C139.986 208.896 139.847 208.299 139.57 207.808C139.293 207.317 138.93 206.955 138.482 206.72C138.034 206.475 137.549 206.352 137.026 206.352C136.493 206.352 136.002 206.475 135.554 206.72C135.117 206.955 134.765 207.317 134.498 207.808C134.231 208.299 134.098 208.896 134.098 209.6C134.098 210.315 134.226 210.917 134.482 211.408C134.749 211.899 135.101 212.267 135.538 212.512C135.975 212.747 136.455 212.864 136.978 212.864ZM147.66 205.072C148.727 205.072 149.591 205.397 150.252 206.048C150.914 206.688 151.244 207.616 151.244 208.832V214H149.804V209.04C149.804 208.165 149.586 207.499 149.148 207.04C148.711 206.571 148.114 206.336 147.356 206.336C146.588 206.336 145.975 206.576 145.516 207.056C145.068 207.536 144.844 208.235 144.844 209.152V214H143.388V205.232H144.844V206.48C145.132 206.032 145.522 205.685 146.012 205.44C146.514 205.195 147.063 205.072 147.66 205.072ZM154.087 214.096C153.809 214.096 153.575 214 153.383 213.808C153.191 213.616 153.095 213.381 153.095 213.104C153.095 212.827 153.191 212.592 153.383 212.4C153.575 212.208 153.809 212.112 154.087 212.112C154.353 212.112 154.577 212.208 154.759 212.4C154.951 212.592 155.047 212.827 155.047 213.104C155.047 213.381 154.951 213.616 154.759 213.808C154.577 214 154.353 214.096 154.087 214.096Z" fill="black" fill-opacity="0.7"/>
<path d="M37.616 280.228V281.81H35.012V290H33.052V281.81H30.448V280.228H37.616ZM43.1061 281.81V284.26H46.3961V285.814H43.1061V288.404H46.8161V290H41.1461V280.214H46.8161V281.81H43.1061ZM57.3473 280.228V281.81H54.7433V290H52.7833V281.81H50.1793V280.228H57.3473ZM68.2733 288.446H71.4933V290H66.3133V280.228H68.2733V288.446ZM76.799 280.228V290H74.839V280.228H76.799ZM89.1935 290H87.2335L82.7955 283.294V290H80.8355V280.214H82.7955L87.2335 286.934V280.214H89.1935V290ZM98.7465 290L95.1905 285.646V290H93.2305V280.228H95.1905V284.61L98.7465 280.228H101.112L97.0805 285.072L101.224 290H98.7465Z" fill="black"/>
<path d="M30 300H102" stroke="black" stroke-width="2"/>
</svg>
