<svg width="1745" height="1061" viewBox="0 0 1745 1061" fill="none" xmlns="http://www.w3.org/2000/svg">
<g style="mix-blend-mode:darken">
<path d="M0 31.6384C8.58933 31.4318 17.1787 31.1218 25.9632 30.9151C24.6943 34.8416 26.744 36.3915 29.965 38.0448C33.2836 39.6981 36.1142 42.5913 39.14 44.9678C39.5304 45.2778 39.7256 46.0011 39.9209 46.6211C40.9945 50.0309 41.9706 53.4408 43.4347 56.7473C44.8012 54.3708 45.6796 52.4075 48.803 53.2341C51.1455 53.8541 52.024 54.6807 52.024 57.1606C52.024 58.8139 51.8288 60.9838 52.7072 62.1204C57.0019 67.7002 54.2689 76.7931 61.4918 80.9263C62.8583 81.7529 63.6391 84.5428 63.9319 86.506C64.5176 91.5691 64.3223 96.7356 65.1032 101.695C66.0793 107.998 67.5433 114.198 69.105 120.398C69.4955 121.844 71.0572 123.084 72.326 124.014C75.6446 126.701 78.8656 129.594 82.5747 131.764C87.1621 134.554 91.652 137.344 97.2156 138.584C103.95 140.134 110.392 139.41 116.834 138.584C118.982 138.274 121.031 136.93 123.081 136.001C124.448 135.381 125.814 134.761 127.278 134.141C128.059 133.727 129.426 133.624 129.621 133.004C130.987 128.974 134.891 129.387 137.429 127.528C140.065 125.668 143.383 124.221 143.578 119.985C143.578 119.261 144.457 118.331 145.14 118.021C146.702 117.195 148.361 116.781 149.923 115.955C150.704 115.541 151.777 114.921 151.875 114.301C152.363 109.342 156.267 108.102 159.391 105.829C160.171 105.209 160.464 103.452 160.464 102.109C160.367 93.3257 160.171 84.4394 159.879 75.6565C159.683 71.73 158.805 67.9068 158.903 63.9803C159 60.7771 158.805 57.1606 161.44 54.4741C162.807 53.1308 163.685 51.2709 164.857 49.6176C168.956 50.7542 165.735 55.1974 168.078 57.0573C170.713 56.2307 172.958 58.5039 173.446 62.7404C173.543 63.567 173.446 64.497 173.641 65.3236C173.836 66.4602 174.031 68.3201 174.617 68.5268C177.741 69.5601 178.326 73.6932 181.352 74.6232C181.938 74.8299 182.718 75.4498 183.011 75.2432C185.744 73.0733 187.111 75.0365 188.77 76.9998C189.844 78.2397 192.381 76.6898 192.577 74.5199C192.772 71.5233 194.529 69.8701 195.993 67.7002C198.238 64.3937 201.166 65.5303 203.606 66.3569C205.168 66.8735 207.218 68.8368 207.51 70.49C208.779 77.1031 209.462 83.9228 210.243 90.6392C210.634 94.359 210.634 98.0788 210.731 101.799C210.829 105.312 213.952 110.685 217.173 111.925C219.613 112.855 221.175 114.198 221.761 117.091C222.444 120.501 225.958 122.774 229.374 122.464C231.619 122.258 233.083 122.878 234.84 124.738C236.695 126.598 239.623 127.424 242.258 127.838C245.577 128.458 248.993 128.458 252.409 128.251C256.411 128.044 257.973 129.181 258.461 133.417C258.656 134.554 258.851 135.691 259.144 136.827C259.632 138.79 260.51 139.617 262.267 137.86C264.219 136.001 267.636 136.207 269.685 138.067C272.223 140.237 278.665 141.477 280.52 138.997C282.179 136.724 285.498 135.381 285.595 131.557C285.595 130.317 287.45 128.767 288.719 128.044C290.671 127.011 292.916 126.598 295.063 126.081C297.698 125.564 298.382 123.498 299.26 121.224C299.846 119.881 301.017 118.538 302.188 117.815C304.238 116.575 306.288 115.645 306.58 112.648C306.678 111.925 307.556 111.098 308.142 110.685C308.337 110.582 309.313 111.305 309.704 111.822C311.656 114.405 317.317 115.025 318.586 112.132C321.026 106.448 325.516 106.965 329.908 106.242C331.08 106.035 332.446 105.932 333.324 105.209C336.741 102.419 340.743 103.245 344.549 103.039C345.818 102.935 347.38 103.142 348.356 102.522C356.262 97.2522 365.144 98.0788 373.733 97.4589C376.662 97.2522 379.687 97.4589 383.006 97.4589C383.006 97.5622 383.299 97.0456 383.299 96.6322C383.592 89.6059 383.884 82.5795 383.982 75.5532C384.08 68.9401 383.982 62.3271 384.177 55.714C384.177 54.6807 385.544 53.6475 386.227 52.6142C386.91 53.6475 387.691 54.4741 388.081 55.6107C388.472 56.7473 388.277 57.9873 388.277 59.1239C388.862 59.2272 389.155 59.4339 389.253 59.3305C393.059 57.264 392.864 57.3673 395.109 61.2938C396.476 63.7737 398.33 66.0469 399.794 68.4235C400.282 69.2501 400.282 70.3867 400.282 71.42C400.282 74.2099 400.477 76.9998 403.015 78.963C403.503 78.343 403.894 77.8264 404.479 77.4131C405.65 76.3798 406.724 76.3798 407.115 78.2397C407.407 79.4797 407.505 80.7196 407.505 82.0629C407.505 92.1891 407.212 102.315 407.505 112.338C407.603 114.405 409.164 116.471 410.433 118.331C411.409 119.675 412.776 121.018 414.24 121.534C417.168 122.774 418.242 124.841 418.437 128.044C418.437 128.974 419.413 130.111 420.194 130.731C425.562 135.071 431.516 137.137 438.446 137.034C442.741 137.034 447.035 138.17 451.33 139.1C452.209 139.307 453.185 140.65 453.38 141.58C454.161 145.403 456.21 147.263 459.724 148.813C464.897 151.19 470.168 151.706 475.634 151.913C482.369 152.223 489.104 153.153 495.838 153.256C501.402 153.36 506.478 155.323 511.846 156.356C514.579 156.873 517.409 157.183 520.24 157.183C524.047 157.183 527.853 156.666 531.66 156.46C532.831 156.356 534.1 156.563 535.271 156.666C541.811 156.976 548.35 157.493 554.89 157.7C558.892 157.803 562.894 157.906 566.896 157.493C570.702 157.08 574.509 156.46 578.12 155.22C582.805 153.67 587.393 153.98 591.98 155.323C599.691 157.596 607.5 158.94 615.503 158.216C618.139 157.906 620.774 156.976 623.409 156.46C624.874 156.15 626.338 156.253 627.802 156.15C634.244 155.633 640.783 155.22 647.225 154.496C655.327 153.67 663.33 152.533 671.334 151.5C672.017 151.397 673.189 151.087 673.384 150.57C674.36 147.677 676.605 147.883 678.947 147.367C683.437 146.437 687.732 144.783 692.124 143.234C695.443 142.097 696.516 139.204 696.516 135.794C696.516 133.831 697.59 133.107 698.956 131.971C701.494 129.801 703.837 127.114 704.813 123.498C705.008 122.671 705.691 121.638 706.375 121.224C711.938 117.608 718.38 115.541 722.772 109.858C723.26 109.238 724.334 109.032 725.213 108.825C728.238 108.412 731.264 108.205 734.192 107.585C735.754 107.275 737.316 106.242 738.78 105.415C739.268 105.105 739.756 104.382 740.244 104.485C744.343 104.795 745.417 101.282 747.369 98.6988C749.712 99.6288 752.737 97.4589 752.933 94.7723C753.421 85.6794 754.006 76.5865 754.592 67.8035C755.47 66.5636 756.446 65.2203 757.52 63.7737C763.474 64.3936 763.669 64.7036 763.669 73.1766C764.743 73.5899 765.914 74.0032 766.597 74.3132C770.307 70.6967 773.918 67.1835 777.92 63.257C778.213 67.3902 778.505 71.11 778.798 74.7265C779.091 74.7265 779.481 74.7265 779.774 74.8299C779.97 73.7966 780.165 72.8666 780.36 71.8333C781.531 66.0469 782.214 60.1572 783.971 54.5774C784.947 51.4775 787.29 48.791 789.437 46.3111C790.316 45.2778 792.268 45.2778 793.732 44.9678C795.684 44.5545 796.27 45.7945 796.758 47.5511C796.953 48.2744 797.831 48.6877 798.515 49.411C800.369 46.7244 802.419 47.3444 804.761 48.171C807.104 49.101 809.642 49.5143 812.179 49.8243C817.06 50.4443 822.526 45.1745 822.623 40.0081C822.721 36.4949 822.721 32.9817 822.721 29.4685C822.721 27.0919 823.599 25.4387 825.551 23.8888C827.504 22.3388 828.968 19.9623 830.334 17.689C831.993 14.7958 833.555 12.3159 836.776 10.8693C839.314 9.73271 841.852 7.66613 843.413 5.28957C844.975 2.80968 847.025 2.1897 849.172 1.98305C858.64 1.15641 868.205 0.536442 877.673 0.019798C879.723 -0.0835308 881.87 0.226456 883.92 0.7431C891.826 2.913 899.732 0.846428 907.638 1.25974C910.957 1.4664 914.275 2.39636 917.692 2.60302C921.889 3.01633 926.086 3.32632 930.283 3.22299C933.016 3.11966 933.699 4.25628 933.309 6.8395C932.82 10.2494 935.846 11.076 937.506 12.8326C937.798 13.1426 938.677 12.8326 939.165 12.6259C939.555 12.5226 939.946 12.2126 940.141 11.7993C944.631 3.94629 951.951 4.66959 959.076 4.56627C959.955 4.56627 960.931 4.77292 961.809 4.56627C965.226 3.63631 967.08 5.28957 969.52 7.87279C972.644 11.386 977.134 13.3492 980.647 16.5524C985.235 20.7889 991.091 19.6523 996.264 21.5122C997.631 22.0288 998.705 23.0621 999.973 23.8888C1005.34 27.7119 1003.49 34.2216 1004.95 39.4914C1005.83 42.4879 1005.44 45.8978 1005.83 48.9977C1006.32 53.2341 1007.2 57.3673 1007.78 61.6038C1008.07 63.9803 1008.17 66.4602 1008.37 68.9401C1008.56 72.66 1008.66 76.3798 1009.05 80.0996C1009.15 80.9263 1010.42 82.0629 1011.2 82.1662C1015.3 82.3729 1019.49 82.2695 1024.18 82.2695C1024.77 75.0365 1025.35 67.1835 1025.94 59.4339C1026.13 57.264 1025.94 55.1974 1026.23 53.0275C1026.33 52.4075 1027.4 51.6842 1028.08 51.5809C1028.47 51.4775 1029.35 52.6142 1029.45 53.1308C1029.74 57.5739 1029.84 62.0171 1030.23 66.4602C1030.43 69.6634 1030.91 72.7633 1031.21 75.8631C1031.3 76.5864 1031.21 77.4131 1030.91 78.0331C1029.55 81.6496 1030.04 82.5795 1033.75 82.4762C1038.92 82.3729 1044.09 81.8562 1049.17 81.8562C1052.19 81.8562 1055.22 82.1662 1058.15 82.7862C1059.02 82.9928 1059.61 84.6461 1060.49 85.7827C1060.68 84.9561 1060.98 84.1295 1061.27 83.3028C1063.42 83.3028 1065.47 83.0962 1067.52 83.4062C1068.4 83.5095 1069.27 84.7494 1069.96 85.6794C1070.74 86.816 1071.03 88.4693 1072.1 89.3992C1075.72 92.7057 1076.98 97.0456 1076.2 101.489C1075.52 105.829 1077.37 108.205 1080.01 110.375C1081.86 111.822 1082.74 113.578 1083.04 115.955C1083.43 118.538 1084.11 121.121 1084.79 123.704C1084.99 124.428 1085.48 125.151 1085.96 125.771C1087.82 128.148 1090.26 130.111 1091.33 132.797C1092.5 135.794 1093.87 137.034 1096.9 137.344C1102.36 137.86 1104.31 136.207 1104.12 131.454C1103.83 118.435 1103.63 105.415 1103.83 92.3958C1103.92 86.196 1104.9 80.0996 1105.39 74.0032C1105.78 69.0434 1105.97 64.0837 1106.36 59.0206C1106.56 57.0573 1107.14 55.1974 1107.34 53.2341C1107.73 49.8243 1108.02 46.4144 1108.02 42.9013C1108.02 39.9047 1107.63 37.0115 1107.44 34.015C1107.34 31.2251 1108.61 29.4685 1111.15 28.5385C1116.22 26.8853 1121.1 26.0587 1125.98 29.1585C1126.86 29.7785 1128.03 29.9852 1129.11 30.0885C1132.23 30.1918 1133.11 32.2584 1132.82 35.0483C1131.94 42.7979 1133.69 50.2376 1134.96 57.7806C1135.35 60.1572 1134.77 62.6371 1134.86 65.0136C1135.26 75.6565 1135.65 86.2994 1136.23 96.9422C1136.72 106.552 1137.5 116.058 1138.18 125.668C1138.28 127.528 1139.16 128.148 1140.92 128.251C1141.99 128.354 1143.16 129.491 1143.94 130.421C1145.02 131.764 1145.6 134.244 1146.77 134.657C1149.51 135.484 1152.53 135.587 1155.36 135.484C1155.95 135.484 1156.92 133.521 1157.02 132.487C1157.61 124.531 1158.19 116.575 1158.39 108.618C1158.68 98.1822 1158.39 87.6426 1158.78 77.2064C1159.07 68.2168 1160.05 59.2272 1160.73 50.2376L1161.71 50.0309C1162 50.9609 1162.49 51.8909 1162.49 52.9242C1162.88 59.8472 1163.17 66.7702 1163.46 73.6932C1163.66 76.5864 1163.95 79.3763 1167.66 79.1697C1168.73 78.0331 1169.81 67.3902 1170.59 61.5004C1170.98 58.4006 1173.13 58.4006 1174.69 57.3673C1174.98 57.1606 1175.66 60.4672 1175.66 63.3604C1175.37 62.0171 1175.57 76.8964 1175.66 75.5532C1180.25 92.7057 1179.67 110.272 1179.67 127.838C1180.15 127.941 1180.64 128.044 1181.03 128.044C1181.72 126.081 1182.89 124.221 1182.89 122.258C1183.08 114.198 1183.08 106.035 1183.08 97.9755C1183.08 90.3292 1182.89 82.6829 1183.08 74.9332C1183.18 71.6267 1183.96 68.4235 1184.64 65.2203C1184.84 64.3937 1185.82 63.7737 1186.4 63.1537C1186.69 63.3604 1187.08 63.567 1187.38 63.7737C1186.5 67.5968 1186.11 71.73 1186.4 75.6565C1186.99 75.4498 1190.4 74.9332 1190.89 74.0032C1193.14 70.3867 1193.04 52.9242 1193.33 49.721C1198.8 49.101 1204.36 48.5843 1210.02 47.9644C1212.07 47.7577 1214.22 47.9644 1216.17 47.3444C1219.59 46.4144 1222.52 44.5545 1224.08 40.8347C1224.27 40.318 1225.05 39.5947 1225.35 39.6981C1226.22 40.1114 1226.91 40.7314 1227.98 41.4547C1230.42 40.1114 1231.69 40.7314 1232.28 44.6578C1234.33 59.7439 1235.11 74.9332 1234.33 90.2259C1234.03 96.9422 1235.79 103.865 1236.86 110.582C1237.55 115.438 1238.62 120.191 1239.5 124.944C1240.38 129.801 1240.47 130.214 1245.16 130.731C1251.99 131.557 1258.82 133.004 1265.85 132.281C1268.59 131.971 1271.51 132.487 1274.54 131.971C1277.86 131.454 1281.47 133.314 1284.98 133.417C1291.91 133.727 1298.75 133.521 1305.68 133.727C1307.43 133.727 1309.29 134.347 1311.04 134.347C1312.12 134.347 1313.29 133.727 1314.36 132.901C1316.12 133.521 1317.78 135.794 1320.12 133.521C1320.32 133.314 1321 133.831 1321.49 133.934C1322.27 134.244 1323.24 134.967 1323.73 134.657C1326.86 133.107 1329.3 134.761 1330.96 135.897C1332.91 134.451 1334.18 133.211 1335.64 132.487C1336.13 132.281 1337.1 133.314 1337.3 133.417C1341.11 132.901 1344.42 132.177 1347.84 132.177C1351.35 132.177 1354.87 133.004 1358.58 133.521C1359.94 131.351 1360.73 131.247 1362.29 133.107C1363.95 133.107 1365.02 133.107 1366.19 133.107C1369.22 133.004 1372.15 132.797 1375.17 132.694C1375.66 132.694 1376.15 132.384 1376.63 132.487C1385.32 133.934 1394.01 132.074 1402.7 132.487C1413.92 133.004 1425.15 132.694 1436.47 132.694C1442.62 132.694 1448.86 132.591 1455.01 132.591C1456.18 132.591 1457.26 133.417 1458.53 133.727C1459.5 134.037 1460.58 134.244 1461.55 134.141C1463.5 134.037 1465.36 133.521 1467.31 133.417C1472.78 133.107 1478.34 133.004 1483.9 132.901C1490.05 132.797 1496.2 132.797 1502.35 132.797C1506.65 132.797 1510.94 132.694 1515.24 132.797C1528.9 133.004 1542.66 133.314 1556.33 133.314C1577.31 133.417 1598.3 133.211 1619.28 133.211C1634.02 133.211 1648.66 133.521 1663.4 133.624C1680.97 133.727 1698.44 133.831 1716.01 133.934C1724.7 133.934 1733.38 134.141 1742.07 134.037C1744.9 134.037 1744.9 135.794 1744.9 138.067C1744.9 173.716 1745 1054.49 1745 1061H0V31.6384Z" fill="url(#paint0_linear_2_441)"/>
</g>
<defs>
<linearGradient id="paint0_linear_2_441" x1="872.5" y1="0" x2="872.5" y2="1061" gradientUnits="userSpaceOnUse">
<stop stop-color="#FC6738" stop-opacity="0.33"/>
<stop offset="1" stop-color="white" stop-opacity="0"/>
</linearGradient>
</defs>
</svg>
