<svg width="746" height="217" viewBox="0 0 746 217" fill="none" xmlns="http://www.w3.org/2000/svg">
<path d="M0 6.94943C3.672 6.90735 7.344 6.84422 11.0995 6.80214C10.557 7.60176 11.4333 7.9174 12.8103 8.25408C14.229 8.59076 15.4391 9.17996 16.7326 9.66394C16.8995 9.72707 16.983 9.87436 17.0665 10.0006C17.5255 10.695 17.9427 11.3894 18.5686 12.0628C19.1528 11.5788 19.5284 11.179 20.8636 11.3473C21.8651 11.4736 22.2406 11.6419 22.2406 12.147C22.2406 12.4837 22.1572 12.9256 22.5327 13.157C24.3687 14.2933 23.2004 16.1451 26.2882 16.9868C26.8724 17.1551 27.2062 17.7233 27.3314 18.1231C27.5817 19.1542 27.4983 20.2063 27.8321 21.2164C28.2494 22.5 28.8753 23.7625 29.5429 25.0251C29.7098 25.3197 30.3774 25.5722 30.9199 25.7616C32.3386 26.3087 33.7156 26.8979 35.3013 27.3398C37.2624 27.9079 39.1819 28.4761 41.5604 28.7286C44.4395 29.0442 47.1935 28.8969 49.9475 28.7286C50.8655 28.6655 51.7418 28.3919 52.6181 28.2025C53.2023 28.0763 53.7864 27.95 54.4123 27.8238C54.7462 27.7396 55.3304 27.7185 55.4138 27.5923C55.998 26.7716 57.6671 26.8558 58.752 26.477C59.8786 26.0983 61.2974 25.8037 61.3808 24.9409C61.3808 24.7936 61.7563 24.6042 62.0484 24.5411C62.7161 24.3728 63.4254 24.2886 64.0931 24.1202C64.4269 24.0361 64.8859 23.9098 64.9276 23.7836C65.1363 22.7735 66.8054 22.521 68.1406 22.0581C68.4744 21.9318 68.5996 21.5741 68.5996 21.3005C68.5579 19.5119 68.4744 17.7022 68.3493 15.9136C68.2658 15.114 67.8903 14.3354 67.932 13.5358C67.9737 12.8835 67.8903 12.147 69.0169 11.5999C69.6011 11.3263 69.9766 10.9475 70.4773 10.6109C72.2299 10.8423 70.8529 11.7472 71.8543 12.1259C72.981 11.9576 73.9407 12.4205 74.1493 13.2833C74.1911 13.4516 74.1493 13.641 74.2328 13.8093C74.3163 14.0408 74.3997 14.4196 74.6501 14.4617C75.9853 14.6721 76.2357 15.5138 77.5293 15.7032C77.7796 15.7453 78.1134 15.8715 78.2386 15.8294C79.407 15.3875 79.9912 15.7874 80.7005 16.1872C81.1595 16.4397 82.2444 16.124 82.3279 15.6821C82.4113 15.0719 83.1624 14.7352 83.7883 14.2933C84.7481 13.62 85.9999 13.8514 87.0431 14.0198C87.7107 14.125 88.587 14.5248 88.7122 14.8615C89.2546 16.2082 89.5467 17.597 89.8805 18.9648C90.0474 19.7223 90.0474 20.4799 90.0892 21.2374C90.1309 21.9529 91.4662 23.0471 92.8432 23.2996C93.8863 23.489 94.554 23.7625 94.8043 24.3517C95.0964 25.0461 96.5986 25.5091 98.0591 25.4459C99.0188 25.4038 99.6447 25.5301 100.396 25.9089C101.189 26.2876 102.44 26.456 103.567 26.5402C104.986 26.6664 106.446 26.6664 107.907 26.6243C109.618 26.5822 110.285 26.8137 110.494 27.6765C110.577 27.9079 110.661 28.1394 110.786 28.3709C110.995 28.7707 111.37 28.939 112.121 28.5813C112.956 28.2025 114.416 28.2446 115.292 28.6234C116.377 29.0653 119.131 29.3178 119.924 28.8128C120.634 28.3498 122.052 28.0763 122.094 27.2977C122.094 27.0452 122.887 26.7295 123.429 26.5822C124.264 26.3718 125.224 26.2876 126.142 26.1824C127.268 26.0772 127.56 25.6564 127.936 25.1934C128.186 24.9199 128.687 24.6463 129.188 24.499C130.064 24.2465 130.94 24.0571 131.065 23.4469C131.107 23.2996 131.483 23.1312 131.733 23.0471C131.816 23.026 132.234 23.1733 132.401 23.2785C133.235 23.8046 135.655 23.9309 136.198 23.3417C137.241 22.1843 139.16 22.2895 141.038 22.1422C141.539 22.1002 142.123 22.0791 142.499 21.9318C143.959 21.3637 145.67 21.532 147.297 21.4899C147.84 21.4689 148.507 21.511 148.925 21.3847C152.305 20.3115 156.102 20.4799 159.774 20.3536C161.026 20.3115 162.319 20.3536 163.738 20.3536C163.738 20.3747 163.863 20.2694 163.863 20.1853C163.988 18.7544 164.113 17.3235 164.155 15.8926C164.197 14.5458 164.155 13.1991 164.239 11.8524C164.239 11.6419 164.823 11.4315 165.115 11.2211C165.407 11.4315 165.741 11.5999 165.908 11.8313C166.075 12.0628 165.991 12.3153 165.991 12.5468C166.241 12.5678 166.367 12.6099 166.408 12.5889C168.036 12.168 167.952 12.1891 168.912 12.9887C169.496 13.4937 170.289 13.9566 170.915 14.4406C171.124 14.609 171.124 14.8404 171.124 15.0509C171.124 15.619 171.207 16.1872 172.292 16.587C172.5 16.4607 172.667 16.3555 172.918 16.2713C173.419 16.0609 173.878 16.0609 174.044 16.4397C174.17 16.6922 174.211 16.9447 174.211 17.2183C174.211 19.2804 174.086 21.3426 174.211 23.3838C174.253 23.8046 174.921 24.2255 175.463 24.6042C175.88 24.8778 176.465 25.1513 177.091 25.2565C178.342 25.5091 178.801 25.9299 178.885 26.5822C178.885 26.7716 179.302 27.0031 179.636 27.1293C181.931 28.0131 184.476 28.434 187.439 28.4129C189.275 28.4129 191.111 28.6444 192.947 28.8338C193.322 28.8759 193.74 29.1494 193.823 29.3388C194.157 30.1174 195.033 30.4962 196.535 30.8118C198.747 31.2958 201 31.401 203.337 31.4431C206.216 31.5062 209.095 31.6956 211.974 31.7166C214.353 31.7377 216.523 32.1375 218.818 32.3479C219.986 32.4531 221.196 32.5163 222.406 32.5163C224.034 32.5163 225.661 32.4111 227.288 32.369C227.789 32.3479 228.332 32.39 228.832 32.4111C231.628 32.4742 234.424 32.5794 237.219 32.6215C238.93 32.6425 240.641 32.6636 242.352 32.5794C243.979 32.4952 245.607 32.369 247.151 32.1165C249.153 31.8008 251.115 31.8639 253.076 32.1375C256.372 32.6004 259.71 32.874 263.132 32.7267C264.259 32.6636 265.385 32.4742 266.512 32.369C267.138 32.3058 267.764 32.3269 268.39 32.3058C271.144 32.2006 273.939 32.1165 276.693 31.9692C280.157 31.8008 283.578 31.5693 287 31.3589C287.292 31.3379 287.793 31.2747 287.876 31.1695C288.294 30.5803 289.253 30.6224 290.255 30.5172C292.174 30.3278 294.01 29.9911 295.888 29.6755C297.307 29.444 297.766 28.8548 297.766 28.1604C297.766 27.7606 298.225 27.6133 298.809 27.3819C299.894 26.94 300.895 26.3929 301.313 25.6564C301.396 25.488 301.688 25.2776 301.98 25.1934C304.359 24.4569 307.113 24.0361 308.99 22.8787C309.199 22.7525 309.658 22.7104 310.034 22.6683C311.327 22.5841 312.621 22.542 313.872 22.4158C314.54 22.3527 315.208 22.1422 315.834 21.9739C316.042 21.9108 316.251 21.7635 316.46 21.7845C318.212 21.8476 318.671 21.1322 319.506 20.6061C320.507 20.7955 321.801 20.3536 321.884 19.8065C322.093 17.9547 322.343 16.103 322.593 14.3144C322.969 14.0619 323.386 13.7883 323.845 13.4937C326.391 13.62 326.474 13.6831 326.474 15.4086C326.933 15.4928 327.434 15.5769 327.726 15.6401C329.312 14.9036 330.855 14.1881 332.566 13.3885C332.691 14.2302 332.817 14.9877 332.942 15.7242C333.067 15.7242 333.234 15.7242 333.359 15.7453C333.443 15.5348 333.526 15.3455 333.609 15.135C334.11 13.9566 334.402 12.7572 335.153 11.6209C335.571 10.9896 336.572 10.4425 337.49 9.93749C337.866 9.72706 338.7 9.72707 339.326 9.66394C340.161 9.57977 340.411 9.83228 340.62 10.19C340.703 10.3373 341.079 10.4215 341.371 10.5688C342.164 10.0217 343.04 10.1479 344.041 10.3163C345.043 10.5056 346.128 10.5898 347.213 10.6529C349.299 10.7792 351.636 9.70602 351.677 8.65389C351.719 7.93844 351.719 7.22299 351.719 6.50754C351.719 6.02356 352.095 5.68687 352.929 5.37123C353.764 5.05559 354.39 4.57161 354.974 4.10867C355.683 3.51948 356.351 3.01446 357.728 2.71986C358.813 2.48839 359.898 2.06754 360.565 1.58356C361.233 1.07853 362.109 0.952275 363.027 0.91019C367.075 0.741849 371.164 0.615593 375.212 0.510379C376.088 0.489337 377.006 0.552465 377.882 0.657678C381.262 1.09957 384.642 0.678721 388.022 0.762891C389.441 0.804977 390.859 0.994361 392.32 1.03645C394.114 1.12062 395.908 1.18374 397.703 1.1627C398.871 1.14166 399.163 1.37313 398.996 1.8992C398.787 2.5936 400.081 2.76194 400.79 3.11967C400.916 3.1828 401.291 3.11967 401.5 3.07758C401.667 3.05654 401.834 2.99341 401.917 2.90924C403.836 1.31 406.966 1.4573 410.012 1.43626C410.388 1.43626 410.805 1.47834 411.18 1.43626C412.641 1.24687 413.434 1.58356 414.477 2.10962C415.812 2.82507 417.732 3.22488 419.234 3.87721C421.195 4.73995 423.699 4.50849 425.91 4.88725C426.494 4.99247 426.953 5.20289 427.496 5.37123C429.791 6.14981 428.998 7.4755 429.624 8.54868C429.999 9.15891 429.833 9.85332 429.999 10.4846C430.208 11.3473 430.584 12.1891 430.834 13.0518C430.959 13.5358 431.001 14.0408 431.084 14.5458C431.168 15.3034 431.21 16.0609 431.376 16.8184C431.418 16.9868 431.961 17.2183 432.294 17.2393C434.047 17.2814 435.841 17.2603 437.844 17.2603C438.095 15.7874 438.345 14.1881 438.595 12.6099C438.679 12.168 438.595 11.7472 438.72 11.3053C438.762 11.179 439.221 11.0317 439.513 11.0107C439.68 10.9896 440.056 11.2211 440.097 11.3263C440.223 12.2311 440.264 13.136 440.431 14.0408C440.515 14.6931 440.723 15.3244 440.849 15.9557C440.89 16.103 440.849 16.2713 440.723 16.3976C440.139 17.1341 440.348 17.3235 441.933 17.3024C444.145 17.2814 446.357 17.1762 448.526 17.1762C449.82 17.1762 451.113 17.2393 452.365 17.3656C452.741 17.4076 452.991 17.7443 453.367 17.9758C453.45 17.8074 453.575 17.6391 453.701 17.4708C454.619 17.4708 455.495 17.4287 456.371 17.4918C456.747 17.5129 457.122 17.7654 457.414 17.9547C457.748 18.1862 457.873 18.5229 458.332 18.7123C459.876 19.3856 460.419 20.2694 460.085 21.1743C459.793 22.0581 460.586 22.542 461.712 22.9839C462.505 23.2785 462.881 23.6363 463.006 24.1202C463.173 24.6463 463.465 25.1724 463.757 25.6984C463.84 25.8457 464.049 25.993 464.258 26.1193C465.05 26.6033 466.094 27.0031 466.553 27.5502C467.053 28.1604 467.637 28.4129 468.931 28.4761C471.268 28.5813 472.102 28.2446 472.019 27.2766C471.894 24.6253 471.81 21.9739 471.894 19.3225C471.935 18.06 472.353 16.8184 472.561 15.5769C472.728 14.5669 472.812 13.5568 472.979 12.5257C473.062 12.1259 473.312 11.7472 473.396 11.3473C473.563 10.6529 473.688 9.95853 473.688 9.24308C473.688 8.63285 473.521 8.04365 473.438 7.43342C473.396 6.86526 473.938 6.50754 475.023 6.31815C477.193 5.98147 479.279 5.81313 481.366 6.44441C481.741 6.57067 482.242 6.61275 482.701 6.63379C484.036 6.65484 484.412 7.07569 484.287 7.64384C483.911 9.22204 484.662 10.7371 485.205 12.2732C485.372 12.7572 485.121 13.2622 485.163 13.7462C485.33 15.9136 485.497 18.081 485.747 20.2484C485.956 22.2054 486.29 24.1413 486.582 26.0983C486.623 26.477 486.999 26.6033 487.75 26.6243C488.209 26.6454 488.71 26.8768 489.044 27.0662C489.503 27.3398 489.753 27.8448 490.254 27.929C491.422 28.0973 492.716 28.1183 493.926 28.0973C494.176 28.0973 494.593 27.6975 494.635 27.4871C494.885 25.8668 495.136 24.2465 495.219 22.6262C495.344 20.5009 495.219 18.3546 495.386 16.2292C495.511 14.3985 495.928 12.5678 496.221 10.7371L496.638 10.695C496.763 10.8844 496.972 11.0738 496.972 11.2842C497.139 12.6941 497.264 14.1039 497.389 15.5138C497.472 16.103 497.598 16.6711 499.183 16.6291C499.642 16.3976 500.101 14.2302 500.435 13.0308C500.602 12.3995 501.52 12.3995 502.188 12.1891C502.313 12.147 502.605 12.8203 502.605 13.4095C502.48 13.136 502.563 16.1661 502.605 15.8926C504.566 19.3856 504.316 22.9629 504.316 26.5402C504.524 26.5612 504.733 26.5822 504.9 26.5822C505.192 26.1824 505.693 25.8037 505.693 25.4038C505.776 23.7625 505.776 22.1001 505.776 20.4588C505.776 18.9017 505.693 17.3445 505.776 15.7663C505.818 15.0929 506.152 14.4406 506.444 13.7883C506.527 13.62 506.945 13.4937 507.195 13.3674C507.32 13.4095 507.487 13.4516 507.612 13.4937C507.237 14.2723 507.07 15.114 507.195 15.9136C507.445 15.8715 508.906 15.7663 509.114 15.5769C510.074 14.8404 510.032 11.2842 510.157 10.6319C512.494 10.5056 514.873 10.4004 517.293 10.2742C518.169 10.2321 519.087 10.2742 519.922 10.1479C521.382 9.95853 522.634 9.57977 523.302 8.82223C523.385 8.71702 523.719 8.56972 523.844 8.59076C524.22 8.67493 524.512 8.80119 524.971 8.94849C526.014 8.67493 526.556 8.80119 526.807 9.60081C527.683 12.673 528.017 15.7663 527.683 18.8806C527.558 20.2484 528.309 21.6583 528.768 23.026C529.06 24.015 529.519 24.983 529.895 25.951C530.27 26.94 530.312 27.0241 532.315 27.1293C535.236 27.2977 538.157 27.5923 541.161 27.445C542.329 27.3819 543.581 27.4871 544.875 27.3819C546.293 27.2766 547.837 27.6554 549.339 27.6765C552.302 27.7396 555.223 27.6975 558.186 27.7396C558.937 27.7396 559.729 27.8658 560.481 27.8658C560.94 27.8658 561.44 27.7396 561.899 27.5712C562.65 27.6975 563.36 28.1604 564.361 27.6975C564.445 27.6554 564.737 27.7606 564.945 27.7817C565.279 27.8448 565.696 27.9921 565.905 27.929C567.24 27.6133 568.284 27.95 568.993 28.1815C569.827 27.8869 570.37 27.6344 570.996 27.4871C571.205 27.445 571.622 27.6554 571.705 27.6765C573.333 27.5712 574.751 27.4239 576.212 27.4239C577.714 27.4239 579.216 27.5923 580.802 27.6975C581.386 27.2556 581.72 27.2346 582.387 27.6133C583.097 27.6133 583.556 27.6133 584.057 27.6133C585.35 27.5923 586.602 27.5502 587.895 27.5292C588.104 27.5292 588.313 27.466 588.521 27.4871C592.235 27.7817 595.949 27.4029 599.663 27.4871C604.461 27.5923 609.26 27.5292 614.1 27.5292C616.729 27.5292 619.399 27.5081 622.028 27.5081C622.529 27.5081 622.988 27.6765 623.531 27.7396C623.948 27.8027 624.407 27.8448 624.824 27.8238C625.659 27.8027 626.451 27.6975 627.286 27.6765C629.623 27.6133 632.001 27.5923 634.38 27.5712C637.008 27.5502 639.637 27.5502 642.266 27.5502C644.102 27.5502 645.938 27.5292 647.774 27.5502C653.616 27.5923 659.499 27.6554 665.341 27.6554C674.313 27.6765 683.284 27.6344 692.255 27.6344C698.556 27.6344 704.815 27.6975 711.116 27.7185C718.627 27.7396 726.096 27.7606 733.607 27.7817C737.321 27.7817 741.035 27.8238 744.748 27.8027C745.958 27.8027 745.958 28.1604 745.958 28.6234C745.958 35.8831 746 215.251 746 216.576H0V6.94943Z" fill="url(#paint0_linear_2_587)"/>
<defs>
<linearGradient id="paint0_linear_2_587" x1="373" y1="0.506348" x2="373" y2="216.576" gradientUnits="userSpaceOnUse">
<stop stop-color="#FC6738" stop-opacity="0.33"/>
<stop offset="1" stop-color="white" stop-opacity="0"/>
</linearGradient>
</defs>
</svg>
