<svg width="979" height="271" viewBox="0 0 979 271" fill="none" xmlns="http://www.w3.org/2000/svg">
<path d="M0.286886 23.4786C1.57788 23.6052 2.86886 23.7318 4.15985 23.7951C7.60249 23.8584 10.9017 23.9216 14.3443 23.9849C17.2132 23.9849 20.2255 23.8584 23.0944 23.9849C27.6845 24.1748 32.2747 23.9849 36.7215 23.4153C38.7297 23.1621 41.0248 23.1621 42.8895 22.5292C43.7502 22.2128 45.1846 22.276 46.4756 22.2128C50.0617 22.0229 53.7912 21.8963 57.3773 21.7697C57.9511 21.7697 58.5248 21.6431 59.0986 21.7064C64.9798 22.0862 71.0044 22.0229 76.4552 23.2254C86.7831 25.4407 97.2545 27.5926 107.582 29.7446C108.873 29.9977 109.734 30.4408 110.308 31.0737C112.173 32.9725 115.041 34.6814 118.771 36.1371C117.623 35.8839 116.619 35.5675 115.472 35.3143C115.328 35.3776 115.185 35.5042 115.041 35.5674C117.05 36.2004 119.058 36.8333 121.353 37.5928C121.21 37.2131 121.21 37.0865 121.066 36.8966C125.8 37.7827 130.677 38.6055 135.41 39.4916C135.554 39.4283 135.554 39.365 135.697 39.3017C135.267 39.1751 134.693 39.0485 134.263 38.9219C134.263 38.8587 134.406 38.7954 134.406 38.7321C135.124 38.8587 135.984 38.9852 136.701 39.1751C137.275 39.365 137.849 39.5549 138.423 39.808C138.996 39.9979 139.714 40.2511 139.857 40.5043C140.718 41.3904 141.435 42.2764 142.296 43.2258C141.865 43.0992 141.722 43.0359 141.148 42.8461C141.578 43.2891 141.722 43.7955 142.152 43.922C144.017 44.2385 143.013 44.9347 143.443 45.4411C144.017 46.074 144.304 46.9601 145.308 47.2765C147.747 48.0993 148.177 49.2386 148.32 50.4412C148.464 51.264 148.32 52.1501 148.32 52.9729C148.464 54.1121 148.607 55.2514 148.751 56.3906C148.894 57.7831 148.894 59.1122 149.181 60.5047C149.181 60.7578 149.755 61.0743 150.185 61.3275C150.472 61.5806 150.902 61.7705 151.046 62.0237C151.476 64.049 152.05 66.0744 152.337 68.0997C152.767 70.4416 152.337 72.7834 153.771 75.0619C154.058 75.5049 154.488 76.0746 155.349 76.3277C159.365 77.5936 161.661 79.3658 164.242 81.0747C165.82 82.1506 167.111 83.3532 169.837 84.1127C172.993 84.9988 178.443 84.5558 179.304 82.4671C179.447 82.1506 179.878 81.8342 180.165 81.5177C180.452 81.138 180.595 80.7582 180.595 80.3785C180.595 79.4924 180.308 78.6696 180.308 77.7835C180.595 72.277 180.738 66.7706 181.025 61.2642C181.025 59.9983 181.169 58.7325 181.312 57.4666C181.312 57.2767 181.599 57.0236 181.886 56.8337C182.89 56.2641 184.038 55.6944 184.898 55.0615C185.472 54.6818 185.902 54.4286 187.05 54.4919C188.484 54.5552 190.636 54.9982 191.927 55.1881C194.222 55.4413 194.796 56.2641 195.943 57.0236C196.517 57.4033 197.521 57.7831 198.382 58.0362C201.825 59.0489 204.693 60.2515 205.267 62.1502C205.554 63.2895 205.841 64.4288 208.71 64.9351C208.71 64.9351 208.853 64.9351 208.853 64.9984C209.284 66.2643 211.722 66.8339 213.3 67.72C213.73 67.9732 213.73 68.4795 214.161 68.7327C214.878 69.239 215.739 69.6188 216.599 70.0618C216.886 70.1884 217.316 70.1884 217.603 70.315C219.038 70.9479 220.472 71.3276 222.48 70.9479C225.206 70.4416 227.644 69.7453 228.075 68.2896C228.362 67.2136 228.792 66.201 229.222 65.125C229.222 64.9351 229.509 64.8085 229.653 64.6819C230.226 64.3655 234.96 64.049 235.677 64.3022C237.829 64.9351 240.124 64.7452 242.419 64.6819C242.849 64.6819 243.423 64.5554 243.71 64.3655C245.718 63.1629 247.296 61.9604 247.153 60.3781C247.009 59.2388 247.296 58.1628 247.44 57.0236C247.87 55.0615 248.3 53.0361 248.731 51.0741C249.017 49.8715 249.161 48.669 249.448 47.5297C249.448 47.3398 249.735 47.15 250.165 47.0234C252.747 46.2006 255.472 45.6309 258.485 45.3145C261.21 45.0613 263.649 44.4917 265.513 43.479C265.8 43.2891 266.518 43.1625 267.235 43.0992C267.952 43.0359 268.669 42.9727 269.386 42.9094C269.673 42.9094 270.247 42.7828 270.39 42.8461C271.681 43.6056 273.546 42.9727 275.124 43.2258C276.845 43.479 278.71 43.5423 280.431 43.8587C282.296 44.1752 283.874 44.6816 285.739 44.998C289.182 45.5676 291.764 46.5803 294.059 47.8462C294.489 48.0993 295.636 48.1626 296.497 48.2892C298.792 48.7956 301.231 49.2386 303.526 49.7449C304.53 49.9981 305.391 50.3146 306.538 50.4412C308.69 50.7576 309.407 51.3905 309.55 52.2766C309.694 53.1627 310.985 53.859 312.419 54.4286C314.428 55.3147 316.292 56.2008 318.444 57.0869C319.448 57.4666 319.591 57.9097 319.591 58.416C319.591 59.1122 320.309 59.6186 320.882 60.1882C321.743 61.1376 322.46 62.1502 322.46 63.0996C322.46 67.1503 322.317 71.1378 322.173 75.1885C322.173 75.5682 322.317 76.1379 322.891 76.391C323.895 76.7708 325.186 76.5176 326.333 76.2012C326.477 76.1379 326.764 76.1379 326.764 76.1379C328.198 76.5176 329.489 76.8974 330.637 77.2771C330.923 77.3404 331.21 77.5303 331.354 77.6569C331.641 78.1632 331.928 78.7329 332.071 79.3025C332.358 80.2519 333.075 80.6316 335.37 80.5683C339.674 80.5683 343.977 80.5683 348.28 80.3785C360.76 79.9354 373.239 79.6822 385.719 80.1253C390.596 80.3152 395.616 80.2519 400.493 80.2519C408.383 80.3152 416.416 80.2519 424.305 80.3152C435.924 80.4417 446.969 79.3658 457.584 77.3404C460.596 76.7708 463.608 76.1379 466.764 75.6315C469.059 75.2518 471.354 74.9353 473.793 74.872C477.953 74.7454 481.539 73.9226 484.982 73.0998C487.133 72.5935 488.854 71.5808 490.289 70.6314C494.018 68.2896 497.748 65.8845 500.76 63.4161C504.059 60.6312 509.08 58.3527 512.953 55.6944C513.67 55.1881 515.105 54.8716 516.109 54.4919C518.547 53.6058 521.129 52.7197 523.568 51.7703C527.297 50.4412 529.449 48.669 531.17 46.7069C532.174 45.6309 533.465 44.6183 535.043 43.7322C539.346 41.3903 540.638 38.6055 541.211 35.7573C542.646 28.6053 543.793 21.39 545.084 14.2379C545.371 12.3391 545.945 10.4404 546.519 8.60489C546.662 8.16185 547.236 7.7188 547.953 7.40234C551.109 5.82003 553.834 4.17443 555.269 2.14907C555.556 1.70602 556.273 1.45285 557.42 1.51615C558.855 1.57944 560.289 1.51615 561.58 1.64273C565.883 1.95919 570.043 1.70602 574.203 1.32627C576.785 1.13639 579.224 0.946516 581.806 0.819931C586.396 0.630054 590.843 0.566761 595.433 0.946516C598.875 1.26298 601.314 1.95919 602.318 3.5415C602.892 4.4276 603.322 5.37698 604.039 6.26308C604.47 6.70612 605.187 7.08588 606.191 7.40234C607.482 7.84539 607.769 8.41502 608.199 9.04794C610.064 11.1999 609.49 13.5417 610.494 15.7569C610.494 15.8202 610.494 15.8835 610.494 15.8835C612.789 18.162 611.785 20.5039 611.068 22.8457C610.064 25.947 610.494 29.0483 611.498 32.0864C611.642 32.4661 611.498 32.8459 611.498 33.2256C611.642 35.251 611.355 37.2763 612.072 39.3017C612.789 41.1372 615.228 42.7828 618.384 43.9853C622.113 45.3778 625.412 46.9601 629.142 48.4158C633.158 49.9348 637.892 51.1374 642.482 52.4032C649.511 54.3653 656.54 56.2641 663.568 58.2261C664.429 58.4793 665.29 58.859 666.007 59.1755C669.306 60.7578 673.323 61.7705 678.2 62.2768C679.491 62.4034 680.638 62.7199 681.786 63.0363C686.089 64.3655 690.105 65.8212 694.409 67.0871C698.855 68.4162 704.593 67.9732 708.036 66.201C708.466 65.9478 709.327 65.8212 710.187 65.6946C712.052 65.5047 714.06 65.3149 715.925 65.125C716.642 65.0617 717.646 64.9984 718.364 65.125C723.097 66.0111 727.544 65.568 730.843 63.7959C732.421 62.9098 733.569 61.8338 735.29 60.9477C737.011 60.0616 738.876 59.2388 740.884 58.4793C741.458 58.2894 742.462 58.2894 743.323 58.2894C745.761 58.2261 748.056 58.2894 750.352 58.1628C751.643 58.0995 752.503 58.2894 753.507 58.6059C758.958 60.5046 764.122 62.5933 770.864 63.606C772.155 63.7959 773.589 63.9224 774.88 64.1123C778.61 64.4921 782.196 64.9984 785.925 65.2516C791.52 65.6946 796.684 65.3149 801.704 64.049C802.278 63.8591 803.282 63.7959 803.999 63.8591C814.614 64.3655 823.364 62.5933 830.68 59.3021C831.54 58.859 832.831 58.5426 833.979 58.2894C840.721 56.9603 845.167 54.745 847.319 51.707C847.749 51.1374 848.18 51.0108 849.614 51.0108C851.909 51.0741 853.344 51.3905 854.778 52.2133C856.069 52.9729 858.221 53.4159 860.229 53.9222C861.52 54.2387 862.381 54.4919 863.098 55.0615C863.815 55.7577 864.819 56.4539 865.967 57.0869C868.549 58.5426 872.135 59.1755 876.151 58.6692C880.168 58.1628 882.463 56.897 883.323 55.1248C883.61 54.5552 883.754 53.9222 884.184 53.3526C884.327 53.0994 885.188 52.8463 885.762 52.783C888.487 52.4032 891.5 52.2766 893.938 51.707C899.819 50.3146 906.131 49.5551 912.299 48.669C915.455 48.2259 918.754 47.8462 921.192 46.7702C923.631 45.6942 924.635 44.4284 924.205 42.9727C924.061 42.5296 924.348 42.2764 925.065 41.96C928.508 40.6941 931.807 39.365 935.25 38.0991C936.254 37.7194 937.688 37.4662 938.979 37.3396C942.279 36.9599 945.434 36.7067 948.733 36.3903C949.594 36.327 950.311 36.2004 951.172 36.0738C952.893 35.8839 954.041 36.1371 955.619 36.6434C958.774 37.6561 961.07 38.7954 963.221 40.1878C965.803 41.8967 971.971 42.3397 976.275 41.5169C977.135 41.3271 977.996 41.1372 979 40.884C979 65.2516 979 245.761 979 270.002C652.667 270.002 326.333 270.002 0 270.002C0.286886 240.002 0.286886 53.6058 0.286886 23.4786Z" fill="url(#paint0_linear_2_750)"/>
<defs>
<linearGradient id="paint0_linear_2_750" x1="489.5" y1="0.668945" x2="489.5" y2="270.002" gradientUnits="userSpaceOnUse">
<stop stop-color="#FC6738" stop-opacity="0.33"/>
<stop offset="1" stop-color="white" stop-opacity="0"/>
</linearGradient>
</defs>
</svg>
