<svg width="27" height="60" viewBox="0 0 27 60" fill="none" xmlns="http://www.w3.org/2000/svg">
<path d="M26 19.5L26.4976 19.4512L26 19.5ZM10 58.5034L10.1155 58.0169L10 58.5034ZM3.80374 1.70868C7.64238 1.1238 12.5716 0.675532 16.7776 2.79113C20.9342 4.88184 24.5226 9.55612 25.5024 19.5488L26.4976 19.4512C25.4971 9.24703 21.7906 4.19327 17.227 1.89777C12.7128 -0.37284 7.49639 0.134508 3.65312 0.72009L3.80374 1.70868ZM25.5024 19.5488C26.7439 32.2107 24.3416 42.2389 20.8707 48.896C19.134 52.227 17.138 54.6986 15.2129 56.239C13.273 57.7911 11.4823 58.3415 10.1155 58.0169L9.88449 58.9899C11.6865 59.4178 13.7926 58.656 15.8376 57.0198C17.8972 55.3719 19.9739 52.7792 21.7575 49.3583C25.3272 42.5115 27.7561 32.2855 26.4976 19.4512L25.5024 19.5488ZM10.1155 58.0169C5.69383 56.967 3.57763 55.0359 2.48508 53.3611C1.93372 52.5158 1.63058 51.7169 1.4286 51.0876C1.37788 50.9296 1.33364 50.7827 1.29271 50.6461C1.25243 50.5117 1.21396 50.3826 1.17726 50.2697C1.14106 50.1584 1.10133 50.0462 1.05577 49.9478C1.01467 49.859 0.945613 49.7284 0.828324 49.6263L0.171676 50.3805C0.126405 50.3411 0.123756 50.3149 0.148297 50.3679C0.168381 50.4113 0.193526 50.4783 0.226282 50.579C0.258537 50.6782 0.29311 50.7941 0.334806 50.9332C0.375839 51.0701 0.4225 51.2252 0.476453 51.3932C0.693173 52.0684 1.02915 52.9594 1.64752 53.9074C2.89443 55.8189 5.24016 57.8871 9.88449 58.9899L10.1155 58.0169Z" fill="black"/>
</svg>
