<svg width="131" height="14" viewBox="0 0 131 14" fill="none" xmlns="http://www.w3.org/2000/svg">
<path d="M5.05185 0H16.9481C16.9481 6.17647 16.9481 10.2941 22 14H0C5.05185 10.2941 5.05185 6.17647 5.05185 0Z" fill="black"/>
<path d="M40.2912 0V2.22942H35.1577V13.641H32.1335V2.22942H27V0H40.2912Z" fill="black"/>
<path d="M45.2629 9.31444C44.1802 9.31444 43.3463 9.4404 42.7614 9.69231C42.189 9.93162 41.9027 10.3347 41.9027 10.9015C41.9027 11.0652 41.9338 11.2353 41.9961 11.4116C42.0707 11.5879 42.189 11.7517 42.3507 11.9028C42.525 12.054 42.749 12.1799 43.0228 12.2807C43.2966 12.3689 43.6388 12.413 44.0495 12.413C44.3979 12.413 44.7775 12.3626 45.1882 12.2618C45.5989 12.1484 45.9784 11.9721 46.3269 11.7328C46.6878 11.4809 46.9865 11.1597 47.2229 10.7692C47.4594 10.3662 47.5838 9.88124 47.5963 9.31444H45.2629ZM50.4337 11.8462C50.4337 12.161 50.44 12.457 50.4524 12.7341C50.4649 13.0112 50.4835 13.3135 50.5084 13.641H47.895C47.8701 13.4269 47.8514 13.2128 47.839 12.9987C47.8265 12.7719 47.8203 12.5515 47.8203 12.3374C47.2229 12.942 46.5571 13.3702 45.8229 13.6221C45.1011 13.874 44.2859 14 43.3775 14C42.5561 14 41.8592 13.9118 41.2867 13.7355C40.7267 13.5592 40.2724 13.3324 39.924 13.0553C39.588 12.7782 39.3391 12.4696 39.1773 12.1296C39.0279 11.7769 38.9533 11.4305 38.9533 11.0904C38.9533 10.3473 39.1151 9.74899 39.4386 9.29555C39.7746 8.84211 40.2289 8.48943 40.8014 8.23752C41.3738 7.98561 42.0458 7.82186 42.8174 7.74629C43.6015 7.65812 44.4415 7.61404 45.3375 7.61404H47.5963C47.5963 7.19838 47.5278 6.852 47.391 6.5749C47.2541 6.2978 47.0674 6.08367 46.8309 5.93252C46.5945 5.76878 46.3145 5.65542 45.9909 5.59244C45.6798 5.52947 45.35 5.49798 45.0015 5.49798C44.3046 5.49798 43.7632 5.63023 43.3775 5.89474C43.0041 6.14665 42.7863 6.45524 42.7241 6.82051H39.7746C39.8493 6.21593 40.0484 5.7184 40.372 5.32794C40.708 4.93747 41.1249 4.62888 41.6227 4.40216C42.1205 4.17544 42.6681 4.01799 43.2654 3.92983C43.8628 3.84166 44.4664 3.79757 45.0762 3.79757C45.7358 3.79757 46.3829 3.85425 47.0176 3.96761C47.6647 4.08097 48.2372 4.2888 48.735 4.59109C49.2452 4.89339 49.6559 5.30904 49.9671 5.83806C50.2782 6.36707 50.4337 7.04723 50.4337 7.87854V11.8462Z" fill="black"/>
<path d="M56.0939 8.89879C56.0939 9.35223 56.1624 9.78048 56.2992 10.1835C56.4486 10.574 56.6539 10.9204 56.9153 11.2227C57.1766 11.5124 57.4877 11.7454 57.8486 11.9217C58.222 12.0981 58.6327 12.1862 59.0807 12.1862C59.5287 12.1862 59.9332 12.0981 60.2941 11.9217C60.6674 11.7454 60.9848 11.5124 61.2461 11.2227C61.5075 10.9204 61.7066 10.574 61.8435 10.1835C61.9928 9.78048 62.0675 9.35223 62.0675 8.89879C62.0675 8.44534 61.9928 8.02339 61.8435 7.63293C61.7066 7.22987 61.5075 6.88349 61.2461 6.59379C60.9848 6.2915 60.6674 6.05218 60.2941 5.87584C59.9332 5.69951 59.5287 5.61134 59.0807 5.61134C58.6327 5.61134 58.222 5.69951 57.8486 5.87584C57.4877 6.05218 57.1766 6.2915 56.9153 6.59379C56.6539 6.88349 56.4486 7.22987 56.2992 7.63293C56.1624 8.02339 56.0939 8.44534 56.0939 8.89879ZM53.2565 0H56.0939V5.46019H56.1312C56.6042 4.81781 57.1828 4.38327 57.8673 4.15655C58.5518 3.91723 59.2487 3.79757 59.9581 3.79757C60.2692 3.79757 60.6052 3.82906 60.9661 3.89204C61.3395 3.94242 61.7128 4.04319 62.0862 4.19433C62.4595 4.34548 62.8204 4.54701 63.1689 4.79892C63.5298 5.05083 63.8409 5.36572 64.1022 5.74359C64.376 6.12146 64.5938 6.5812 64.7556 7.12281C64.9298 7.65182 65.0169 8.26901 65.0169 8.97436C65.0169 9.64193 64.9112 10.2843 64.6996 10.9015C64.488 11.5061 64.1645 12.0414 63.7289 12.5074C63.3058 12.9609 62.7706 13.3261 62.1235 13.6032C61.4763 13.8677 60.7172 14 59.8461 14C59.4727 14 59.0994 13.9685 58.726 13.9055C58.3651 13.8552 58.0167 13.767 57.6806 13.641C57.3446 13.5025 57.0335 13.3261 56.7473 13.112C56.461 12.8979 56.2184 12.6397 56.0192 12.3374H55.9819C55.9819 12.5515 55.9757 12.7719 55.9632 12.9987C55.9508 13.2128 55.9321 13.4269 55.9072 13.641H53.1818C53.2067 13.3765 53.2253 13.0364 53.2378 12.6208C53.2502 12.2051 53.2565 11.8021 53.2565 11.4116V0Z" fill="black"/>
<path d="M70.0051 0V13.641H67.1676V0H70.0051Z" fill="black"/>
<path d="M81.241 7.84076C81.2036 7.41251 81.0978 7.05353 80.9236 6.76383C80.7494 6.46154 80.5254 6.21593 80.2516 6.02699C79.9902 5.83806 79.6854 5.7058 79.3369 5.63023C79.0009 5.54206 78.64 5.49798 78.2542 5.49798C77.9057 5.49798 77.5635 5.54836 77.2275 5.64912C76.8915 5.73729 76.5866 5.87584 76.3128 6.06478C76.039 6.25371 75.8088 6.49933 75.6221 6.80162C75.4354 7.09132 75.3234 7.4377 75.2861 7.84076H81.241ZM75.2861 9.54116C75.2861 10.0324 75.3794 10.4543 75.5661 10.807C75.7527 11.1597 75.9954 11.4494 76.2941 11.6761C76.6052 11.8902 76.9537 12.0477 77.3395 12.1484C77.7253 12.2492 78.1173 12.2996 78.5155 12.2996C78.7271 12.2996 78.9573 12.2807 79.2062 12.2429C79.4551 12.2051 79.6916 12.1422 79.9156 12.054C80.1396 11.9532 80.3387 11.8273 80.5129 11.6761C80.6996 11.5124 80.8303 11.3171 80.905 11.0904H83.9291C83.8544 11.6824 83.618 12.1673 83.2197 12.5452C82.8215 12.9231 82.3486 13.2191 81.801 13.4332C81.2534 13.6473 80.6747 13.7922 80.0649 13.8677C79.4676 13.9559 78.9262 14 78.4409 14C77.2461 14 76.2568 13.8552 75.4727 13.5655C74.6887 13.2758 74.0602 12.8979 73.5873 12.4319C73.1269 11.9532 72.8033 11.4116 72.6166 10.807C72.4299 10.1898 72.3366 9.55376 72.3366 8.89879C72.3366 8.24382 72.4299 7.61404 72.6166 7.00945C72.8033 6.39226 73.1269 5.85065 73.5873 5.38462C74.0602 4.90598 74.6887 4.52182 75.4727 4.23212C76.2568 3.94242 77.2461 3.79757 78.4409 3.79757C79.1129 3.79757 79.7911 3.88574 80.4756 4.06208C81.1601 4.22582 81.7761 4.50922 82.3237 4.91228C82.8837 5.30274 83.3317 5.83176 83.6677 6.49933C84.0162 7.1543 84.1904 7.97301 84.1904 8.95547V9.54116H75.2861Z" fill="black"/>
<path d="M89.3652 0V13.641H86.5278V0H89.3652Z" fill="black"/>
<path d="M97.8197 9.31444C96.737 9.31444 95.9032 9.4404 95.3182 9.69231C94.7458 9.93162 94.4595 10.3347 94.4595 10.9015C94.4595 11.0652 94.4907 11.2353 94.5529 11.4116C94.6275 11.5879 94.7458 11.7517 94.9076 11.9028C95.0818 12.054 95.3058 12.1799 95.5796 12.2807C95.8534 12.3689 96.1956 12.413 96.6063 12.413C96.9548 12.413 97.3343 12.3626 97.745 12.2618C98.1557 12.1484 98.5353 11.9721 98.8837 11.7328C99.2446 11.4809 99.5433 11.1597 99.7798 10.7692C100.016 10.3662 100.141 9.88124 100.153 9.31444H97.8197ZM102.991 11.8462C102.991 12.161 102.997 12.457 103.009 12.7341C103.022 13.0112 103.04 13.3135 103.065 13.641H100.452C100.427 13.4269 100.408 13.2128 100.396 12.9987C100.383 12.7719 100.377 12.5515 100.377 12.3374C99.7798 12.942 99.114 13.3702 98.3797 13.6221C97.6579 13.874 96.8428 14 95.9343 14C95.1129 14 94.416 13.9118 93.8435 13.7355C93.2835 13.5592 92.8293 13.3324 92.4808 13.0553C92.1448 12.7782 91.8959 12.4696 91.7341 12.1296C91.5848 11.7769 91.5101 11.4305 91.5101 11.0904C91.5101 10.3473 91.6719 9.74899 91.9954 9.29555C92.3315 8.84211 92.7857 8.48943 93.3582 8.23752C93.9306 7.98561 94.6027 7.82186 95.3742 7.74629C96.1583 7.65812 96.9983 7.61404 97.8943 7.61404H100.153C100.153 7.19838 100.085 6.852 99.9478 6.5749C99.8109 6.2978 99.6242 6.08367 99.3877 5.93252C99.1513 5.76878 98.8713 5.65542 98.5477 5.59244C98.2366 5.52947 97.9068 5.49798 97.5583 5.49798C96.8614 5.49798 96.3201 5.63023 95.9343 5.89474C95.5609 6.14665 95.3431 6.45524 95.2809 6.82051H92.3315C92.4061 6.21593 92.6052 5.7184 92.9288 5.32794C93.2648 4.93747 93.6817 4.62888 94.1795 4.40216C94.6773 4.17544 95.2249 4.01799 95.8223 3.92983C96.4196 3.84166 97.0232 3.79757 97.633 3.79757C98.2926 3.79757 98.9397 3.85425 99.5744 3.96761C100.222 4.08097 100.794 4.2888 101.292 4.59109C101.802 4.89339 102.213 5.30904 102.524 5.83806C102.835 6.36707 102.991 7.04723 102.991 7.87854V11.8462Z" fill="black"/>
<path d="M105.944 6.40486C105.944 5.98921 105.938 5.58615 105.925 5.19568C105.913 4.80522 105.894 4.45884 105.869 4.15655H108.595C108.62 4.42105 108.638 4.68556 108.651 4.95007C108.663 5.20198 108.669 5.46019 108.669 5.7247H108.707C109.18 5.04454 109.74 4.55331 110.387 4.25101C111.046 3.94872 111.806 3.79757 112.664 3.79757C113.087 3.79757 113.548 3.86055 114.046 3.98651C114.543 4.11246 115.004 4.33288 115.427 4.64777C115.863 4.95007 116.223 5.35943 116.51 5.87584C116.808 6.39226 116.958 7.03464 116.958 7.80297V13.641H114.12V8.61539C114.12 8.03599 114.058 7.55736 113.934 7.17949C113.809 6.80162 113.635 6.50562 113.411 6.2915C113.199 6.07737 112.944 5.93252 112.646 5.85695C112.347 5.76878 112.03 5.7247 111.694 5.7247C111.32 5.7247 110.959 5.79397 110.611 5.93252C110.262 6.05848 109.951 6.26001 109.677 6.53711C109.416 6.81422 109.198 7.16059 109.024 7.57625C108.862 7.9919 108.781 8.48943 108.781 9.06883V13.641H105.944V6.40486Z" fill="black"/>
<path d="M128.088 8.89879C128.088 8.44534 128.013 8.02339 127.864 7.63293C127.727 7.22987 127.528 6.88349 127.267 6.59379C127.005 6.2915 126.688 6.05218 126.314 5.87584C125.954 5.69951 125.549 5.61134 125.101 5.61134C124.653 5.61134 124.242 5.69951 123.869 5.87584C123.508 6.05218 123.197 6.2915 122.936 6.59379C122.674 6.88349 122.469 7.22987 122.32 7.63293C122.183 8.02339 122.114 8.44534 122.114 8.89879C122.114 9.35223 122.183 9.78048 122.32 10.1835C122.469 10.574 122.674 10.9204 122.936 11.2227C123.197 11.5124 123.508 11.7454 123.869 11.9217C124.242 12.0981 124.653 12.1862 125.101 12.1862C125.549 12.1862 125.954 12.0981 126.314 11.9217C126.688 11.7454 127.005 11.5124 127.267 11.2227C127.528 10.9204 127.727 10.574 127.864 10.1835C128.013 9.78048 128.088 9.35223 128.088 8.89879ZM130.925 11.4116C130.925 11.8021 130.932 12.2051 130.944 12.6208C130.956 13.0364 130.975 13.3765 131 13.641H128.275C128.25 13.4269 128.231 13.2128 128.219 12.9987C128.206 12.7719 128.2 12.5515 128.2 12.3374H128.163C127.963 12.6397 127.721 12.8979 127.435 13.112C127.148 13.3261 126.837 13.5025 126.501 13.641C126.165 13.767 125.81 13.8552 125.437 13.9055C125.076 13.9685 124.709 14 124.336 14C123.465 14 122.705 13.8677 122.058 13.6032C121.411 13.3261 120.87 12.9609 120.434 12.5074C120.011 12.0414 119.694 11.5061 119.482 10.9015C119.271 10.2843 119.165 9.64193 119.165 8.97436C119.165 8.26901 119.246 7.65182 119.408 7.12281C119.582 6.5812 119.8 6.12146 120.061 5.74359C120.335 5.36572 120.646 5.05083 120.994 4.79892C121.355 4.54701 121.722 4.34548 122.096 4.19433C122.469 4.04319 122.836 3.94242 123.197 3.89204C123.57 3.82906 123.913 3.79757 124.224 3.79757C124.933 3.79757 125.63 3.91723 126.314 4.15655C126.999 4.38327 127.578 4.81781 128.051 5.46019H128.088V0H130.925V11.4116Z" fill="black"/>
</svg>
