<svg width="168" height="18" viewBox="0 0 168 18" fill="none" xmlns="http://www.w3.org/2000/svg">
<path d="M6.92963 0H22.0704C22.0704 7.94118 22.0704 13.2353 28.5 18H0.5C6.92963 13.2353 6.92963 7.94118 6.92963 0Z" fill="#75FBFF"/>
<path d="M50.588 0.108398V2.9404H43.988V17.4364H40.1V2.9404H33.5V0.108398H50.588Z" fill="#75FBFF"/>
<path d="M56.9799 11.9404C55.5879 11.9404 54.5159 12.1004 53.7639 12.4204C53.0279 12.7244 52.6599 13.2364 52.6599 13.9564C52.6599 14.1644 52.6999 14.3804 52.7799 14.6044C52.8759 14.8284 53.0279 15.0364 53.2359 15.2284C53.4599 15.4204 53.7479 15.5804 54.0999 15.7084C54.4519 15.8204 54.8919 15.8764 55.4199 15.8764C55.8679 15.8764 56.3559 15.8124 56.8839 15.6844C57.4119 15.5404 57.8999 15.3164 58.3479 15.0124C58.8119 14.6924 59.1959 14.2844 59.4999 13.7884C59.8039 13.2764 59.9639 12.6604 59.9799 11.9404H56.9799ZM63.6279 15.1564C63.6279 15.5564 63.6359 15.9324 63.6519 16.2844C63.6679 16.6364 63.6919 17.0204 63.7239 17.4364H60.3639C60.3319 17.1644 60.3079 16.8924 60.2919 16.6204C60.2759 16.3324 60.2679 16.0524 60.2679 15.7804C59.4999 16.5484 58.6439 17.0924 57.6999 17.4124C56.7719 17.7324 55.7239 17.8924 54.5559 17.8924C53.4999 17.8924 52.6039 17.7804 51.8679 17.5564C51.1479 17.3324 50.5639 17.0444 50.1159 16.6924C49.6839 16.3404 49.3639 15.9484 49.1559 15.5164C48.9639 15.0684 48.8679 14.6284 48.8679 14.1964C48.8679 13.2524 49.0759 12.4924 49.4919 11.9164C49.9239 11.3404 50.5079 10.8924 51.2439 10.5724C51.9799 10.2524 52.8439 10.0444 53.8359 9.9484C54.8439 9.8364 55.9239 9.7804 57.0759 9.7804H59.9799C59.9799 9.2524 59.8919 8.8124 59.7159 8.4604C59.5399 8.1084 59.2999 7.8364 58.9959 7.6444C58.6919 7.4364 58.3319 7.2924 57.9159 7.2124C57.5159 7.1324 57.0919 7.0924 56.6439 7.0924C55.7479 7.0924 55.0519 7.2604 54.5559 7.5964C54.0759 7.9164 53.7959 8.3084 53.7159 8.7724H49.9239C50.0199 8.0044 50.2759 7.3724 50.6919 6.8764C51.1239 6.3804 51.6599 5.9884 52.2999 5.7004C52.9399 5.4124 53.6439 5.2124 54.4119 5.1004C55.1799 4.9884 55.9559 4.9324 56.7399 4.9324C57.5879 4.9324 58.4199 5.0044 59.2359 5.1484C60.0679 5.2924 60.8039 5.5564 61.4439 5.9404C62.0999 6.3244 62.6279 6.8524 63.0279 7.5244C63.4279 8.1964 63.6279 9.0604 63.6279 10.1164V15.1564Z" fill="#75FBFF"/>
<path d="M70.9049 11.4124C70.9049 11.9884 70.9929 12.5324 71.1689 13.0444C71.3609 13.5404 71.6249 13.9804 71.9609 14.3644C72.2969 14.7324 72.6969 15.0284 73.1609 15.2524C73.6409 15.4764 74.1689 15.5884 74.7449 15.5884C75.3209 15.5884 75.8409 15.4764 76.3049 15.2524C76.7849 15.0284 77.1929 14.7324 77.5289 14.3644C77.8649 13.9804 78.1209 13.5404 78.2969 13.0444C78.4889 12.5324 78.5849 11.9884 78.5849 11.4124C78.5849 10.8364 78.4889 10.3004 78.2969 9.8044C78.1209 9.2924 77.8649 8.8524 77.5289 8.4844C77.1929 8.1004 76.7849 7.7964 76.3049 7.5724C75.8409 7.3484 75.3209 7.2364 74.7449 7.2364C74.1689 7.2364 73.6409 7.3484 73.1609 7.5724C72.6969 7.7964 72.2969 8.1004 71.9609 8.4844C71.6249 8.8524 71.3609 9.2924 71.1689 9.8044C70.9929 10.3004 70.9049 10.8364 70.9049 11.4124ZM67.2569 0.108398H70.9049V7.0444H70.9529C71.5609 6.2284 72.3049 5.6764 73.1849 5.3884C74.0649 5.0844 74.9609 4.9324 75.8729 4.9324C76.2729 4.9324 76.7049 4.9724 77.1689 5.0524C77.6489 5.1164 78.1289 5.2444 78.6089 5.4364C79.0889 5.6284 79.5529 5.8844 80.0009 6.2044C80.4649 6.5244 80.8649 6.9244 81.2009 7.4044C81.5529 7.8844 81.8329 8.4684 82.0409 9.1564C82.2649 9.8284 82.3769 10.6124 82.3769 11.5084C82.3769 12.3564 82.2409 13.1724 81.9689 13.9564C81.6969 14.7244 81.2809 15.4044 80.7209 15.9964C80.1769 16.5724 79.4889 17.0364 78.6569 17.3884C77.8249 17.7244 76.8489 17.8924 75.7289 17.8924C75.2489 17.8924 74.7689 17.8524 74.2889 17.7724C73.8249 17.7084 73.3769 17.5964 72.9449 17.4364C72.5129 17.2604 72.1129 17.0364 71.7449 16.7644C71.3769 16.4924 71.0649 16.1644 70.8089 15.7804H70.7609C70.7609 16.0524 70.7529 16.3324 70.7369 16.6204C70.7209 16.8924 70.6969 17.1644 70.6649 17.4364H67.1609C67.1929 17.1004 67.2169 16.6684 67.2329 16.1404C67.2489 15.6124 67.2569 15.1004 67.2569 14.6044V0.108398Z" fill="#75FBFF"/>
<path d="M88.79 0.108398V17.4364H85.142V0.108398H88.79Z" fill="#75FBFF"/>
<path d="M103.236 10.0684C103.188 9.5244 103.052 9.0684 102.828 8.7004C102.604 8.3164 102.316 8.0044 101.964 7.7644C101.628 7.5244 101.236 7.3564 100.788 7.2604C100.356 7.1484 99.8916 7.0924 99.3956 7.0924C98.9476 7.0924 98.5076 7.1564 98.0756 7.2844C97.6436 7.3964 97.2516 7.5724 96.8996 7.8124C96.5476 8.0524 96.2516 8.3644 96.0116 8.7484C95.7716 9.1164 95.6276 9.5564 95.5796 10.0684H103.236ZM95.5796 12.2284C95.5796 12.8524 95.6996 13.3884 95.9396 13.8364C96.1796 14.2844 96.4916 14.6524 96.8756 14.9404C97.2756 15.2124 97.7236 15.4124 98.2196 15.5404C98.7156 15.6684 99.2196 15.7324 99.7316 15.7324C100.004 15.7324 100.3 15.7084 100.62 15.6604C100.94 15.6124 101.244 15.5324 101.532 15.4204C101.82 15.2924 102.076 15.1324 102.3 14.9404C102.54 14.7324 102.708 14.4844 102.804 14.1964H106.692C106.596 14.9484 106.292 15.5644 105.78 16.0444C105.268 16.5244 104.66 16.9004 103.956 17.1724C103.252 17.4444 102.508 17.6284 101.724 17.7244C100.956 17.8364 100.26 17.8924 99.6356 17.8924C98.0996 17.8924 96.8276 17.7084 95.8196 17.3404C94.8116 16.9724 94.0036 16.4924 93.3956 15.9004C92.8036 15.2924 92.3876 14.6044 92.1476 13.8364C91.9076 13.0524 91.7876 12.2444 91.7876 11.4124C91.7876 10.5804 91.9076 9.7804 92.1476 9.0124C92.3876 8.2284 92.8036 7.5404 93.3956 6.9484C94.0036 6.3404 94.8116 5.8524 95.8196 5.4844C96.8276 5.1164 98.0996 4.9324 99.6356 4.9324C100.5 4.9324 101.372 5.0444 102.252 5.2684C103.132 5.4764 103.924 5.8364 104.628 6.3484C105.348 6.8444 105.924 7.5164 106.356 8.3644C106.804 9.1964 107.028 10.2364 107.028 11.4844V12.2284H95.5796Z" fill="#75FBFF"/>
<path d="M113.681 0.108398V17.4364H110.033V0.108398H113.681Z" fill="#75FBFF"/>
<path d="M124.55 11.9404C123.158 11.9404 122.086 12.1004 121.334 12.4204C120.598 12.7244 120.23 13.2364 120.23 13.9564C120.23 14.1644 120.27 14.3804 120.35 14.6044C120.446 14.8284 120.598 15.0364 120.806 15.2284C121.03 15.4204 121.318 15.5804 121.67 15.7084C122.022 15.8204 122.462 15.8764 122.99 15.8764C123.438 15.8764 123.926 15.8124 124.454 15.6844C124.982 15.5404 125.47 15.3164 125.918 15.0124C126.382 14.6924 126.766 14.2844 127.07 13.7884C127.374 13.2764 127.534 12.6604 127.55 11.9404H124.55ZM131.198 15.1564C131.198 15.5564 131.206 15.9324 131.222 16.2844C131.238 16.6364 131.262 17.0204 131.294 17.4364H127.934C127.902 17.1644 127.878 16.8924 127.862 16.6204C127.846 16.3324 127.838 16.0524 127.838 15.7804C127.07 16.5484 126.214 17.0924 125.27 17.4124C124.342 17.7324 123.294 17.8924 122.126 17.8924C121.07 17.8924 120.174 17.7804 119.438 17.5564C118.718 17.3324 118.134 17.0444 117.686 16.6924C117.254 16.3404 116.934 15.9484 116.726 15.5164C116.534 15.0684 116.438 14.6284 116.438 14.1964C116.438 13.2524 116.646 12.4924 117.062 11.9164C117.494 11.3404 118.078 10.8924 118.814 10.5724C119.55 10.2524 120.414 10.0444 121.406 9.9484C122.414 9.8364 123.494 9.7804 124.646 9.7804H127.55C127.55 9.2524 127.462 8.8124 127.286 8.4604C127.11 8.1084 126.87 7.8364 126.566 7.6444C126.262 7.4364 125.902 7.2924 125.486 7.2124C125.086 7.1324 124.662 7.0924 124.214 7.0924C123.318 7.0924 122.622 7.2604 122.126 7.5964C121.646 7.9164 121.366 8.3084 121.286 8.7724H117.494C117.59 8.0044 117.846 7.3724 118.262 6.8764C118.694 6.3804 119.23 5.9884 119.87 5.7004C120.51 5.4124 121.214 5.2124 121.982 5.1004C122.75 4.9884 123.526 4.9324 124.31 4.9324C125.158 4.9324 125.99 5.0044 126.806 5.1484C127.638 5.2924 128.374 5.5564 129.014 5.9404C129.67 6.3244 130.198 6.8524 130.598 7.5244C130.998 8.1964 131.198 9.0604 131.198 10.1164V15.1564Z" fill="#75FBFF"/>
<path d="M134.995 8.2444C134.995 7.7164 134.987 7.2044 134.971 6.7084C134.955 6.2124 134.931 5.7724 134.899 5.3884H138.403C138.435 5.7244 138.459 6.0604 138.475 6.3964C138.491 6.7164 138.499 7.0444 138.499 7.3804H138.547C139.155 6.5164 139.875 5.8924 140.707 5.5084C141.555 5.1244 142.531 4.9324 143.635 4.9324C144.179 4.9324 144.771 5.0124 145.411 5.1724C146.051 5.3324 146.643 5.6124 147.187 6.0124C147.747 6.3964 148.211 6.9164 148.579 7.5724C148.963 8.2284 149.155 9.0444 149.155 10.0204V17.4364H145.507V11.0524C145.507 10.3164 145.427 9.7084 145.267 9.2284C145.107 8.7484 144.883 8.3724 144.595 8.1004C144.323 7.8284 143.995 7.6444 143.611 7.5484C143.227 7.4364 142.819 7.3804 142.387 7.3804C141.907 7.3804 141.443 7.4684 140.995 7.6444C140.547 7.8044 140.147 8.0604 139.795 8.4124C139.459 8.7644 139.179 9.2044 138.955 9.7324C138.747 10.2604 138.643 10.8924 138.643 11.6284V17.4364H134.995V8.2444Z" fill="#75FBFF"/>
<path d="M163.465 11.4124C163.465 10.8364 163.369 10.3004 163.177 9.8044C163.001 9.2924 162.745 8.8524 162.409 8.4844C162.073 8.1004 161.665 7.7964 161.185 7.5724C160.721 7.3484 160.201 7.2364 159.625 7.2364C159.049 7.2364 158.521 7.3484 158.041 7.5724C157.577 7.7964 157.177 8.1004 156.841 8.4844C156.505 8.8524 156.241 9.2924 156.049 9.8044C155.873 10.3004 155.785 10.8364 155.785 11.4124C155.785 11.9884 155.873 12.5324 156.049 13.0444C156.241 13.5404 156.505 13.9804 156.841 14.3644C157.177 14.7324 157.577 15.0284 158.041 15.2524C158.521 15.4764 159.049 15.5884 159.625 15.5884C160.201 15.5884 160.721 15.4764 161.185 15.2524C161.665 15.0284 162.073 14.7324 162.409 14.3644C162.745 13.9804 163.001 13.5404 163.177 13.0444C163.369 12.5324 163.465 11.9884 163.465 11.4124ZM167.113 14.6044C167.113 15.1004 167.121 15.6124 167.137 16.1404C167.153 16.6684 167.177 17.1004 167.209 17.4364H163.705C163.673 17.1644 163.649 16.8924 163.633 16.6204C163.617 16.3324 163.609 16.0524 163.609 15.7804H163.561C163.305 16.1644 162.993 16.4924 162.625 16.7644C162.257 17.0364 161.857 17.2604 161.425 17.4364C160.993 17.5964 160.537 17.7084 160.057 17.7724C159.593 17.8524 159.121 17.8924 158.641 17.8924C157.521 17.8924 156.545 17.7244 155.713 17.3884C154.881 17.0364 154.185 16.5724 153.625 15.9964C153.081 15.4044 152.673 14.7244 152.401 13.9564C152.129 13.1724 151.993 12.3564 151.993 11.5084C151.993 10.6124 152.097 9.8284 152.305 9.1564C152.529 8.4684 152.809 7.8844 153.145 7.4044C153.497 6.9244 153.897 6.5244 154.345 6.2044C154.809 5.8844 155.281 5.6284 155.761 5.4364C156.241 5.2444 156.713 5.1164 157.177 5.0524C157.657 4.9724 158.097 4.9324 158.497 4.9324C159.409 4.9324 160.305 5.0844 161.185 5.3884C162.065 5.6764 162.809 6.2284 163.417 7.0444H163.465V0.108398H167.113V14.6044Z" fill="#75FBFF"/>
</svg>
