<svg width="16" height="19" viewBox="0 0 16 19" fill="none" xmlns="http://www.w3.org/2000/svg">
<path d="M7.57812 8.99243C7.79785 8.99243 7.96484 8.92212 8.09668 8.79028L11.5156 5.34497C11.6738 5.18677 11.7441 5.01099 11.7441 4.80884C11.7441 4.61548 11.665 4.42212 11.5156 4.27271L8.09668 0.801025C7.96484 0.6604 7.79785 0.581299 7.57812 0.581299C7.18262 0.581299 6.875 0.906494 6.875 1.31958C6.875 1.50415 6.94531 1.67993 7.06836 1.82935L9.21289 3.92114C8.76465 3.84204 8.30762 3.80688 7.85938 3.80688C3.76367 3.80688 0.485352 7.07642 0.485352 11.1721C0.485352 15.2678 3.77246 18.5637 7.86816 18.5637C11.9551 18.5637 15.2422 15.2678 15.2422 11.1721C15.2422 10.7415 14.9346 10.425 14.4951 10.425C14.0732 10.425 13.792 10.7415 13.792 11.1721C13.792 14.468 11.1553 17.1135 7.86816 17.1135C4.57227 17.1135 1.93555 14.468 1.93555 11.1721C1.93555 7.86743 4.56348 5.2395 7.85938 5.2395C8.46582 5.2395 9.01074 5.28345 9.49414 5.38013L7.07715 7.77954C6.94531 7.92017 6.875 8.08716 6.875 8.27173C6.875 8.68481 7.18262 8.99243 7.57812 8.99243Z" fill="black"/>
</svg>
