<svg width="21" height="34" viewBox="0 0 21 34" fill="none" xmlns="http://www.w3.org/2000/svg">
<path d="M19 7.5L19.4985 7.46165L19 7.5ZM14.5 31.5L14.2629 31.0598L14.5 31.5ZM6.47918 0.999567C8.43992 1.08126 11.4024 1.52407 13.9067 2.57364C16.4341 3.63286 18.3239 5.23038 18.5015 7.53835L19.4985 7.46165C19.2761 4.56962 16.9159 2.75048 14.2933 1.65136C11.6476 0.542599 8.56008 0.0854027 6.52082 0.000433475L6.47918 0.999567ZM18.5015 7.53835C18.7528 10.8053 19.2477 15.8839 18.8766 20.5856C18.6911 22.935 18.291 25.1604 17.5516 27.0011C16.813 28.8402 15.7515 30.2582 14.2629 31.0598L14.7371 31.9402C16.4985 30.9918 17.687 29.3473 18.4796 27.3739C19.2715 25.4021 19.6839 23.065 19.8734 20.6644C20.2523 15.8661 19.7472 10.6947 19.4985 7.46165L18.5015 7.53835ZM14.2629 31.0598C11.7732 32.4004 9.00246 32.6882 6.5276 32.4891C4.05121 32.2899 1.9091 31.6058 0.711443 31.0469L0.288557 31.9531C1.5909 32.5609 3.84879 33.2768 6.4474 33.4859C9.04754 33.6951 12.0268 33.3996 14.7371 31.9402L14.2629 31.0598Z" fill="black"/>
</svg>
