<svg width="295" height="369" viewBox="0 0 295 369" fill="none" xmlns="http://www.w3.org/2000/svg">
<path d="M2.00003 369L2.00002 298.218L2.43296e-05 298.218L3.05176e-05 369L2.00003 369ZM81 219.218L90.2338 219.218L90.2338 217.218L81 217.218L81 219.218ZM90.2338 219.218L214 219.218L214 217.218L90.2338 217.218L90.2338 219.218ZM295 138.218L295 -3.0605e-05L293 -3.04302e-05L293 138.218L295 138.218ZM214 219.218C258.735 219.218 295 182.953 295 138.218L293 138.218C293 181.848 257.63 217.218 214 217.218L214 219.218ZM2.00002 298.218C2.00002 254.587 37.3695 219.218 81 219.218L81 217.218C36.2649 217.218 2.04187e-05 253.483 2.43296e-05 298.218L2.00002 298.218Z" fill="black"/>
</svg>
