<svg width="475" height="414" viewBox="0 0 475 414" fill="none" xmlns="http://www.w3.org/2000/svg">
<path d="M0.410767 413.137C1.0954 413.137 1.78006 413.243 2.60162 413.243C52.58 413.243 102.695 413.243 152.674 413.243C225.382 413.243 297.953 413.243 370.662 413.243C371.757 413.243 372.989 413.03 374.085 413.03C374.906 413.03 375.728 413.243 376.413 413.243C397.499 413.243 418.449 413.243 439.536 413.243C440.221 413.243 441.042 413.03 441.727 413.03C442.274 413.03 442.959 413.243 443.507 413.243C444.876 413.243 446.382 413.243 447.752 413.243C456.104 413.243 464.457 413.243 472.809 413.243C473.494 413.243 474.042 413.243 474.863 413.243C475 400.885 475 122.29 475 110.145C475 97.8933 475 85.748 475 73.4963C475 61.351 475 49.0993 475 36.954C475 24.7023 475 12.4505 475 0.19873C473.905 0.305268 472.946 0.411805 471.851 0.518342C471.988 1.05103 473.083 1.47718 472.261 2.1164C471.166 1.79679 469.934 1.58371 468.701 1.15756C468.291 1.2641 467.743 1.47718 467.606 1.47718C466.921 2.32947 466.374 2.9687 465.826 3.50138C465.278 4.03407 465.141 4.56675 465.141 5.20598C465.004 5.95174 465.278 6.6975 464.73 7.44326C463.498 6.37788 462.266 6.37788 460.897 6.91057C459.801 7.33672 458.569 7.76287 457.747 8.61516C457.473 8.93478 456.652 8.93477 455.967 9.14785C456.104 9.36092 456.241 9.68054 456.378 10.1067C454.735 10.4263 453.366 11.3851 451.585 11.1721C450.764 11.0655 450.353 11.3851 450.216 12.0244C450.079 12.7701 450.079 12.7701 448.984 13.1963C448.847 12.9832 448.71 12.6636 448.573 12.4505C447.067 12.4505 447.341 13.8355 446.108 14.1551C445.287 14.3682 444.739 15.327 444.054 16.0728C443.37 16.712 442.822 17.4577 442.001 18.31C442.001 17.9904 441.864 17.6708 441.864 17.4577C440.768 17.5643 439.81 17.6708 438.714 17.7774C438.304 19.1623 437.893 20.6539 435.565 20.6539C433.511 20.6539 432.826 19.3754 432.416 17.8839C431.594 18.6297 431.183 19.2689 431.183 20.0146C429.677 20.2277 428.445 20.4408 427.076 20.4408C425.432 20.4408 423.789 20.3342 422.146 20.1212C421.051 20.0146 420.366 20.3342 419.681 20.8669C419.271 21.1865 418.723 21.6127 418.038 21.7192C416.943 22.0388 416.669 22.6781 416.669 23.4238C416.669 24.9153 416.669 26.4069 416.532 27.8984C416.532 28.3245 416.532 28.8572 416.395 29.2834C415.3 31.7337 415.574 34.2906 415.437 36.8475C415.3 39.4044 415.437 41.8547 415.574 44.4116C415.574 45.7966 414.615 46.7555 412.972 46.7555C410.918 46.7555 408.864 46.5424 406.947 46.4358C405.852 46.3293 404.893 46.2228 403.798 46.2228C400.649 46.1162 397.636 46.0097 394.487 45.2639C392.981 44.8378 391.338 44.7312 389.694 44.5182C388.325 44.4116 387.093 44.5182 385.997 45.2639C384.902 46.0097 383.533 46.5424 382.027 46.7555C381.479 46.862 380.931 47.1816 380.52 47.5012C379.014 48.8862 377.371 50.3777 376.002 51.8692C374.906 53.0411 373.674 53.8934 371.757 54C371.62 54 371.483 54 371.483 54.1065C369.292 55.0653 367.101 55.9176 364.911 56.8765C364.774 56.983 364.637 56.983 364.5 57.0896C363.404 58.5811 361.624 59.3268 359.707 59.8595C359.023 60.0726 358.338 60.4987 357.927 60.9249C356.284 62.4164 354.367 63.3752 351.903 63.9079C351.081 64.121 350.396 64.4406 349.712 64.9733C349.301 65.3995 348.479 65.7191 347.795 65.8256C345.878 66.1452 343.961 66.4648 341.907 66.6779C340.948 66.7844 339.99 66.6779 338.894 66.6779C338.758 68.3825 338.758 69.9806 338.21 71.4721C337.662 73.2832 337.662 74.9878 337.662 76.7989C337.662 77.8643 337.936 78.8231 337.936 79.8885C338.073 83.0846 338.21 86.3873 338.347 89.5834C338.347 90.0095 338.347 90.5422 338.21 90.9684C337.936 92.7795 337.936 92.7795 338.484 94.3776C338.758 95.0168 339.168 95.5495 338.347 96.0821C338.21 96.1887 338.347 96.6148 338.347 96.9344C338.894 98.639 337.936 99.9175 335.745 100.237C333.144 100.663 330.542 101.089 328.077 101.516C327.53 101.622 326.982 101.729 326.434 101.942C325.339 102.261 324.38 102.794 323.285 103.114C322.6 103.327 322.189 103.646 321.916 104.179C321.094 106.203 320.272 108.121 319.451 110.145C319.177 110.784 319.177 111.423 319.04 112.063C318.629 112.169 318.219 112.169 317.808 112.276C317.123 112.382 316.575 112.489 315.891 112.702C314.385 113.235 310.277 116.218 309.318 117.176C307.812 118.775 306.306 120.266 304.663 121.758C303.567 122.716 302.883 123.782 302.609 125.06C302.198 127.298 301.65 129.428 300.555 131.452C299.733 132.837 299.46 134.436 298.775 135.927C298.501 136.673 297.953 137.525 297.406 138.271C297.132 138.59 296.584 138.697 296.173 138.804C294.53 139.017 292.887 139.23 291.244 139.443C289.738 139.549 288.231 139.549 286.588 139.656C285.767 139.762 285.082 139.549 284.534 139.017C283.028 137.419 280.837 136.566 278.51 136.034C276.456 135.607 274.265 135.181 272.074 134.755C271.526 134.649 271.116 134.436 270.705 134.222C269.472 133.37 268.514 132.305 267.555 131.133C266.46 129.748 265.775 128.363 265.502 126.765C265.365 125.699 264.68 124.741 263.722 123.995C262.9 123.356 262.763 122.716 262.626 121.971C262.215 117.283 261.668 112.489 261.257 107.801C261.12 106.842 260.983 105.884 260.709 104.925C260.161 102.901 258.792 101.409 256.327 100.45C256.327 100.024 256.327 99.5979 256.327 99.1717C256.464 96.0821 256.054 92.9926 255.369 90.0095C255.095 88.9442 254.684 87.8788 253.863 86.92C253.589 86.7069 253.452 86.3873 253.315 86.1742C253.041 84.5761 252.083 83.1912 251.535 81.6996C251.535 81.5931 251.398 81.4866 251.398 81.4866C251.535 79.1427 248.933 78.5035 247.016 77.6512C246.058 77.1185 244.552 77.1185 243.182 77.012C240.992 76.9055 238.801 76.3728 236.61 75.9466C234.008 75.4139 231.407 74.9878 228.668 75.3074C228.531 75.3074 228.394 75.4139 228.394 75.3074C226.34 74.4551 224.15 74.8813 221.959 74.4551C221.411 74.3486 220.863 74.242 220.316 74.1355C218.673 73.9224 217.166 73.3897 215.386 73.2832C214.154 73.2832 212.922 72.5374 211.689 72.3244C210.868 72.1113 210.046 72.1113 209.088 71.8982C209.088 72.5374 209.225 72.857 209.225 73.3897C206.486 73.1767 203.747 73.3897 201.146 72.7505C200.05 72.4309 198.818 72.1113 197.449 72.4309C196.353 72.1113 195.258 72.0048 194.026 71.8982C193.067 71.8982 191.972 71.6851 191.013 71.5786C189.781 71.4721 188.549 71.3655 187.316 71.259C186.632 71.1525 186.221 70.9394 186.084 70.4067C185.81 69.7675 185.262 69.4479 184.441 69.3413C183.619 69.2348 182.798 69.0217 181.839 68.9152C181.428 68.9152 180.881 69.0217 180.47 69.1283C180.333 68.9152 180.333 68.8086 180.196 68.489C179.922 68.8086 179.785 68.9152 179.374 69.2348C179.238 68.9152 179.101 68.7021 179.101 68.3825C178.279 68.0629 177.594 68.276 177.047 68.8086C176.362 68.489 175.677 68.0629 174.993 67.8498C174.719 67.7433 174.308 67.7433 173.897 67.7433C172.802 67.7433 171.707 68.3825 170.885 67.2106C169.379 67.2106 168.283 66.3583 166.777 66.3583C164.997 66.3583 163.217 66.1452 161.437 66.0387C160.068 65.9321 158.698 65.6125 157.466 65.2929C156.508 65.0798 155.686 65.0798 154.591 65.2929C153.358 65.6125 151.989 65.7191 150.757 65.8256C150.072 65.9321 149.661 65.9321 149.251 66.3583C148.977 66.6779 148.429 66.891 148.018 67.2106C147.197 67.8498 146.101 68.3825 145.417 69.1283C144.595 69.9805 143.637 70.3002 142.267 70.0871C142.13 69.7675 142.13 69.4479 141.993 68.8086C141.446 69.4479 141.035 69.874 140.624 70.4067C140.35 70.4067 139.939 70.4067 139.666 70.3002C138.707 69.9806 137.749 69.9805 136.927 70.6198C136.79 70.7263 136.379 70.8328 136.105 70.8328C134.873 70.6198 133.778 71.1525 132.682 71.4721C132.408 71.5786 132.135 71.6851 131.724 71.6851C129.122 71.8982 127.068 73.0701 124.878 73.9224C121.044 75.5205 116.936 76.3728 112.554 76.0532C109.815 75.8401 106.94 76.0532 104.202 75.627C101.874 76.1597 99.1352 75.8401 97.2182 77.4381C95.1643 78.9297 92.6996 79.8885 89.9611 80.6343C88.5918 81.0604 87.2225 81.6996 85.9902 82.3389C84.2101 83.1912 82.704 84.15 80.9239 85.0023C80.2393 85.3219 79.6915 85.748 79.6915 86.3873C79.2808 88.8376 77.7746 90.7553 75.4468 92.4599C74.6253 92.9926 74.2145 93.6318 73.8037 94.3776C72.7083 96.1887 71.2021 97.8933 69.6959 99.3848C68.8743 100.131 67.3681 100.557 66.1358 100.983C65.0403 101.302 63.9449 101.729 63.2603 102.474C62.1649 103.433 60.7956 104.179 59.1525 104.392C57.7832 104.605 56.277 104.925 54.7708 105.031C54.0862 105.031 53.5385 105.351 52.9908 105.564C51.2107 106.416 49.5676 107.162 47.9245 108.121C47.6506 108.334 47.3768 108.654 47.3768 108.973C47.2399 110.145 46.5552 111.104 45.7336 112.169C45.049 113.022 44.6382 113.98 43.9536 114.939C43.4059 115.685 42.8582 116.537 42.3105 117.283C42.1735 117.39 42.0366 117.496 42.0366 117.603C41.4889 119.52 39.5719 120.479 37.3811 121.225C37.1072 121.331 36.8334 121.545 36.6964 121.864C36.5595 122.184 36.4226 122.503 36.2857 122.823C35.601 123.888 35.3272 123.995 33.821 123.782C32.5886 123.675 31.3563 123.569 30.2609 123.569C29.4393 123.569 28.7547 123.356 28.4808 122.716C27.7962 121.118 26.5639 119.733 26.0161 118.135C25.6054 116.644 24.7838 115.152 24.0992 113.661C23.8253 112.915 23.5515 112.063 23.5515 111.317C23.4145 109.08 23.0037 106.842 21.4975 104.818C21.3606 104.712 21.3606 104.499 21.2237 104.392C19.9914 103.859 20.1283 102.901 20.1283 102.048C20.1283 101.089 19.9914 100.131 19.8544 99.1717C20.5391 98.8521 21.2237 98.426 22.0453 97.9998C19.4437 95.8691 18.0744 93.3122 16.9789 90.5422C16.5682 89.4768 15.6097 88.6245 14.925 87.6657C14.1035 86.4938 13.145 85.4284 12.4604 84.2565C11.9127 83.4042 11.0911 83.1912 10.1326 83.0846C7.53098 82.9781 4.92935 82.8715 2.32776 82.765C1.5062 82.765 0.821564 82.5519 0 82.5519C0.410797 103.859 0.410767 391.723 0.410767 413.137Z" fill="url(#paint0_linear_2_581)"/>
<defs>
<linearGradient id="paint0_linear_2_581" x1="237.5" y1="0.19873" x2="237.5" y2="413.243" gradientUnits="userSpaceOnUse">
<stop stop-color="#FC6738" stop-opacity="0.33"/>
<stop offset="1" stop-color="white" stop-opacity="0"/>
</linearGradient>
</defs>
</svg>
