<svg id="tableland" xmlns="http://www.w3.org/2000/svg" xmlns:xlink="http://www.w3.org/1999/xlink" viewBox="0 0 216 216"><defs><linearGradient id="linear-gradient" x1="108" y1="153.33" x2="108" y2="55.45" gradientUnits="userSpaceOnUse"><stop offset="0" stop-color="#fee8c3"/><stop offset=".29" stop-color="#f3dcd5"/><stop offset=".72" stop-color="#e8d0e9"/><stop offset="1" stop-color="#e4ccf1"/></linearGradient></defs><path d="M35.72,80.61c.56-2.62,2.97-4.61,5.81-4.61h23.51c3.14,0,4.54-1.37,6.41-4.02l10.36-18.32c.98-1.72,2.89-2.8,4.96-2.8h86.53c2.23,0,4.08,1.61,4.26,3.7,3.48,40.62,7.89,68.15,35.83,93.07,2.93,2.61,1.06,7.53-2.99,7.53H5.6c-4.05,0-5.93-4.93-2.99-7.55,20-17.84,28.01-37.36,32.24-62.63,.21-1.27,.47-2.48,.73-3.7l.14-.67Z" fill="url(#linear-gradient)" fill-rule="evenodd"/></svg>