<svg width="18" height="13" viewBox="0 0 18 13" fill="none" xmlns="http://www.w3.org/2000/svg">
<path fill-rule="evenodd" clip-rule="evenodd" d="M16.3301 0.587646H15.3301C14.7778 0.587646 14.3301 1.07791 14.3301 1.68269V11.173C14.3301 11.7778 14.7778 12.2681 15.3301 12.2681H16.3301C16.8824 12.2681 17.3301 11.7778 17.3301 11.173V1.68269C17.3301 1.07791 16.8824 0.587646 16.3301 0.587646ZM10.6601 3.32991H11.6601C12.2124 3.32991 12.6601 3.81012 12.6601 4.40249V11.1955C12.6601 11.7879 12.2124 12.2681 11.6601 12.2681H10.6601C10.1078 12.2681 9.66013 11.7879 9.66013 11.1955V4.40249C9.66013 3.81012 10.1078 3.32991 10.6601 3.32991ZM7.00012 6.08245H6.00012C5.44784 6.08245 5.00012 6.54401 5.00012 7.11337V11.2371C5.00012 11.8064 5.44784 12.268 6.00012 12.268H7.00012C7.55241 12.268 8.00012 11.8064 8.00012 11.2371V7.11337C8.00012 6.54401 7.55241 6.08245 7.00012 6.08245ZM2.33006 8.14431H1.33007C0.777789 8.14431 0.330078 8.60587 0.330078 9.17524V11.2371C0.330078 11.8065 0.777789 12.268 1.33007 12.268H2.33006C2.88234 12.268 3.33005 11.8065 3.33005 11.2371V9.17524C3.33005 8.60587 2.88234 8.14431 2.33006 8.14431Z" fill="black"/>
</svg>
