<svg width="572" height="279" viewBox="0 0 572 279" fill="none" xmlns="http://www.w3.org/2000/svg">
<path d="M0 0H542C558.569 0 572 13.4315 572 30V279H0V0Z" fill="black"/>
<path d="M43.59 84V58.62H30.9V51.6H63.3V58.62H50.61V84H43.59ZM72.9655 84C71.1955 84 69.6655 83.355 68.3755 82.065C67.0855 80.775 66.4405 79.245 66.4405 77.475V64.425C66.4405 62.655 67.0855 61.125 68.3755 59.835C69.6655 58.545 71.1955 57.9 72.9655 57.9H86.3755C88.1755 57.9 89.7055 58.545 90.9655 59.835C92.2555 61.125 92.9005 62.655 92.9005 64.425V74.415H73.3255V75.63C73.3255 76.62 73.3255 77.115 73.3255 77.115C73.3255 77.115 73.8205 77.115 74.8105 77.115H92.9005V84H72.9655ZM73.3255 68.385H86.0155V66.27C86.0155 65.28 86.0155 64.785 86.0155 64.785C86.0155 64.785 85.5205 64.785 84.5305 64.785H74.8105C73.8205 64.785 73.3255 64.785 73.3255 64.785C73.3255 64.785 73.3255 65.28 73.3255 66.27V68.385ZM103.548 84C101.778 84 100.248 83.355 98.9583 82.065C97.6683 80.775 97.0233 79.245 97.0233 77.475V76.17H103.908V76.395C103.908 76.875 103.908 77.115 103.908 77.115C103.908 77.115 104.148 77.115 104.628 77.115H115.878C116.358 77.115 116.598 77.115 116.598 77.115C116.598 77.115 116.598 76.875 116.598 76.395V75.135C116.598 74.655 116.598 74.415 116.598 74.415C116.598 74.415 116.358 74.415 115.878 74.415H103.548C101.778 74.415 100.248 73.77 98.9583 72.48C97.6683 71.19 97.0233 69.66 97.0233 67.89V64.425C97.0233 62.655 97.6683 61.125 98.9583 59.835C100.248 58.545 101.778 57.9 103.548 57.9H116.958C118.758 57.9 120.303 58.545 121.593 59.835C122.883 61.125 123.528 62.655 123.528 64.425V65.73H116.598V65.505C116.598 65.025 116.598 64.785 116.598 64.785C116.598 64.785 116.358 64.785 115.878 64.785H104.628C104.148 64.785 103.908 64.785 103.908 64.785C103.908 64.785 103.908 65.025 103.908 65.505V66.765C103.908 67.245 103.908 67.485 103.908 67.485C103.908 67.485 104.148 67.485 104.628 67.485H116.958C118.758 67.485 120.303 68.13 121.593 69.42C122.883 70.71 123.528 72.24 123.528 74.01V77.475C123.528 79.245 122.883 80.775 121.593 82.065C120.303 83.355 118.758 84 116.958 84H103.548ZM134.668 84C132.868 84 131.323 83.355 130.033 82.065C128.743 80.775 128.098 79.245 128.098 77.475V50.16H134.983V57.9H144.658V64.785H134.983V75.63C134.983 76.62 134.983 77.115 134.983 77.115C134.983 77.115 135.478 77.115 136.468 77.115H144.658V84H134.668ZM148.446 84V57.9H168.381C170.181 57.9 171.711 58.545 172.971 59.835C174.261 61.125 174.906 62.655 174.906 64.425V84H168.021V66.27C168.021 65.28 168.021 64.785 168.021 64.785C168.021 64.785 167.526 64.785 166.536 64.785H156.816C155.826 64.785 155.331 64.785 155.331 64.785C155.331 64.785 155.331 65.28 155.331 66.27V84H148.446ZM184.806 84C183.036 84 181.506 83.355 180.216 82.065C178.926 80.775 178.281 79.245 178.281 77.475V64.425C178.281 62.655 178.926 61.125 180.216 59.835C181.506 58.545 183.036 57.9 184.806 57.9H198.216C200.016 57.9 201.546 58.545 202.806 59.835C204.096 61.125 204.741 62.655 204.741 64.425V74.415H185.166V75.63C185.166 76.62 185.166 77.115 185.166 77.115C185.166 77.115 185.661 77.115 186.651 77.115H204.741V84H184.806ZM185.166 68.385H197.856V66.27C197.856 65.28 197.856 64.785 197.856 64.785C197.856 64.785 197.361 64.785 196.371 64.785H186.651C185.661 64.785 185.166 64.785 185.166 64.785C185.166 64.785 185.166 65.28 185.166 66.27V68.385ZM216.099 84C214.299 84 212.754 83.355 211.464 82.065C210.174 80.775 209.529 79.245 209.529 77.475V50.16H216.414V57.9H226.089V64.785H216.414V75.63C216.414 76.62 216.414 77.115 216.414 77.115C216.414 77.115 216.909 77.115 217.899 77.115H226.089V84H216.099ZM244.468 84V51.645H270.163C271.993 51.645 273.568 52.305 274.888 53.625C276.208 54.945 276.868 56.505 276.868 58.305V66.675C276.868 68.475 276.208 70.035 274.888 71.355C273.568 72.675 271.993 73.335 270.163 73.335L251.443 73.38V84H244.468ZM252.928 66.315H268.318C269.308 66.315 269.803 66.315 269.803 66.315C269.803 66.315 269.803 65.82 269.803 64.83V60.105C269.803 59.115 269.803 58.62 269.803 58.62C269.803 58.62 269.308 58.62 268.318 58.62H252.928C251.938 58.62 251.443 58.62 251.443 58.62C251.443 58.62 251.443 59.115 251.443 60.105V64.83C251.443 65.82 251.443 66.315 251.443 66.315C251.443 66.315 251.938 66.315 252.928 66.315ZM279.974 84V49.35H286.859V57.9H299.909C301.679 57.9 303.209 58.545 304.499 59.835C305.789 61.125 306.434 62.655 306.434 64.425V84H299.549V66.27C299.549 65.28 299.549 64.785 299.549 64.785C299.549 64.785 299.054 64.785 298.064 64.785H288.344C287.354 64.785 286.859 64.785 286.859 64.785C286.859 64.785 286.859 65.28 286.859 66.27V84H279.974ZM316.468 84C314.668 84 313.123 83.355 311.833 82.065C310.573 80.775 309.943 79.245 309.943 77.475V67.485H329.518V66.27C329.518 65.28 329.518 64.785 329.518 64.785C329.518 64.785 329.023 64.785 328.033 64.785H309.943V57.9H329.878C331.678 57.9 333.208 58.545 334.468 59.835C335.758 61.125 336.403 62.655 336.403 64.425V84H316.468ZM318.313 77.115H329.518V73.515H316.828V75.63C316.828 76.62 316.828 77.115 316.828 77.115C316.828 77.115 317.323 77.115 318.313 77.115ZM346.478 84C344.708 84 343.178 83.355 341.888 82.065C340.598 80.775 339.953 79.245 339.953 77.475V76.17H346.838V76.395C346.838 76.875 346.838 77.115 346.838 77.115C346.838 77.115 347.078 77.115 347.558 77.115H358.808C359.288 77.115 359.528 77.115 359.528 77.115C359.528 77.115 359.528 76.875 359.528 76.395V75.135C359.528 74.655 359.528 74.415 359.528 74.415C359.528 74.415 359.288 74.415 358.808 74.415H346.478C344.708 74.415 343.178 73.77 341.888 72.48C340.598 71.19 339.953 69.66 339.953 67.89V64.425C339.953 62.655 340.598 61.125 341.888 59.835C343.178 58.545 344.708 57.9 346.478 57.9H359.888C361.688 57.9 363.233 58.545 364.523 59.835C365.813 61.125 366.458 62.655 366.458 64.425V65.73H359.528V65.505C359.528 65.025 359.528 64.785 359.528 64.785C359.528 64.785 359.288 64.785 358.808 64.785H347.558C347.078 64.785 346.838 64.785 346.838 64.785C346.838 64.785 346.838 65.025 346.838 65.505V66.765C346.838 67.245 346.838 67.485 346.838 67.485C346.838 67.485 347.078 67.485 347.558 67.485H359.888C361.688 67.485 363.233 68.13 364.523 69.42C365.813 70.71 366.458 72.24 366.458 74.01V77.475C366.458 79.245 365.813 80.775 364.523 82.065C363.233 83.355 361.688 84 359.888 84H346.478ZM376.496 84C374.726 84 373.196 83.355 371.906 82.065C370.616 80.775 369.971 79.245 369.971 77.475V64.425C369.971 62.655 370.616 61.125 371.906 59.835C373.196 58.545 374.726 57.9 376.496 57.9H389.906C391.706 57.9 393.236 58.545 394.496 59.835C395.786 61.125 396.431 62.655 396.431 64.425V74.415H376.856V75.63C376.856 76.62 376.856 77.115 376.856 77.115C376.856 77.115 377.351 77.115 378.341 77.115H396.431V84H376.496ZM376.856 68.385H389.546V66.27C389.546 65.28 389.546 64.785 389.546 64.785C389.546 64.785 389.051 64.785 388.061 64.785H378.341C377.351 64.785 376.856 64.785 376.856 64.785C376.856 64.785 376.856 65.28 376.856 66.27V68.385ZM424 84V62.085L422.515 63.93H413.38L423.73 51.6H430.885V84H424Z" fill="#F1F1F1"/>
<path d="M31.425 124V117.025C31.425 116.025 31.7833 115.175 32.5 114.475C33.2167 113.758 34.075 113.4 35.075 113.4H44.45C45 113.4 45.275 113.4 45.275 113.4C45.275 113.4 45.275 113.125 45.275 112.575V110.65C45.275 110.1 45.275 109.825 45.275 109.825C45.275 109.825 45 109.825 44.45 109.825H36.075C35.525 109.825 35.25 109.825 35.25 109.825C35.25 109.825 35.25 110.1 35.25 110.65V111.275H31.425V109.625C31.425 108.625 31.7833 107.775 32.5 107.075C33.2167 106.358 34.075 106 35.075 106H45.45C46.45 106 47.3083 106.358 48.025 107.075C48.7417 107.775 49.1 108.625 49.1 109.625V113.6C49.1 114.6 48.7417 115.458 48.025 116.175C47.3083 116.892 46.45 117.25 45.45 117.25H36.075C35.525 117.25 35.25 117.25 35.25 117.25C35.25 117.25 35.25 117.525 35.25 118.075V119.35C35.25 119.9 35.25 120.175 35.25 120.175C35.25 120.175 35.525 120.175 36.075 120.175H49.1V124H31.425ZM55.827 124C54.827 124 53.9686 123.6 53.252 122.8C52.5353 122 52.177 121.108 52.177 120.125V109.725C52.177 108.725 52.5353 107.858 53.252 107.125C53.9686 106.375 54.827 106 55.827 106H66.202C67.202 106 68.0603 106.375 68.777 107.125C69.4936 107.858 69.852 108.725 69.852 109.725V120.125C69.852 121.108 69.4936 122 68.777 122.8C68.0603 123.6 67.202 124 66.202 124H55.827ZM58.052 119.925H65.202C65.752 119.925 66.027 119.925 66.027 119.925C66.027 119.925 66.027 119.65 66.027 119.1V113.225L58.052 119.925ZM56.002 116.625L63.977 109.925H56.827C56.277 109.925 56.002 109.925 56.002 109.925C56.002 109.925 56.002 110.2 56.002 110.75V116.625ZM73.0266 124V117.025C73.0266 116.025 73.3849 115.175 74.1016 114.475C74.8182 113.758 75.6766 113.4 76.6766 113.4H86.0516C86.6016 113.4 86.8766 113.4 86.8766 113.4C86.8766 113.4 86.8766 113.125 86.8766 112.575V110.65C86.8766 110.1 86.8766 109.825 86.8766 109.825C86.8766 109.825 86.6016 109.825 86.0516 109.825H77.6766C77.1266 109.825 76.8516 109.825 76.8516 109.825C76.8516 109.825 76.8516 110.1 76.8516 110.65V111.275H73.0266V109.625C73.0266 108.625 73.3849 107.775 74.1016 107.075C74.8182 106.358 75.6766 106 76.6766 106H87.0516C88.0516 106 88.9099 106.358 89.6266 107.075C90.3432 107.775 90.7016 108.625 90.7016 109.625V113.6C90.7016 114.6 90.3432 115.458 89.6266 116.175C88.9099 116.892 88.0516 117.25 87.0516 117.25H77.6766C77.1266 117.25 76.8516 117.25 76.8516 117.25C76.8516 117.25 76.8516 117.525 76.8516 118.075V119.35C76.8516 119.9 76.8516 120.175 76.8516 120.175C76.8516 120.175 77.1266 120.175 77.6766 120.175H90.7016V124H73.0266ZM93.7785 124V117.025C93.7785 116.025 94.1368 115.175 94.8535 114.475C95.5702 113.758 96.4285 113.4 97.4285 113.4H106.804C107.354 113.4 107.629 113.4 107.629 113.4C107.629 113.4 107.629 113.125 107.629 112.575V110.65C107.629 110.1 107.629 109.825 107.629 109.825C107.629 109.825 107.354 109.825 106.804 109.825H98.4285C97.8785 109.825 97.6035 109.825 97.6035 109.825C97.6035 109.825 97.6035 110.1 97.6035 110.65V111.275H93.7785V109.625C93.7785 108.625 94.1368 107.775 94.8535 107.075C95.5702 106.358 96.4285 106 97.4285 106H107.804C108.804 106 109.662 106.358 110.379 107.075C111.095 107.775 111.454 108.625 111.454 109.625V113.6C111.454 114.6 111.095 115.458 110.379 116.175C109.662 116.892 108.804 117.25 107.804 117.25H98.4285C97.8785 117.25 97.6035 117.25 97.6035 117.25C97.6035 117.25 97.6035 117.525 97.6035 118.075V119.35C97.6035 119.9 97.6035 120.175 97.6035 120.175C97.6035 120.175 97.8785 120.175 98.4285 120.175H111.454V124H93.7785Z" fill="#FD9F58"/>
<path d="M42.75 165L51.75 174L42.75 183V178.5H34.5C34.3011 178.5 34.1103 178.421 33.9697 178.28C33.829 178.14 33.75 177.949 33.75 177.75V170.25C33.75 170.051 33.829 169.86 33.9697 169.72C34.1103 169.579 34.3011 169.5 34.5 169.5H42.75V165Z" stroke="#F1F1F1" stroke-width="2" stroke-linecap="round" stroke-linejoin="round"/>
<path d="M67.36 168.54V173.2H72.44V174.7H67.36V179.5H73.04V181H65.54V167.04H73.04V168.54H67.36ZM78.0139 171.54V178C78.0139 178.533 78.1272 178.913 78.3539 179.14C78.5806 179.353 78.9739 179.46 79.5339 179.46H80.8739V181H79.2339C78.2206 181 77.4606 180.767 76.9539 180.3C76.4472 179.833 76.1939 179.067 76.1939 178V171.54H74.7739V170.04H76.1939V167.28H78.0139V170.04H80.8739V171.54H78.0139ZM88.5191 169.84C89.3457 169.84 90.0924 170.02 90.7591 170.38C91.4257 170.727 91.9457 171.253 92.3191 171.96C92.7057 172.667 92.8991 173.527 92.8991 174.54V181H91.0991V174.8C91.0991 173.707 90.8257 172.873 90.2791 172.3C89.7324 171.713 88.9857 171.42 88.0391 171.42C87.0791 171.42 86.3124 171.72 85.7391 172.32C85.1791 172.92 84.8991 173.793 84.8991 174.94V181H83.0791V166.2H84.8991V171.6C85.2591 171.04 85.7524 170.607 86.3791 170.3C87.0191 169.993 87.7324 169.84 88.5191 169.84ZM105.872 175.1C105.872 175.447 105.852 175.813 105.812 176.2H97.052C97.1187 177.28 97.4854 178.127 98.152 178.74C98.832 179.34 99.652 179.64 100.612 179.64C101.399 179.64 102.052 179.46 102.572 179.1C103.105 178.727 103.479 178.233 103.692 177.62H105.652C105.359 178.673 104.772 179.533 103.892 180.2C103.012 180.853 101.919 181.18 100.612 181.18C99.572 181.18 98.6387 180.947 97.812 180.48C96.9987 180.013 96.3587 179.353 95.892 178.5C95.4254 177.633 95.192 176.633 95.192 175.5C95.192 174.367 95.4187 173.373 95.872 172.52C96.3254 171.667 96.9587 171.013 97.772 170.56C98.5987 170.093 99.5454 169.86 100.612 169.86C101.652 169.86 102.572 170.087 103.372 170.54C104.172 170.993 104.785 171.62 105.212 172.42C105.652 173.207 105.872 174.1 105.872 175.1ZM103.992 174.72C103.992 174.027 103.839 173.433 103.532 172.94C103.225 172.433 102.805 172.053 102.272 171.8C101.752 171.533 101.172 171.4 100.532 171.4C99.612 171.4 98.8254 171.693 98.172 172.28C97.532 172.867 97.1654 173.68 97.072 174.72H103.992ZM110.094 171.82C110.414 171.193 110.868 170.707 111.454 170.36C112.054 170.013 112.781 169.84 113.634 169.84V171.72H113.154C111.114 171.72 110.094 172.827 110.094 175.04V181H108.274V170.04H110.094V171.82ZM125.735 175.1C125.735 175.447 125.715 175.813 125.675 176.2H116.915C116.982 177.28 117.349 178.127 118.015 178.74C118.695 179.34 119.515 179.64 120.475 179.64C121.262 179.64 121.915 179.46 122.435 179.1C122.969 178.727 123.342 178.233 123.555 177.62H125.515C125.222 178.673 124.635 179.533 123.755 180.2C122.875 180.853 121.782 181.18 120.475 181.18C119.435 181.18 118.502 180.947 117.675 180.48C116.862 180.013 116.222 179.353 115.755 178.5C115.289 177.633 115.055 176.633 115.055 175.5C115.055 174.367 115.282 173.373 115.735 172.52C116.189 171.667 116.822 171.013 117.635 170.56C118.462 170.093 119.409 169.86 120.475 169.86C121.515 169.86 122.435 170.087 123.235 170.54C124.035 170.993 124.649 171.62 125.075 172.42C125.515 173.207 125.735 174.1 125.735 175.1ZM123.855 174.72C123.855 174.027 123.702 173.433 123.395 172.94C123.089 172.433 122.669 172.053 122.135 171.8C121.615 171.533 121.035 171.4 120.395 171.4C119.475 171.4 118.689 171.693 118.035 172.28C117.395 172.867 117.029 173.68 116.935 174.72H123.855ZM137.858 170.04V181H136.038V179.38C135.691 179.94 135.204 180.38 134.578 180.7C133.964 181.007 133.284 181.16 132.538 181.16C131.684 181.16 130.918 180.987 130.238 180.64C129.558 180.28 129.018 179.747 128.618 179.04C128.231 178.333 128.038 177.473 128.038 176.46V170.04H129.838V176.22C129.838 177.3 130.111 178.133 130.658 178.72C131.204 179.293 131.951 179.58 132.898 179.58C133.871 179.58 134.638 179.28 135.198 178.68C135.758 178.08 136.038 177.207 136.038 176.06V170.04H137.858ZM154.111 169.84C154.964 169.84 155.724 170.02 156.391 170.38C157.057 170.727 157.584 171.253 157.971 171.96C158.357 172.667 158.551 173.527 158.551 174.54V181H156.751V174.8C156.751 173.707 156.477 172.873 155.931 172.3C155.397 171.713 154.671 171.42 153.751 171.42C152.804 171.42 152.051 171.727 151.491 172.34C150.931 172.94 150.651 173.813 150.651 174.96V181H148.851V174.8C148.851 173.707 148.577 172.873 148.031 172.3C147.497 171.713 146.771 171.42 145.851 171.42C144.904 171.42 144.151 171.727 143.591 172.34C143.031 172.94 142.751 173.813 142.751 174.96V181H140.931V170.04H142.751V171.62C143.111 171.047 143.591 170.607 144.191 170.3C144.804 169.993 145.477 169.84 146.211 169.84C147.131 169.84 147.944 170.047 148.651 170.46C149.357 170.873 149.884 171.48 150.231 172.28C150.537 171.507 151.044 170.907 151.751 170.48C152.457 170.053 153.244 169.84 154.111 169.84ZM169.088 171.54V178C169.088 178.533 169.201 178.913 169.428 179.14C169.655 179.353 170.048 179.46 170.608 179.46H171.948V181H170.308C169.295 181 168.535 180.767 168.028 180.3C167.521 179.833 167.268 179.067 167.268 178V171.54H165.848V170.04H167.268V167.28H169.088V170.04H171.948V171.54H169.088ZM173.473 175.48C173.473 174.36 173.7 173.38 174.153 172.54C174.607 171.687 175.227 171.027 176.013 170.56C176.813 170.093 177.7 169.86 178.673 169.86C179.633 169.86 180.467 170.067 181.173 170.48C181.88 170.893 182.407 171.413 182.753 172.04V170.04H184.593V181H182.753V178.96C182.393 179.6 181.853 180.133 181.133 180.56C180.427 180.973 179.6 181.18 178.653 181.18C177.68 181.18 176.8 180.94 176.013 180.46C175.227 179.98 174.607 179.307 174.153 178.44C173.7 177.573 173.473 176.587 173.473 175.48ZM182.753 175.5C182.753 174.673 182.587 173.953 182.253 173.34C181.92 172.727 181.467 172.26 180.893 171.94C180.333 171.607 179.713 171.44 179.033 171.44C178.353 171.44 177.733 171.6 177.173 171.92C176.613 172.24 176.167 172.707 175.833 173.32C175.5 173.933 175.333 174.653 175.333 175.48C175.333 176.32 175.5 177.053 175.833 177.68C176.167 178.293 176.613 178.767 177.173 179.1C177.733 179.42 178.353 179.58 179.033 179.58C179.713 179.58 180.333 179.42 180.893 179.1C181.467 178.767 181.92 178.293 182.253 177.68C182.587 177.053 182.753 176.327 182.753 175.5ZM189.489 172.08C189.862 171.427 190.409 170.893 191.129 170.48C191.849 170.067 192.669 169.86 193.589 169.86C194.576 169.86 195.462 170.093 196.249 170.56C197.036 171.027 197.656 171.687 198.109 172.54C198.562 173.38 198.789 174.36 198.789 175.48C198.789 176.587 198.562 177.573 198.109 178.44C197.656 179.307 197.029 179.98 196.229 180.46C195.442 180.94 194.562 181.18 193.589 181.18C192.642 181.18 191.809 180.973 191.089 180.56C190.382 180.147 189.849 179.62 189.489 178.98V181H187.669V166.2H189.489V172.08ZM196.929 175.48C196.929 174.653 196.762 173.933 196.429 173.32C196.096 172.707 195.642 172.24 195.069 171.92C194.509 171.6 193.889 171.44 193.209 171.44C192.542 171.44 191.922 171.607 191.349 171.94C190.789 172.26 190.336 172.733 189.989 173.36C189.656 173.973 189.489 174.687 189.489 175.5C189.489 176.327 189.656 177.053 189.989 177.68C190.336 178.293 190.789 178.767 191.349 179.1C191.922 179.42 192.542 179.58 193.209 179.58C193.889 179.58 194.509 179.42 195.069 179.1C195.642 178.767 196.096 178.293 196.429 177.68C196.762 177.053 196.929 176.32 196.929 175.48ZM203.005 166.2V181H201.185V166.2H203.005ZM216.106 175.1C216.106 175.447 216.086 175.813 216.046 176.2H207.286C207.353 177.28 207.72 178.127 208.386 178.74C209.066 179.34 209.886 179.64 210.846 179.64C211.633 179.64 212.286 179.46 212.806 179.1C213.34 178.727 213.713 178.233 213.926 177.62H215.886C215.593 178.673 215.006 179.533 214.126 180.2C213.246 180.853 212.153 181.18 210.846 181.18C209.806 181.18 208.873 180.947 208.046 180.48C207.233 180.013 206.593 179.353 206.126 178.5C205.66 177.633 205.426 176.633 205.426 175.5C205.426 174.367 205.653 173.373 206.106 172.52C206.56 171.667 207.193 171.013 208.006 170.56C208.833 170.093 209.78 169.86 210.846 169.86C211.886 169.86 212.806 170.087 213.606 170.54C214.406 170.993 215.02 171.62 215.446 172.42C215.886 173.207 216.106 174.1 216.106 175.1ZM214.226 174.72C214.226 174.027 214.073 173.433 213.766 172.94C213.46 172.433 213.04 172.053 212.506 171.8C211.986 171.533 211.406 171.4 210.766 171.4C209.846 171.4 209.06 171.693 208.406 172.28C207.766 172.867 207.4 173.68 207.306 174.72H214.226ZM223.161 175.48C223.161 174.36 223.387 173.38 223.841 172.54C224.294 171.687 224.914 171.027 225.701 170.56C226.501 170.093 227.387 169.86 228.361 169.86C229.321 169.86 230.154 170.067 230.861 170.48C231.567 170.893 232.094 171.413 232.441 172.04V170.04H234.281V181H232.441V178.96C232.081 179.6 231.541 180.133 230.821 180.56C230.114 180.973 229.287 181.18 228.341 181.18C227.367 181.18 226.487 180.94 225.701 180.46C224.914 179.98 224.294 179.307 223.841 178.44C223.387 177.573 223.161 176.587 223.161 175.48ZM232.441 175.5C232.441 174.673 232.274 173.953 231.941 173.34C231.607 172.727 231.154 172.26 230.581 171.94C230.021 171.607 229.401 171.44 228.721 171.44C228.041 171.44 227.421 171.6 226.861 171.92C226.301 172.24 225.854 172.707 225.521 173.32C225.187 173.933 225.021 174.653 225.021 175.48C225.021 176.32 225.187 177.053 225.521 177.68C225.854 178.293 226.301 178.767 226.861 179.1C227.421 179.42 228.041 179.58 228.721 179.58C229.401 179.58 230.021 179.42 230.581 179.1C231.154 178.767 231.607 178.293 231.941 177.68C232.274 177.053 232.441 176.327 232.441 175.5ZM242.696 169.84C244.03 169.84 245.11 170.247 245.936 171.06C246.763 171.86 247.176 173.02 247.176 174.54V181H245.376V174.8C245.376 173.707 245.103 172.873 244.556 172.3C244.01 171.713 243.263 171.42 242.316 171.42C241.356 171.42 240.59 171.72 240.016 172.32C239.456 172.92 239.176 173.793 239.176 174.94V181H237.356V170.04H239.176V171.6C239.536 171.04 240.023 170.607 240.636 170.3C241.263 169.993 241.95 169.84 242.696 169.84ZM249.469 175.48C249.469 174.36 249.696 173.38 250.149 172.54C250.603 171.687 251.223 171.027 252.009 170.56C252.809 170.093 253.703 169.86 254.689 169.86C255.543 169.86 256.336 170.06 257.069 170.46C257.803 170.847 258.363 171.36 258.749 172V166.2H260.589V181H258.749V178.94C258.389 179.593 257.856 180.133 257.149 180.56C256.443 180.973 255.616 181.18 254.669 181.18C253.696 181.18 252.809 180.94 252.009 180.46C251.223 179.98 250.603 179.307 250.149 178.44C249.696 177.573 249.469 176.587 249.469 175.48ZM258.749 175.5C258.749 174.673 258.583 173.953 258.249 173.34C257.916 172.727 257.463 172.26 256.889 171.94C256.329 171.607 255.709 171.44 255.029 171.44C254.349 171.44 253.729 171.6 253.169 171.92C252.609 172.24 252.163 172.707 251.829 173.32C251.496 173.933 251.329 174.653 251.329 175.48C251.329 176.32 251.496 177.053 251.829 177.68C252.163 178.293 252.609 178.767 253.169 179.1C253.729 179.42 254.349 179.58 255.029 179.58C255.709 179.58 256.329 179.42 256.889 179.1C257.463 178.767 257.916 178.293 258.249 177.68C258.583 177.053 258.749 176.327 258.749 175.5ZM270.817 172.06C271.177 171.433 271.71 170.913 272.417 170.5C273.137 170.073 273.97 169.86 274.917 169.86C275.89 169.86 276.77 170.093 277.557 170.56C278.357 171.027 278.984 171.687 279.437 172.54C279.89 173.38 280.117 174.36 280.117 175.48C280.117 176.587 279.89 177.573 279.437 178.44C278.984 179.307 278.357 179.98 277.557 180.46C276.77 180.94 275.89 181.18 274.917 181.18C273.984 181.18 273.157 180.973 272.437 180.56C271.73 180.133 271.19 179.607 270.817 178.98V186.2H268.997V170.04H270.817V172.06ZM278.257 175.48C278.257 174.653 278.09 173.933 277.757 173.32C277.424 172.707 276.97 172.24 276.397 171.92C275.837 171.6 275.217 171.44 274.537 171.44C273.87 171.44 273.25 171.607 272.677 171.94C272.117 172.26 271.664 172.733 271.317 173.36C270.984 173.973 270.817 174.687 270.817 175.5C270.817 176.327 270.984 177.053 271.317 177.68C271.664 178.293 272.117 178.767 272.677 179.1C273.25 179.42 273.87 179.58 274.537 179.58C275.217 179.58 275.837 179.42 276.397 179.1C276.97 178.767 277.424 178.293 277.757 177.68C278.09 177.053 278.257 176.32 278.257 175.48ZM281.833 175.48C281.833 174.36 282.059 173.38 282.513 172.54C282.966 171.687 283.586 171.027 284.373 170.56C285.173 170.093 286.059 169.86 287.033 169.86C287.993 169.86 288.826 170.067 289.533 170.48C290.239 170.893 290.766 171.413 291.113 172.04V170.04H292.953V181H291.113V178.96C290.753 179.6 290.213 180.133 289.493 180.56C288.786 180.973 287.959 181.18 287.013 181.18C286.039 181.18 285.159 180.94 284.373 180.46C283.586 179.98 282.966 179.307 282.513 178.44C282.059 177.573 281.833 176.587 281.833 175.48ZM291.113 175.5C291.113 174.673 290.946 173.953 290.613 173.34C290.279 172.727 289.826 172.26 289.253 171.94C288.693 171.607 288.073 171.44 287.393 171.44C286.713 171.44 286.093 171.6 285.533 171.92C284.973 172.24 284.526 172.707 284.193 173.32C283.859 173.933 283.693 174.653 283.693 175.48C283.693 176.32 283.859 177.053 284.193 177.68C284.526 178.293 284.973 178.767 285.533 179.1C286.093 179.42 286.713 179.58 287.393 179.58C288.073 179.58 288.693 179.42 289.253 179.1C289.826 178.767 290.279 178.293 290.613 177.68C290.946 177.053 291.113 176.327 291.113 175.5ZM305.468 170.04L298.868 186.16H296.988L299.148 180.88L294.728 170.04H296.748L300.188 178.92L303.588 170.04H305.468ZM320.478 169.84C321.331 169.84 322.091 170.02 322.758 170.38C323.424 170.727 323.951 171.253 324.338 171.96C324.724 172.667 324.918 173.527 324.918 174.54V181H323.118V174.8C323.118 173.707 322.844 172.873 322.298 172.3C321.764 171.713 321.038 171.42 320.118 171.42C319.171 171.42 318.418 171.727 317.858 172.34C317.298 172.94 317.018 173.813 317.018 174.96V181H315.218V174.8C315.218 173.707 314.944 172.873 314.398 172.3C313.864 171.713 313.138 171.42 312.218 171.42C311.271 171.42 310.518 171.727 309.958 172.34C309.398 172.94 309.118 173.813 309.118 174.96V181H307.298V170.04H309.118V171.62C309.478 171.047 309.958 170.607 310.558 170.3C311.171 169.993 311.844 169.84 312.578 169.84C313.498 169.84 314.311 170.047 315.018 170.46C315.724 170.873 316.251 171.48 316.598 172.28C316.904 171.507 317.411 170.907 318.118 170.48C318.824 170.053 319.611 169.84 320.478 169.84ZM337.903 175.1C337.903 175.447 337.883 175.813 337.843 176.2H329.083C329.15 177.28 329.517 178.127 330.183 178.74C330.863 179.34 331.683 179.64 332.643 179.64C333.43 179.64 334.083 179.46 334.603 179.1C335.137 178.727 335.51 178.233 335.723 177.62H337.683C337.39 178.673 336.803 179.533 335.923 180.2C335.043 180.853 333.95 181.18 332.643 181.18C331.603 181.18 330.67 180.947 329.843 180.48C329.03 180.013 328.39 179.353 327.923 178.5C327.457 177.633 327.223 176.633 327.223 175.5C327.223 174.367 327.45 173.373 327.903 172.52C328.357 171.667 328.99 171.013 329.803 170.56C330.63 170.093 331.577 169.86 332.643 169.86C333.683 169.86 334.603 170.087 335.403 170.54C336.203 170.993 336.817 171.62 337.243 172.42C337.683 173.207 337.903 174.1 337.903 175.1ZM336.023 174.72C336.023 174.027 335.87 173.433 335.563 172.94C335.257 172.433 334.837 172.053 334.303 171.8C333.783 171.533 333.203 171.4 332.563 171.4C331.643 171.4 330.857 171.693 330.203 172.28C329.563 172.867 329.197 173.68 329.103 174.72H336.023ZM345.646 169.84C346.979 169.84 348.059 170.247 348.886 171.06C349.712 171.86 350.126 173.02 350.126 174.54V181H348.326V174.8C348.326 173.707 348.052 172.873 347.506 172.3C346.959 171.713 346.212 171.42 345.266 171.42C344.306 171.42 343.539 171.72 342.966 172.32C342.406 172.92 342.126 173.793 342.126 174.94V181H340.306V170.04H342.126V171.6C342.486 171.04 342.972 170.607 343.586 170.3C344.212 169.993 344.899 169.84 345.646 169.84ZM355.319 171.54V178C355.319 178.533 355.432 178.913 355.659 179.14C355.885 179.353 356.279 179.46 356.839 179.46H358.179V181H356.539C355.525 181 354.765 180.767 354.259 180.3C353.752 179.833 353.499 179.067 353.499 178V171.54H352.079V170.04H353.499V167.28H355.319V170.04H358.179V171.54H355.319ZM365.036 175.5C365.036 174.367 365.262 173.38 365.716 172.54C366.169 171.687 366.796 171.027 367.596 170.56C368.409 170.093 369.336 169.86 370.376 169.86C371.722 169.86 372.829 170.187 373.696 170.84C374.576 171.493 375.156 172.4 375.436 173.56H373.476C373.289 172.893 372.922 172.367 372.376 171.98C371.842 171.593 371.176 171.4 370.376 171.4C369.336 171.4 368.496 171.76 367.856 172.48C367.216 173.187 366.896 174.193 366.896 175.5C366.896 176.82 367.216 177.84 367.856 178.56C368.496 179.28 369.336 179.64 370.376 179.64C371.176 179.64 371.842 179.453 372.376 179.08C372.909 178.707 373.276 178.173 373.476 177.48H375.436C375.142 178.6 374.556 179.5 373.676 180.18C372.796 180.847 371.696 181.18 370.376 181.18C369.336 181.18 368.409 180.947 367.596 180.48C366.796 180.013 366.169 179.353 365.716 178.5C365.262 177.647 365.036 176.647 365.036 175.5ZM383.304 169.84C384.131 169.84 384.878 170.02 385.544 170.38C386.211 170.727 386.731 171.253 387.104 171.96C387.491 172.667 387.684 173.527 387.684 174.54V181H385.884V174.8C385.884 173.707 385.611 172.873 385.064 172.3C384.518 171.713 383.771 171.42 382.824 171.42C381.864 171.42 381.098 171.72 380.524 172.32C379.964 172.92 379.684 173.793 379.684 174.94V181H377.864V166.2H379.684V171.6C380.044 171.04 380.538 170.607 381.164 170.3C381.804 169.993 382.518 169.84 383.304 169.84ZM389.977 175.48C389.977 174.36 390.204 173.38 390.657 172.54C391.111 171.687 391.731 171.027 392.517 170.56C393.317 170.093 394.204 169.86 395.177 169.86C396.137 169.86 396.971 170.067 397.677 170.48C398.384 170.893 398.911 171.413 399.257 172.04V170.04H401.097V181H399.257V178.96C398.897 179.6 398.357 180.133 397.637 180.56C396.931 180.973 396.104 181.18 395.157 181.18C394.184 181.18 393.304 180.94 392.517 180.46C391.731 179.98 391.111 179.307 390.657 178.44C390.204 177.573 389.977 176.587 389.977 175.48ZM399.257 175.5C399.257 174.673 399.091 173.953 398.757 173.34C398.424 172.727 397.971 172.26 397.397 171.94C396.837 171.607 396.217 171.44 395.537 171.44C394.857 171.44 394.237 171.6 393.677 171.92C393.117 172.24 392.671 172.707 392.337 173.32C392.004 173.933 391.837 174.653 391.837 175.48C391.837 176.32 392.004 177.053 392.337 177.68C392.671 178.293 393.117 178.767 393.677 179.1C394.237 179.42 394.857 179.58 395.537 179.58C396.217 179.58 396.837 179.42 397.397 179.1C397.971 178.767 398.424 178.293 398.757 177.68C399.091 177.053 399.257 176.327 399.257 175.5ZM409.513 169.84C410.846 169.84 411.926 170.247 412.753 171.06C413.579 171.86 413.993 173.02 413.993 174.54V181H412.193V174.8C412.193 173.707 411.919 172.873 411.373 172.3C410.826 171.713 410.079 171.42 409.133 171.42C408.173 171.42 407.406 171.72 406.833 172.32C406.273 172.92 405.993 173.793 405.993 174.94V181H404.173V170.04H405.993V171.6C406.353 171.04 406.839 170.607 407.453 170.3C408.079 169.993 408.766 169.84 409.513 169.84ZM422.306 169.84C423.639 169.84 424.719 170.247 425.546 171.06C426.372 171.86 426.786 173.02 426.786 174.54V181H424.986V174.8C424.986 173.707 424.712 172.873 424.166 172.3C423.619 171.713 422.872 171.42 421.926 171.42C420.966 171.42 420.199 171.72 419.626 172.32C419.066 172.92 418.786 173.793 418.786 174.94V181H416.966V170.04H418.786V171.6C419.146 171.04 419.632 170.607 420.246 170.3C420.872 169.993 421.559 169.84 422.306 169.84ZM439.759 175.1C439.759 175.447 439.739 175.813 439.699 176.2H430.939C431.005 177.28 431.372 178.127 432.039 178.74C432.719 179.34 433.539 179.64 434.499 179.64C435.285 179.64 435.939 179.46 436.459 179.1C436.992 178.727 437.365 178.233 437.579 177.62H439.539C439.245 178.673 438.659 179.533 437.779 180.2C436.899 180.853 435.805 181.18 434.499 181.18C433.459 181.18 432.525 180.947 431.699 180.48C430.885 180.013 430.245 179.353 429.779 178.5C429.312 177.633 429.079 176.633 429.079 175.5C429.079 174.367 429.305 173.373 429.759 172.52C430.212 171.667 430.845 171.013 431.659 170.56C432.485 170.093 433.432 169.86 434.499 169.86C435.539 169.86 436.459 170.087 437.259 170.54C438.059 170.993 438.672 171.62 439.099 172.42C439.539 173.207 439.759 174.1 439.759 175.1ZM437.879 174.72C437.879 174.027 437.725 173.433 437.419 172.94C437.112 172.433 436.692 172.053 436.159 171.8C435.639 171.533 435.059 171.4 434.419 171.4C433.499 171.4 432.712 171.693 432.059 172.28C431.419 172.867 431.052 173.68 430.959 174.72H437.879ZM443.981 166.2V181H442.161V166.2H443.981ZM456.295 181.18C455.455 181.18 454.702 181.04 454.035 180.76C453.368 180.467 452.842 180.067 452.455 179.56C452.068 179.04 451.855 178.447 451.815 177.78H453.695C453.748 178.327 454.002 178.773 454.455 179.12C454.922 179.467 455.528 179.64 456.275 179.64C456.968 179.64 457.515 179.487 457.915 179.18C458.315 178.873 458.515 178.487 458.515 178.02C458.515 177.54 458.302 177.187 457.875 176.96C457.448 176.72 456.788 176.487 455.895 176.26C455.082 176.047 454.415 175.833 453.895 175.62C453.388 175.393 452.948 175.067 452.575 174.64C452.215 174.2 452.035 173.627 452.035 172.92C452.035 172.36 452.202 171.847 452.535 171.38C452.868 170.913 453.342 170.547 453.955 170.28C454.568 170 455.268 169.86 456.055 169.86C457.268 169.86 458.248 170.167 458.995 170.78C459.742 171.393 460.142 172.233 460.195 173.3H458.375C458.335 172.727 458.102 172.267 457.675 171.92C457.262 171.573 456.702 171.4 455.995 171.4C455.342 171.4 454.822 171.54 454.435 171.82C454.048 172.1 453.855 172.467 453.855 172.92C453.855 173.28 453.968 173.58 454.195 173.82C454.435 174.047 454.728 174.233 455.075 174.38C455.435 174.513 455.928 174.667 456.555 174.84C457.342 175.053 457.982 175.267 458.475 175.48C458.968 175.68 459.388 175.987 459.735 176.4C460.095 176.813 460.282 177.353 460.295 178.02C460.295 178.62 460.128 179.16 459.795 179.64C459.462 180.12 458.988 180.5 458.375 180.78C457.775 181.047 457.082 181.18 456.295 181.18ZM472.584 170.04V181H470.764V179.38C470.418 179.94 469.931 180.38 469.304 180.7C468.691 181.007 468.011 181.16 467.264 181.16C466.411 181.16 465.644 180.987 464.964 180.64C464.284 180.28 463.744 179.747 463.344 179.04C462.958 178.333 462.764 177.473 462.764 176.46V170.04H464.564V176.22C464.564 177.3 464.838 178.133 465.384 178.72C465.931 179.293 466.678 179.58 467.624 179.58C468.598 179.58 469.364 179.28 469.924 178.68C470.484 178.08 470.764 177.207 470.764 176.06V170.04H472.584ZM477.477 172.06C477.837 171.433 478.371 170.913 479.077 170.5C479.797 170.073 480.631 169.86 481.577 169.86C482.551 169.86 483.431 170.093 484.217 170.56C485.017 171.027 485.644 171.687 486.097 172.54C486.551 173.38 486.777 174.36 486.777 175.48C486.777 176.587 486.551 177.573 486.097 178.44C485.644 179.307 485.017 179.98 484.217 180.46C483.431 180.94 482.551 181.18 481.577 181.18C480.644 181.18 479.817 180.973 479.097 180.56C478.391 180.133 477.851 179.607 477.477 178.98V186.2H475.657V170.04H477.477V172.06ZM484.917 175.48C484.917 174.653 484.751 173.933 484.417 173.32C484.084 172.707 483.631 172.24 483.057 171.92C482.497 171.6 481.877 171.44 481.197 171.44C480.531 171.44 479.911 171.607 479.337 171.94C478.777 172.26 478.324 172.733 477.977 173.36C477.644 173.973 477.477 174.687 477.477 175.5C477.477 176.327 477.644 177.053 477.977 177.68C478.324 178.293 478.777 178.767 479.337 179.1C479.911 179.42 480.531 179.58 481.197 179.58C481.877 179.58 482.497 179.42 483.057 179.1C483.631 178.767 484.084 178.293 484.417 177.68C484.751 177.053 484.917 176.32 484.917 175.48ZM490.993 172.06C491.353 171.433 491.886 170.913 492.593 170.5C493.313 170.073 494.146 169.86 495.093 169.86C496.066 169.86 496.946 170.093 497.733 170.56C498.533 171.027 499.159 171.687 499.613 172.54C500.066 173.38 500.293 174.36 500.293 175.48C500.293 176.587 500.066 177.573 499.613 178.44C499.159 179.307 498.533 179.98 497.733 180.46C496.946 180.94 496.066 181.18 495.093 181.18C494.159 181.18 493.333 180.973 492.613 180.56C491.906 180.133 491.366 179.607 490.993 178.98V186.2H489.173V170.04H490.993V172.06ZM498.433 175.48C498.433 174.653 498.266 173.933 497.933 173.32C497.599 172.707 497.146 172.24 496.573 171.92C496.013 171.6 495.393 171.44 494.713 171.44C494.046 171.44 493.426 171.607 492.853 171.94C492.293 172.26 491.839 172.733 491.493 173.36C491.159 173.973 490.993 174.687 490.993 175.5C490.993 176.327 491.159 177.053 491.493 177.68C491.839 178.293 492.293 178.767 492.853 179.1C493.426 179.42 494.046 179.58 494.713 179.58C495.393 179.58 496.013 179.42 496.573 179.1C497.146 178.767 497.599 178.293 497.933 177.68C498.266 177.053 498.433 176.32 498.433 175.48ZM507.468 181.18C506.442 181.18 505.508 180.947 504.668 180.48C503.842 180.013 503.188 179.353 502.708 178.5C502.242 177.633 502.008 176.633 502.008 175.5C502.008 174.38 502.248 173.393 502.728 172.54C503.222 171.673 503.888 171.013 504.728 170.56C505.568 170.093 506.508 169.86 507.548 169.86C508.588 169.86 509.528 170.093 510.368 170.56C511.208 171.013 511.868 171.667 512.348 172.52C512.842 173.373 513.088 174.367 513.088 175.5C513.088 176.633 512.835 177.633 512.328 178.5C511.835 179.353 511.162 180.013 510.308 180.48C509.455 180.947 508.508 181.18 507.468 181.18ZM507.468 179.58C508.122 179.58 508.735 179.427 509.308 179.12C509.882 178.813 510.342 178.353 510.688 177.74C511.048 177.127 511.228 176.38 511.228 175.5C511.228 174.62 511.055 173.873 510.708 173.26C510.362 172.647 509.908 172.193 509.348 171.9C508.788 171.593 508.182 171.44 507.528 171.44C506.862 171.44 506.248 171.593 505.688 171.9C505.142 172.193 504.702 172.647 504.368 173.26C504.035 173.873 503.868 174.62 503.868 175.5C503.868 176.393 504.028 177.147 504.348 177.76C504.682 178.373 505.122 178.833 505.668 179.14C506.215 179.433 506.815 179.58 507.468 179.58ZM517.301 171.82C517.621 171.193 518.075 170.707 518.661 170.36C519.261 170.013 519.988 169.84 520.841 169.84V171.72H520.361C518.321 171.72 517.301 172.827 517.301 175.04V181H515.481V170.04H517.301V171.82ZM525.162 171.54V178C525.162 178.533 525.276 178.913 525.502 179.14C525.729 179.353 526.122 179.46 526.682 179.46H528.022V181H526.382C525.369 181 524.609 180.767 524.102 180.3C523.596 179.833 523.342 179.067 523.342 178V171.54H521.922V170.04H523.342V167.28H525.162V170.04H528.022V171.54H525.162Z" fill="#F1F1F1"/>
<path d="M42.75 210L51.75 219L42.75 228V223.5H34.5C34.3011 223.5 34.1103 223.421 33.9697 223.28C33.829 223.14 33.75 222.949 33.75 222.75V215.25C33.75 215.051 33.829 214.86 33.9697 214.72C34.1103 214.579 34.3011 214.5 34.5 214.5H42.75V210Z" stroke="#F1F1F1" stroke-width="2" stroke-linecap="round" stroke-linejoin="round"/>
<path d="M74.12 212.06V213.54H70.32V226H68.5V213.54H64.68V212.06H74.12ZM81.1403 226.18C80.1136 226.18 79.1803 225.947 78.3403 225.48C77.5136 225.013 76.8603 224.353 76.3803 223.5C75.9136 222.633 75.6803 221.633 75.6803 220.5C75.6803 219.38 75.9203 218.393 76.4003 217.54C76.8936 216.673 77.5603 216.013 78.4003 215.56C79.2403 215.093 80.1803 214.86 81.2203 214.86C82.2603 214.86 83.2003 215.093 84.0403 215.56C84.8803 216.013 85.5403 216.667 86.0203 217.52C86.5136 218.373 86.7603 219.367 86.7603 220.5C86.7603 221.633 86.507 222.633 86.0003 223.5C85.507 224.353 84.8336 225.013 83.9803 225.48C83.127 225.947 82.1803 226.18 81.1403 226.18ZM81.1403 224.58C81.7936 224.58 82.407 224.427 82.9803 224.12C83.5536 223.813 84.0136 223.353 84.3603 222.74C84.7203 222.127 84.9003 221.38 84.9003 220.5C84.9003 219.62 84.727 218.873 84.3803 218.26C84.0336 217.647 83.5803 217.193 83.0203 216.9C82.4603 216.593 81.8536 216.44 81.2003 216.44C80.5336 216.44 79.9203 216.593 79.3603 216.9C78.8136 217.193 78.3736 217.647 78.0403 218.26C77.707 218.873 77.5403 219.62 77.5403 220.5C77.5403 221.393 77.7003 222.147 78.0203 222.76C78.3536 223.373 78.7936 223.833 79.3403 224.14C79.887 224.433 80.487 224.58 81.1403 224.58ZM95.2733 226L90.9733 221.16V226H89.1533V211.2H90.9733V219.9L95.1933 215.04H97.7333L92.5733 220.5L97.7533 226H95.2733ZM109.446 220.1C109.446 220.447 109.426 220.813 109.386 221.2H100.626C100.693 222.28 101.06 223.127 101.726 223.74C102.406 224.34 103.226 224.64 104.186 224.64C104.973 224.64 105.626 224.46 106.146 224.1C106.68 223.727 107.053 223.233 107.266 222.62H109.226C108.933 223.673 108.346 224.533 107.466 225.2C106.586 225.853 105.493 226.18 104.186 226.18C103.146 226.18 102.213 225.947 101.386 225.48C100.573 225.013 99.9329 224.353 99.4663 223.5C98.9996 222.633 98.7663 221.633 98.7663 220.5C98.7663 219.367 98.9929 218.373 99.4463 217.52C99.8996 216.667 100.533 216.013 101.346 215.56C102.173 215.093 103.12 214.86 104.186 214.86C105.226 214.86 106.146 215.087 106.946 215.54C107.746 215.993 108.36 216.62 108.786 217.42C109.226 218.207 109.446 219.1 109.446 220.1ZM107.566 219.72C107.566 219.027 107.413 218.433 107.106 217.94C106.8 217.433 106.38 217.053 105.846 216.8C105.326 216.533 104.746 216.4 104.106 216.4C103.186 216.4 102.4 216.693 101.746 217.28C101.106 217.867 100.74 218.68 100.646 219.72H107.566ZM117.189 214.84C118.522 214.84 119.602 215.247 120.429 216.06C121.255 216.86 121.669 218.02 121.669 219.54V226H119.869V219.8C119.869 218.707 119.595 217.873 119.049 217.3C118.502 216.713 117.755 216.42 116.809 216.42C115.849 216.42 115.082 216.72 114.509 217.32C113.949 217.92 113.669 218.793 113.669 219.94V226H111.849V215.04H113.669V216.6C114.029 216.04 114.515 215.607 115.129 215.3C115.755 214.993 116.442 214.84 117.189 214.84ZM132.242 217.9V219.44H124.262V217.9H132.242ZM140.177 214.86C141.124 214.86 141.951 215.067 142.657 215.48C143.377 215.893 143.911 216.413 144.257 217.04V215.04H146.097V226.24C146.097 227.24 145.884 228.127 145.457 228.9C145.031 229.687 144.417 230.3 143.617 230.74C142.831 231.18 141.911 231.4 140.857 231.4C139.417 231.4 138.217 231.06 137.257 230.38C136.297 229.7 135.731 228.773 135.557 227.6H137.357C137.557 228.267 137.971 228.8 138.597 229.2C139.224 229.613 139.977 229.82 140.857 229.82C141.857 229.82 142.671 229.507 143.297 228.88C143.937 228.253 144.257 227.373 144.257 226.24V223.94C143.897 224.58 143.364 225.113 142.657 225.54C141.951 225.967 141.124 226.18 140.177 226.18C139.204 226.18 138.317 225.94 137.517 225.46C136.731 224.98 136.111 224.307 135.657 223.44C135.204 222.573 134.977 221.587 134.977 220.48C134.977 219.36 135.204 218.38 135.657 217.54C136.111 216.687 136.731 216.027 137.517 215.56C138.317 215.093 139.204 214.86 140.177 214.86ZM144.257 220.5C144.257 219.673 144.091 218.953 143.757 218.34C143.424 217.727 142.971 217.26 142.397 216.94C141.837 216.607 141.217 216.44 140.537 216.44C139.857 216.44 139.237 216.6 138.677 216.92C138.117 217.24 137.671 217.707 137.337 218.32C137.004 218.933 136.837 219.653 136.837 220.48C136.837 221.32 137.004 222.053 137.337 222.68C137.671 223.293 138.117 223.767 138.677 224.1C139.237 224.42 139.857 224.58 140.537 224.58C141.217 224.58 141.837 224.42 142.397 224.1C142.971 223.767 143.424 223.293 143.757 222.68C144.091 222.053 144.257 221.327 144.257 220.5ZM148.493 220.48C148.493 219.36 148.719 218.38 149.173 217.54C149.626 216.687 150.246 216.027 151.033 215.56C151.833 215.093 152.719 214.86 153.693 214.86C154.653 214.86 155.486 215.067 156.193 215.48C156.899 215.893 157.426 216.413 157.773 217.04V215.04H159.613V226H157.773V223.96C157.413 224.6 156.873 225.133 156.153 225.56C155.446 225.973 154.619 226.18 153.673 226.18C152.699 226.18 151.819 225.94 151.033 225.46C150.246 224.98 149.626 224.307 149.173 223.44C148.719 222.573 148.493 221.587 148.493 220.48ZM157.773 220.5C157.773 219.673 157.606 218.953 157.273 218.34C156.939 217.727 156.486 217.26 155.913 216.94C155.353 216.607 154.733 216.44 154.053 216.44C153.373 216.44 152.753 216.6 152.193 216.92C151.633 217.24 151.186 217.707 150.853 218.32C150.519 218.933 150.353 219.653 150.353 220.48C150.353 221.32 150.519 222.053 150.853 222.68C151.186 223.293 151.633 223.767 152.193 224.1C152.753 224.42 153.373 224.58 154.053 224.58C154.733 224.58 155.353 224.42 155.913 224.1C156.486 223.767 156.939 223.293 157.273 222.68C157.606 222.053 157.773 221.327 157.773 220.5ZM164.908 216.54V223C164.908 223.533 165.022 223.913 165.248 224.14C165.475 224.353 165.868 224.46 166.428 224.46H167.768V226H166.128C165.115 226 164.355 225.767 163.848 225.3C163.342 224.833 163.088 224.067 163.088 223V216.54H161.668V215.04H163.088V212.28H164.908V215.04H167.768V216.54H164.908ZM179.974 220.1C179.974 220.447 179.954 220.813 179.914 221.2H171.154C171.22 222.28 171.587 223.127 172.254 223.74C172.934 224.34 173.754 224.64 174.714 224.64C175.5 224.64 176.154 224.46 176.674 224.1C177.207 223.727 177.58 223.233 177.794 222.62H179.754C179.46 223.673 178.874 224.533 177.994 225.2C177.114 225.853 176.02 226.18 174.714 226.18C173.674 226.18 172.74 225.947 171.914 225.48C171.1 225.013 170.46 224.353 169.994 223.5C169.527 222.633 169.294 221.633 169.294 220.5C169.294 219.367 169.52 218.373 169.974 217.52C170.427 216.667 171.06 216.013 171.874 215.56C172.7 215.093 173.647 214.86 174.714 214.86C175.754 214.86 176.674 215.087 177.474 215.54C178.274 215.993 178.887 216.62 179.314 217.42C179.754 218.207 179.974 219.1 179.974 220.1ZM178.094 219.72C178.094 219.027 177.94 218.433 177.634 217.94C177.327 217.433 176.907 217.053 176.374 216.8C175.854 216.533 175.274 216.4 174.634 216.4C173.714 216.4 172.927 216.693 172.274 217.28C171.634 217.867 171.267 218.68 171.174 219.72H178.094ZM181.696 220.48C181.696 219.36 181.923 218.38 182.376 217.54C182.829 216.687 183.449 216.027 184.236 215.56C185.036 215.093 185.929 214.86 186.916 214.86C187.769 214.86 188.563 215.06 189.296 215.46C190.029 215.847 190.589 216.36 190.976 217V211.2H192.816V226H190.976V223.94C190.616 224.593 190.083 225.133 189.376 225.56C188.669 225.973 187.843 226.18 186.896 226.18C185.923 226.18 185.036 225.94 184.236 225.46C183.449 224.98 182.829 224.307 182.376 223.44C181.923 222.573 181.696 221.587 181.696 220.48ZM190.976 220.5C190.976 219.673 190.809 218.953 190.476 218.34C190.143 217.727 189.689 217.26 189.116 216.94C188.556 216.607 187.936 216.44 187.256 216.44C186.576 216.44 185.956 216.6 185.396 216.92C184.836 217.24 184.389 217.707 184.056 218.32C183.723 218.933 183.556 219.653 183.556 220.48C183.556 221.32 183.723 222.053 184.056 222.68C184.389 223.293 184.836 223.767 185.396 224.1C185.956 224.42 186.576 224.58 187.256 224.58C187.936 224.58 188.556 224.42 189.116 224.1C189.689 223.767 190.143 223.293 190.476 222.68C190.809 222.053 190.976 221.327 190.976 220.5ZM200.544 220.48C200.544 219.36 200.77 218.38 201.224 217.54C201.677 216.687 202.297 216.027 203.084 215.56C203.884 215.093 204.777 214.86 205.764 214.86C206.617 214.86 207.41 215.06 208.144 215.46C208.877 215.847 209.437 216.36 209.824 217V211.2H211.664V226H209.824V223.94C209.464 224.593 208.93 225.133 208.224 225.56C207.517 225.973 206.69 226.18 205.744 226.18C204.77 226.18 203.884 225.94 203.084 225.46C202.297 224.98 201.677 224.307 201.224 223.44C200.77 222.573 200.544 221.587 200.544 220.48ZM209.824 220.5C209.824 219.673 209.657 218.953 209.324 218.34C208.99 217.727 208.537 217.26 207.964 216.94C207.404 216.607 206.784 216.44 206.104 216.44C205.424 216.44 204.804 216.6 204.244 216.92C203.684 217.24 203.237 217.707 202.904 218.32C202.57 218.933 202.404 219.653 202.404 220.48C202.404 221.32 202.57 222.053 202.904 222.68C203.237 223.293 203.684 223.767 204.244 224.1C204.804 224.42 205.424 224.58 206.104 224.58C206.784 224.58 207.404 224.42 207.964 224.1C208.537 223.767 208.99 223.293 209.324 222.68C209.657 222.053 209.824 221.327 209.824 220.5ZM224.739 220.1C224.739 220.447 224.719 220.813 224.679 221.2H215.919C215.986 222.28 216.353 223.127 217.019 223.74C217.699 224.34 218.519 224.64 219.479 224.64C220.266 224.64 220.919 224.46 221.439 224.1C221.973 223.727 222.346 223.233 222.559 222.62H224.519C224.226 223.673 223.639 224.533 222.759 225.2C221.879 225.853 220.786 226.18 219.479 226.18C218.439 226.18 217.506 225.947 216.679 225.48C215.866 225.013 215.226 224.353 214.759 223.5C214.293 222.633 214.059 221.633 214.059 220.5C214.059 219.367 214.286 218.373 214.739 217.52C215.193 216.667 215.826 216.013 216.639 215.56C217.466 215.093 218.413 214.86 219.479 214.86C220.519 214.86 221.439 215.087 222.239 215.54C223.039 215.993 223.653 216.62 224.079 217.42C224.519 218.207 224.739 219.1 224.739 220.1ZM222.859 219.72C222.859 219.027 222.706 218.433 222.399 217.94C222.093 217.433 221.673 217.053 221.139 216.8C220.619 216.533 220.039 216.4 219.399 216.4C218.479 216.4 217.693 216.693 217.039 217.28C216.399 217.867 216.033 218.68 215.939 219.72H222.859ZM231.222 224.32L234.622 215.04H236.562L232.262 226H230.142L225.842 215.04H227.802L231.222 224.32ZM248.353 220.1C248.353 220.447 248.333 220.813 248.293 221.2H239.533C239.599 222.28 239.966 223.127 240.633 223.74C241.313 224.34 242.133 224.64 243.093 224.64C243.879 224.64 244.533 224.46 245.053 224.1C245.586 223.727 245.959 223.233 246.173 222.62H248.133C247.839 223.673 247.253 224.533 246.373 225.2C245.493 225.853 244.399 226.18 243.093 226.18C242.053 226.18 241.119 225.947 240.293 225.48C239.479 225.013 238.839 224.353 238.373 223.5C237.906 222.633 237.673 221.633 237.673 220.5C237.673 219.367 237.899 218.373 238.353 217.52C238.806 216.667 239.439 216.013 240.253 215.56C241.079 215.093 242.026 214.86 243.093 214.86C244.133 214.86 245.053 215.087 245.853 215.54C246.653 215.993 247.266 216.62 247.693 217.42C248.133 218.207 248.353 219.1 248.353 220.1ZM246.473 219.72C246.473 219.027 246.319 218.433 246.013 217.94C245.706 217.433 245.286 217.053 244.753 216.8C244.233 216.533 243.653 216.4 243.013 216.4C242.093 216.4 241.306 216.693 240.653 217.28C240.013 217.867 239.646 218.68 239.553 219.72H246.473ZM252.575 211.2V226H250.755V211.2H252.575ZM260.457 226.18C259.43 226.18 258.497 225.947 257.657 225.48C256.83 225.013 256.177 224.353 255.697 223.5C255.23 222.633 254.997 221.633 254.997 220.5C254.997 219.38 255.237 218.393 255.717 217.54C256.21 216.673 256.877 216.013 257.717 215.56C258.557 215.093 259.497 214.86 260.537 214.86C261.577 214.86 262.517 215.093 263.357 215.56C264.197 216.013 264.857 216.667 265.337 217.52C265.83 218.373 266.077 219.367 266.077 220.5C266.077 221.633 265.823 222.633 265.317 223.5C264.823 224.353 264.15 225.013 263.297 225.48C262.443 225.947 261.497 226.18 260.457 226.18ZM260.457 224.58C261.11 224.58 261.723 224.427 262.297 224.12C262.87 223.813 263.33 223.353 263.677 222.74C264.037 222.127 264.217 221.38 264.217 220.5C264.217 219.62 264.043 218.873 263.697 218.26C263.35 217.647 262.897 217.193 262.337 216.9C261.777 216.593 261.17 216.44 260.517 216.44C259.85 216.44 259.237 216.593 258.677 216.9C258.13 217.193 257.69 217.647 257.357 218.26C257.023 218.873 256.857 219.62 256.857 220.5C256.857 221.393 257.017 222.147 257.337 222.76C257.67 223.373 258.11 223.833 258.657 224.14C259.203 224.433 259.803 224.58 260.457 224.58ZM270.29 217.06C270.65 216.433 271.183 215.913 271.89 215.5C272.61 215.073 273.443 214.86 274.39 214.86C275.363 214.86 276.243 215.093 277.03 215.56C277.83 216.027 278.456 216.687 278.91 217.54C279.363 218.38 279.59 219.36 279.59 220.48C279.59 221.587 279.363 222.573 278.91 223.44C278.456 224.307 277.83 224.98 277.03 225.46C276.243 225.94 275.363 226.18 274.39 226.18C273.456 226.18 272.63 225.973 271.91 225.56C271.203 225.133 270.663 224.607 270.29 223.98V231.2H268.47V215.04H270.29V217.06ZM277.73 220.48C277.73 219.653 277.563 218.933 277.23 218.32C276.896 217.707 276.443 217.24 275.87 216.92C275.31 216.6 274.69 216.44 274.01 216.44C273.343 216.44 272.723 216.607 272.15 216.94C271.59 217.26 271.136 217.733 270.79 218.36C270.456 218.973 270.29 219.687 270.29 220.5C270.29 221.327 270.456 222.053 270.79 222.68C271.136 223.293 271.59 223.767 272.15 224.1C272.723 224.42 273.343 224.58 274.01 224.58C274.69 224.58 275.31 224.42 275.87 224.1C276.443 223.767 276.896 223.293 277.23 222.68C277.563 222.053 277.73 221.32 277.73 220.48ZM291.985 220.1C291.985 220.447 291.965 220.813 291.925 221.2H283.165C283.232 222.28 283.599 223.127 284.265 223.74C284.945 224.34 285.765 224.64 286.725 224.64C287.512 224.64 288.165 224.46 288.685 224.1C289.219 223.727 289.592 223.233 289.805 222.62H291.765C291.472 223.673 290.885 224.533 290.005 225.2C289.125 225.853 288.032 226.18 286.725 226.18C285.685 226.18 284.752 225.947 283.925 225.48C283.112 225.013 282.472 224.353 282.005 223.5C281.539 222.633 281.305 221.633 281.305 220.5C281.305 219.367 281.532 218.373 281.985 217.52C282.439 216.667 283.072 216.013 283.885 215.56C284.712 215.093 285.659 214.86 286.725 214.86C287.765 214.86 288.685 215.087 289.485 215.54C290.285 215.993 290.899 216.62 291.325 217.42C291.765 218.207 291.985 219.1 291.985 220.1ZM290.105 219.72C290.105 219.027 289.952 218.433 289.645 217.94C289.339 217.433 288.919 217.053 288.385 216.8C287.865 216.533 287.285 216.4 286.645 216.4C285.725 216.4 284.939 216.693 284.285 217.28C283.645 217.867 283.279 218.68 283.185 219.72H290.105ZM296.208 216.82C296.528 216.193 296.981 215.707 297.568 215.36C298.168 215.013 298.894 214.84 299.748 214.84V216.72H299.268C297.228 216.72 296.208 217.827 296.208 220.04V226H294.388V215.04H296.208V216.82ZM306.501 220.48C306.501 219.36 306.727 218.38 307.181 217.54C307.634 216.687 308.254 216.027 309.041 215.56C309.841 215.093 310.727 214.86 311.701 214.86C312.661 214.86 313.494 215.067 314.201 215.48C314.907 215.893 315.434 216.413 315.781 217.04V215.04H317.621V226H315.781V223.96C315.421 224.6 314.881 225.133 314.161 225.56C313.454 225.973 312.627 226.18 311.681 226.18C310.707 226.18 309.827 225.94 309.041 225.46C308.254 224.98 307.634 224.307 307.181 223.44C306.727 222.573 306.501 221.587 306.501 220.48ZM315.781 220.5C315.781 219.673 315.614 218.953 315.281 218.34C314.947 217.727 314.494 217.26 313.921 216.94C313.361 216.607 312.741 216.44 312.061 216.44C311.381 216.44 310.761 216.6 310.201 216.92C309.641 217.24 309.194 217.707 308.861 218.32C308.527 218.933 308.361 219.653 308.361 220.48C308.361 221.32 308.527 222.053 308.861 222.68C309.194 223.293 309.641 223.767 310.201 224.1C310.761 224.42 311.381 224.58 312.061 224.58C312.741 224.58 313.361 224.42 313.921 224.1C314.494 223.767 314.947 223.293 315.281 222.68C315.614 222.053 315.781 221.327 315.781 220.5ZM320.016 220.5C320.016 219.367 320.243 218.38 320.696 217.54C321.15 216.687 321.776 216.027 322.576 215.56C323.39 215.093 324.316 214.86 325.356 214.86C326.703 214.86 327.81 215.187 328.676 215.84C329.556 216.493 330.136 217.4 330.416 218.56H328.456C328.27 217.893 327.903 217.367 327.356 216.98C326.823 216.593 326.156 216.4 325.356 216.4C324.316 216.4 323.476 216.76 322.836 217.48C322.196 218.187 321.876 219.193 321.876 220.5C321.876 221.82 322.196 222.84 322.836 223.56C323.476 224.28 324.316 224.64 325.356 224.64C326.156 224.64 326.823 224.453 327.356 224.08C327.89 223.707 328.256 223.173 328.456 222.48H330.416C330.123 223.6 329.536 224.5 328.656 225.18C327.776 225.847 326.676 226.18 325.356 226.18C324.316 226.18 323.39 225.947 322.576 225.48C321.776 225.013 321.15 224.353 320.696 223.5C320.243 222.647 320.016 221.647 320.016 220.5ZM332.165 220.5C332.165 219.367 332.391 218.38 332.845 217.54C333.298 216.687 333.925 216.027 334.725 215.56C335.538 215.093 336.465 214.86 337.505 214.86C338.851 214.86 339.958 215.187 340.825 215.84C341.705 216.493 342.285 217.4 342.565 218.56H340.605C340.418 217.893 340.051 217.367 339.505 216.98C338.971 216.593 338.305 216.4 337.505 216.4C336.465 216.4 335.625 216.76 334.985 217.48C334.345 218.187 334.025 219.193 334.025 220.5C334.025 221.82 334.345 222.84 334.985 223.56C335.625 224.28 336.465 224.64 337.505 224.64C338.305 224.64 338.971 224.453 339.505 224.08C340.038 223.707 340.405 223.173 340.605 222.48H342.565C342.271 223.6 341.685 224.5 340.805 225.18C339.925 225.847 338.825 226.18 337.505 226.18C336.465 226.18 335.538 225.947 334.725 225.48C333.925 225.013 333.298 224.353 332.845 223.5C332.391 222.647 332.165 221.647 332.165 220.5ZM354.993 220.1C354.993 220.447 354.973 220.813 354.933 221.2H346.173C346.24 222.28 346.606 223.127 347.273 223.74C347.953 224.34 348.773 224.64 349.733 224.64C350.52 224.64 351.173 224.46 351.693 224.1C352.226 223.727 352.6 223.233 352.813 222.62H354.773C354.48 223.673 353.893 224.533 353.013 225.2C352.133 225.853 351.04 226.18 349.733 226.18C348.693 226.18 347.76 225.947 346.933 225.48C346.12 225.013 345.48 224.353 345.013 223.5C344.546 222.633 344.313 221.633 344.313 220.5C344.313 219.367 344.54 218.373 344.993 217.52C345.446 216.667 346.08 216.013 346.893 215.56C347.72 215.093 348.666 214.86 349.733 214.86C350.773 214.86 351.693 215.087 352.493 215.54C353.293 215.993 353.906 216.62 354.333 217.42C354.773 218.207 354.993 219.1 354.993 220.1ZM353.113 219.72C353.113 219.027 352.96 218.433 352.653 217.94C352.346 217.433 351.926 217.053 351.393 216.8C350.873 216.533 350.293 216.4 349.653 216.4C348.733 216.4 347.946 216.693 347.293 217.28C346.653 217.867 346.286 218.68 346.193 219.72H353.113ZM361.275 226.18C360.435 226.18 359.682 226.04 359.015 225.76C358.349 225.467 357.822 225.067 357.435 224.56C357.049 224.04 356.835 223.447 356.795 222.78H358.675C358.729 223.327 358.982 223.773 359.435 224.12C359.902 224.467 360.509 224.64 361.255 224.64C361.949 224.64 362.495 224.487 362.895 224.18C363.295 223.873 363.495 223.487 363.495 223.02C363.495 222.54 363.282 222.187 362.855 221.96C362.429 221.72 361.769 221.487 360.875 221.26C360.062 221.047 359.395 220.833 358.875 220.62C358.369 220.393 357.929 220.067 357.555 219.64C357.195 219.2 357.015 218.627 357.015 217.92C357.015 217.36 357.182 216.847 357.515 216.38C357.849 215.913 358.322 215.547 358.935 215.28C359.549 215 360.249 214.86 361.035 214.86C362.249 214.86 363.229 215.167 363.975 215.78C364.722 216.393 365.122 217.233 365.175 218.3H363.355C363.315 217.727 363.082 217.267 362.655 216.92C362.242 216.573 361.682 216.4 360.975 216.4C360.322 216.4 359.802 216.54 359.415 216.82C359.029 217.1 358.835 217.467 358.835 217.92C358.835 218.28 358.949 218.58 359.175 218.82C359.415 219.047 359.709 219.233 360.055 219.38C360.415 219.513 360.909 219.667 361.535 219.84C362.322 220.053 362.962 220.267 363.455 220.48C363.949 220.68 364.369 220.987 364.715 221.4C365.075 221.813 365.262 222.353 365.275 223.02C365.275 223.62 365.109 224.16 364.775 224.64C364.442 225.12 363.969 225.5 363.355 225.78C362.755 226.047 362.062 226.18 361.275 226.18ZM371.725 226.18C370.885 226.18 370.131 226.04 369.465 225.76C368.798 225.467 368.271 225.067 367.885 224.56C367.498 224.04 367.285 223.447 367.245 222.78H369.125C369.178 223.327 369.431 223.773 369.885 224.12C370.351 224.467 370.958 224.64 371.705 224.64C372.398 224.64 372.945 224.487 373.345 224.18C373.745 223.873 373.945 223.487 373.945 223.02C373.945 222.54 373.731 222.187 373.305 221.96C372.878 221.72 372.218 221.487 371.325 221.26C370.511 221.047 369.845 220.833 369.325 220.62C368.818 220.393 368.378 220.067 368.005 219.64C367.645 219.2 367.465 218.627 367.465 217.92C367.465 217.36 367.631 216.847 367.965 216.38C368.298 215.913 368.771 215.547 369.385 215.28C369.998 215 370.698 214.86 371.485 214.86C372.698 214.86 373.678 215.167 374.425 215.78C375.171 216.393 375.571 217.233 375.625 218.3H373.805C373.765 217.727 373.531 217.267 373.105 216.92C372.691 216.573 372.131 216.4 371.425 216.4C370.771 216.4 370.251 216.54 369.865 216.82C369.478 217.1 369.285 217.467 369.285 217.92C369.285 218.28 369.398 218.58 369.625 218.82C369.865 219.047 370.158 219.233 370.505 219.38C370.865 219.513 371.358 219.667 371.985 219.84C372.771 220.053 373.411 220.267 373.905 220.48C374.398 220.68 374.818 220.987 375.165 221.4C375.525 221.813 375.711 222.353 375.725 223.02C375.725 223.62 375.558 224.16 375.225 224.64C374.891 225.12 374.418 225.5 373.805 225.78C373.205 226.047 372.511 226.18 371.725 226.18Z" fill="#F1F1F1"/>
<path d="M42.75 255L51.75 264L42.75 273V268.5H34.5C34.3011 268.5 34.1103 268.421 33.9697 268.28C33.829 268.14 33.75 267.949 33.75 267.75V260.25C33.75 260.051 33.829 259.86 33.9697 259.72C34.1103 259.579 34.3011 259.5 34.5 259.5H42.75V255Z" stroke="#F1F1F1" stroke-width="2" stroke-linecap="round" stroke-linejoin="round"/>
<path d="M74.12 257.06V258.54H70.32V271H68.5V258.54H64.68V257.06H74.12ZM75.6803 265.48C75.6803 264.36 75.907 263.38 76.3603 262.54C76.8136 261.687 77.4336 261.027 78.2203 260.56C79.0203 260.093 79.907 259.86 80.8803 259.86C81.8403 259.86 82.6736 260.067 83.3803 260.48C84.087 260.893 84.6136 261.413 84.9603 262.04V260.04H86.8003V271H84.9603V268.96C84.6003 269.6 84.0603 270.133 83.3403 270.56C82.6336 270.973 81.807 271.18 80.8603 271.18C79.887 271.18 79.007 270.94 78.2203 270.46C77.4336 269.98 76.8136 269.307 76.3603 268.44C75.907 267.573 75.6803 266.587 75.6803 265.48ZM84.9603 265.5C84.9603 264.673 84.7936 263.953 84.4603 263.34C84.127 262.727 83.6736 262.26 83.1003 261.94C82.5403 261.607 81.9203 261.44 81.2403 261.44C80.5603 261.44 79.9403 261.6 79.3803 261.92C78.8203 262.24 78.3736 262.707 78.0403 263.32C77.707 263.933 77.5403 264.653 77.5403 265.48C77.5403 266.32 77.707 267.053 78.0403 267.68C78.3736 268.293 78.8203 268.767 79.3803 269.1C79.9403 269.42 80.5603 269.58 81.2403 269.58C81.9203 269.58 82.5403 269.42 83.1003 269.1C83.6736 268.767 84.127 268.293 84.4603 267.68C84.7936 267.053 84.9603 266.327 84.9603 265.5ZM91.6959 262.08C92.0693 261.427 92.6159 260.893 93.3359 260.48C94.0559 260.067 94.8759 259.86 95.7959 259.86C96.7826 259.86 97.6693 260.093 98.4559 260.56C99.2426 261.027 99.8626 261.687 100.316 262.54C100.769 263.38 100.996 264.36 100.996 265.48C100.996 266.587 100.769 267.573 100.316 268.44C99.8626 269.307 99.2359 269.98 98.4359 270.46C97.6493 270.94 96.7693 271.18 95.7959 271.18C94.8493 271.18 94.0159 270.973 93.2959 270.56C92.5893 270.147 92.0559 269.62 91.6959 268.98V271H89.8759V256.2H91.6959V262.08ZM99.1359 265.48C99.1359 264.653 98.9693 263.933 98.6359 263.32C98.3026 262.707 97.8493 262.24 97.2759 261.92C96.7159 261.6 96.0959 261.44 95.4159 261.44C94.7493 261.44 94.1293 261.607 93.5559 261.94C92.9959 262.26 92.5426 262.733 92.1959 263.36C91.8626 263.973 91.6959 264.687 91.6959 265.5C91.6959 266.327 91.8626 267.053 92.1959 267.68C92.5426 268.293 92.9959 268.767 93.5559 269.1C94.1293 269.42 94.7493 269.58 95.4159 269.58C96.0959 269.58 96.7159 269.42 97.2759 269.1C97.8493 268.767 98.3026 268.293 98.6359 267.68C98.9693 267.053 99.1359 266.32 99.1359 265.48ZM105.212 256.2V271H103.392V256.2H105.212ZM118.313 265.1C118.313 265.447 118.293 265.813 118.253 266.2H109.493C109.56 267.28 109.927 268.127 110.593 268.74C111.273 269.34 112.093 269.64 113.053 269.64C113.84 269.64 114.493 269.46 115.013 269.1C115.547 268.727 115.92 268.233 116.133 267.62H118.093C117.8 268.673 117.213 269.533 116.333 270.2C115.453 270.853 114.36 271.18 113.053 271.18C112.013 271.18 111.08 270.947 110.253 270.48C109.44 270.013 108.8 269.353 108.333 268.5C107.867 267.633 107.633 266.633 107.633 265.5C107.633 264.367 107.86 263.373 108.313 262.52C108.767 261.667 109.4 261.013 110.213 260.56C111.04 260.093 111.987 259.86 113.053 259.86C114.093 259.86 115.013 260.087 115.813 260.54C116.613 260.993 117.227 261.62 117.653 262.42C118.093 263.207 118.313 264.1 118.313 265.1ZM116.433 264.72C116.433 264.027 116.28 263.433 115.973 262.94C115.667 262.433 115.247 262.053 114.713 261.8C114.193 261.533 113.613 261.4 112.973 261.4C112.053 261.4 111.267 261.693 110.613 262.28C109.973 262.867 109.607 263.68 109.513 264.72H116.433ZM122.536 256.2V271H120.716V256.2H122.536ZM124.958 265.48C124.958 264.36 125.184 263.38 125.638 262.54C126.091 261.687 126.711 261.027 127.498 260.56C128.298 260.093 129.184 259.86 130.158 259.86C131.118 259.86 131.951 260.067 132.658 260.48C133.364 260.893 133.891 261.413 134.238 262.04V260.04H136.078V271H134.238V268.96C133.878 269.6 133.338 270.133 132.618 270.56C131.911 270.973 131.084 271.18 130.138 271.18C129.164 271.18 128.284 270.94 127.498 270.46C126.711 269.98 126.091 269.307 125.638 268.44C125.184 267.573 124.958 266.587 124.958 265.48ZM134.238 265.5C134.238 264.673 134.071 263.953 133.738 263.34C133.404 262.727 132.951 262.26 132.378 261.94C131.818 261.607 131.198 261.44 130.518 261.44C129.838 261.44 129.218 261.6 128.658 261.92C128.098 262.24 127.651 262.707 127.318 263.32C126.984 263.933 126.818 264.653 126.818 265.48C126.818 266.32 126.984 267.053 127.318 267.68C127.651 268.293 128.098 268.767 128.658 269.1C129.218 269.42 129.838 269.58 130.518 269.58C131.198 269.58 131.818 269.42 132.378 269.1C132.951 268.767 133.404 268.293 133.738 267.68C134.071 267.053 134.238 266.327 134.238 265.5ZM144.493 259.84C145.827 259.84 146.907 260.247 147.733 261.06C148.56 261.86 148.973 263.02 148.973 264.54V271H147.173V264.8C147.173 263.707 146.9 262.873 146.353 262.3C145.807 261.713 145.06 261.42 144.113 261.42C143.153 261.42 142.387 261.72 141.813 262.32C141.253 262.92 140.973 263.793 140.973 264.94V271H139.153V260.04H140.973V261.6C141.333 261.04 141.82 260.607 142.433 260.3C143.06 259.993 143.747 259.84 144.493 259.84ZM151.266 265.48C151.266 264.36 151.493 263.38 151.946 262.54C152.4 261.687 153.02 261.027 153.806 260.56C154.606 260.093 155.5 259.86 156.486 259.86C157.34 259.86 158.133 260.06 158.866 260.46C159.6 260.847 160.16 261.36 160.546 262V256.2H162.386V271H160.546V268.94C160.186 269.593 159.653 270.133 158.946 270.56C158.24 270.973 157.413 271.18 156.466 271.18C155.493 271.18 154.606 270.94 153.806 270.46C153.02 269.98 152.4 269.307 151.946 268.44C151.493 267.573 151.266 266.587 151.266 265.48ZM160.546 265.5C160.546 264.673 160.38 263.953 160.046 263.34C159.713 262.727 159.26 262.26 158.686 261.94C158.126 261.607 157.506 261.44 156.826 261.44C156.146 261.44 155.526 261.6 154.966 261.92C154.406 262.24 153.96 262.707 153.626 263.32C153.293 263.933 153.126 264.653 153.126 265.48C153.126 266.32 153.293 267.053 153.626 267.68C153.96 268.293 154.406 268.767 154.966 269.1C155.526 269.42 156.146 269.58 156.826 269.58C157.506 269.58 158.126 269.42 158.686 269.1C159.26 268.767 159.713 268.293 160.046 267.68C160.38 267.053 160.546 266.327 160.546 265.5ZM170.114 265.5C170.114 264.367 170.341 263.38 170.794 262.54C171.247 261.687 171.874 261.027 172.674 260.56C173.487 260.093 174.414 259.86 175.454 259.86C176.801 259.86 177.907 260.187 178.774 260.84C179.654 261.493 180.234 262.4 180.514 263.56H178.554C178.367 262.893 178.001 262.367 177.454 261.98C176.921 261.593 176.254 261.4 175.454 261.4C174.414 261.4 173.574 261.76 172.934 262.48C172.294 263.187 171.974 264.193 171.974 265.5C171.974 266.82 172.294 267.84 172.934 268.56C173.574 269.28 174.414 269.64 175.454 269.64C176.254 269.64 176.921 269.453 177.454 269.08C177.987 268.707 178.354 268.173 178.554 267.48H180.514C180.221 268.6 179.634 269.5 178.754 270.18C177.874 270.847 176.774 271.18 175.454 271.18C174.414 271.18 173.487 270.947 172.674 270.48C171.874 270.013 171.247 269.353 170.794 268.5C170.341 267.647 170.114 266.647 170.114 265.5ZM187.722 271.18C186.696 271.18 185.762 270.947 184.922 270.48C184.096 270.013 183.442 269.353 182.962 268.5C182.496 267.633 182.262 266.633 182.262 265.5C182.262 264.38 182.502 263.393 182.982 262.54C183.476 261.673 184.142 261.013 184.982 260.56C185.822 260.093 186.762 259.86 187.802 259.86C188.842 259.86 189.782 260.093 190.622 260.56C191.462 261.013 192.122 261.667 192.602 262.52C193.096 263.373 193.342 264.367 193.342 265.5C193.342 266.633 193.089 267.633 192.582 268.5C192.089 269.353 191.416 270.013 190.562 270.48C189.709 270.947 188.762 271.18 187.722 271.18ZM187.722 269.58C188.376 269.58 188.989 269.427 189.562 269.12C190.136 268.813 190.596 268.353 190.942 267.74C191.302 267.127 191.482 266.38 191.482 265.5C191.482 264.62 191.309 263.873 190.962 263.26C190.616 262.647 190.162 262.193 189.602 261.9C189.042 261.593 188.436 261.44 187.782 261.44C187.116 261.44 186.502 261.593 185.942 261.9C185.396 262.193 184.956 262.647 184.622 263.26C184.289 263.873 184.122 264.62 184.122 265.5C184.122 266.393 184.282 267.147 184.602 267.76C184.936 268.373 185.376 268.833 185.922 269.14C186.469 269.433 187.069 269.58 187.722 269.58ZM208.915 259.84C209.769 259.84 210.529 260.02 211.195 260.38C211.862 260.727 212.389 261.253 212.775 261.96C213.162 262.667 213.355 263.527 213.355 264.54V271H211.555V264.8C211.555 263.707 211.282 262.873 210.735 262.3C210.202 261.713 209.475 261.42 208.555 261.42C207.609 261.42 206.855 261.727 206.295 262.34C205.735 262.94 205.455 263.813 205.455 264.96V271H203.655V264.8C203.655 263.707 203.382 262.873 202.835 262.3C202.302 261.713 201.575 261.42 200.655 261.42C199.709 261.42 198.955 261.727 198.395 262.34C197.835 262.94 197.555 263.813 197.555 264.96V271H195.735V260.04H197.555V261.62C197.915 261.047 198.395 260.607 198.995 260.3C199.609 259.993 200.282 259.84 201.015 259.84C201.935 259.84 202.749 260.047 203.455 260.46C204.162 260.873 204.689 261.48 205.035 262.28C205.342 261.507 205.849 260.907 206.555 260.48C207.262 260.053 208.049 259.84 208.915 259.84ZM229.521 259.84C230.374 259.84 231.134 260.02 231.801 260.38C232.467 260.727 232.994 261.253 233.381 261.96C233.767 262.667 233.961 263.527 233.961 264.54V271H232.161V264.8C232.161 263.707 231.887 262.873 231.341 262.3C230.807 261.713 230.081 261.42 229.161 261.42C228.214 261.42 227.461 261.727 226.901 262.34C226.341 262.94 226.061 263.813 226.061 264.96V271H224.261V264.8C224.261 263.707 223.987 262.873 223.441 262.3C222.907 261.713 222.181 261.42 221.261 261.42C220.314 261.42 219.561 261.727 219.001 262.34C218.441 262.94 218.161 263.813 218.161 264.96V271H216.341V260.04H218.161V261.62C218.521 261.047 219.001 260.607 219.601 260.3C220.214 259.993 220.887 259.84 221.621 259.84C222.541 259.84 223.354 260.047 224.061 260.46C224.767 260.873 225.294 261.48 225.641 262.28C225.947 261.507 226.454 260.907 227.161 260.48C227.867 260.053 228.654 259.84 229.521 259.84ZM246.666 260.04V271H244.846V269.38C244.5 269.94 244.013 270.38 243.386 270.7C242.773 271.007 242.093 271.16 241.346 271.16C240.493 271.16 239.726 270.987 239.046 270.64C238.366 270.28 237.826 269.747 237.426 269.04C237.04 268.333 236.846 267.473 236.846 266.46V260.04H238.646V266.22C238.646 267.3 238.92 268.133 239.466 268.72C240.013 269.293 240.76 269.58 241.706 269.58C242.68 269.58 243.446 269.28 244.006 268.68C244.566 268.08 244.846 267.207 244.846 266.06V260.04H246.666ZM255.079 259.84C256.413 259.84 257.493 260.247 258.319 261.06C259.146 261.86 259.559 263.02 259.559 264.54V271H257.759V264.8C257.759 263.707 257.486 262.873 256.939 262.3C256.393 261.713 255.646 261.42 254.699 261.42C253.739 261.42 252.973 261.72 252.399 262.32C251.839 262.92 251.559 263.793 251.559 264.94V271H249.739V260.04H251.559V261.6C251.919 261.04 252.406 260.607 253.019 260.3C253.646 259.993 254.333 259.84 255.079 259.84ZM263.472 258.26C263.126 258.26 262.832 258.14 262.592 257.9C262.352 257.66 262.232 257.367 262.232 257.02C262.232 256.673 262.352 256.38 262.592 256.14C262.832 255.9 263.126 255.78 263.472 255.78C263.806 255.78 264.086 255.9 264.312 256.14C264.552 256.38 264.672 256.673 264.672 257.02C264.672 257.367 264.552 257.66 264.312 257.9C264.086 258.14 263.806 258.26 263.472 258.26ZM264.352 260.04V271H262.532V260.04H264.352ZM269.674 261.54V268C269.674 268.533 269.787 268.913 270.014 269.14C270.241 269.353 270.634 269.46 271.194 269.46H272.534V271H270.894C269.881 271 269.121 270.767 268.614 270.3C268.107 269.833 267.854 269.067 267.854 268V261.54H266.434V260.04H267.854V257.28H269.674V260.04H272.534V261.54H269.674ZM284.179 260.04L277.579 276.16H275.699L277.859 270.88L273.439 260.04H275.459L278.899 268.92L282.299 260.04H284.179ZM302.301 271H300.481L293.161 259.9V271H291.341V257.04H293.161L300.481 268.12V257.04H302.301V271ZM313.283 257.06V258.54H307.223V263.24H312.143V264.72H307.223V271H305.403V257.06H313.283ZM324.061 257.06V258.54H320.261V271H318.441V258.54H314.621V257.06H324.061ZM330.954 265.48C330.954 264.36 331.18 263.38 331.634 262.54C332.087 261.687 332.707 261.027 333.494 260.56C334.294 260.093 335.187 259.86 336.174 259.86C337.027 259.86 337.82 260.06 338.554 260.46C339.287 260.847 339.847 261.36 340.234 262V256.2H342.074V271H340.234V268.94C339.874 269.593 339.34 270.133 338.634 270.56C337.927 270.973 337.1 271.18 336.154 271.18C335.18 271.18 334.294 270.94 333.494 270.46C332.707 269.98 332.087 269.307 331.634 268.44C331.18 267.573 330.954 266.587 330.954 265.48ZM340.234 265.5C340.234 264.673 340.067 263.953 339.734 263.34C339.4 262.727 338.947 262.26 338.374 261.94C337.814 261.607 337.194 261.44 336.514 261.44C335.834 261.44 335.214 261.6 334.654 261.92C334.094 262.24 333.647 262.707 333.314 263.32C332.98 263.933 332.814 264.653 332.814 265.48C332.814 266.32 332.98 267.053 333.314 267.68C333.647 268.293 334.094 268.767 334.654 269.1C335.214 269.42 335.834 269.58 336.514 269.58C337.194 269.58 337.814 269.42 338.374 269.1C338.947 268.767 339.4 268.293 339.734 267.68C340.067 267.053 340.234 266.327 340.234 265.5ZM346.969 261.82C347.289 261.193 347.743 260.707 348.329 260.36C348.929 260.013 349.656 259.84 350.509 259.84V261.72H350.029C347.989 261.72 346.969 262.827 346.969 265.04V271H345.149V260.04H346.969V261.82ZM357.39 271.18C356.364 271.18 355.43 270.947 354.59 270.48C353.764 270.013 353.11 269.353 352.63 268.5C352.164 267.633 351.93 266.633 351.93 265.5C351.93 264.38 352.17 263.393 352.65 262.54C353.144 261.673 353.81 261.013 354.65 260.56C355.49 260.093 356.43 259.86 357.47 259.86C358.51 259.86 359.45 260.093 360.29 260.56C361.13 261.013 361.79 261.667 362.27 262.52C362.764 263.373 363.01 264.367 363.01 265.5C363.01 266.633 362.757 267.633 362.25 268.5C361.757 269.353 361.084 270.013 360.23 270.48C359.377 270.947 358.43 271.18 357.39 271.18ZM357.39 269.58C358.044 269.58 358.657 269.427 359.23 269.12C359.804 268.813 360.264 268.353 360.61 267.74C360.97 267.127 361.15 266.38 361.15 265.5C361.15 264.62 360.977 263.873 360.63 263.26C360.284 262.647 359.83 262.193 359.27 261.9C358.71 261.593 358.104 261.44 357.45 261.44C356.784 261.44 356.17 261.593 355.61 261.9C355.064 262.193 354.624 262.647 354.29 263.26C353.957 263.873 353.79 264.62 353.79 265.5C353.79 266.393 353.95 267.147 354.27 267.76C354.604 268.373 355.044 268.833 355.59 269.14C356.137 269.433 356.737 269.58 357.39 269.58ZM367.223 262.06C367.583 261.433 368.117 260.913 368.823 260.5C369.543 260.073 370.377 259.86 371.323 259.86C372.297 259.86 373.177 260.093 373.963 260.56C374.763 261.027 375.39 261.687 375.843 262.54C376.297 263.38 376.523 264.36 376.523 265.48C376.523 266.587 376.297 267.573 375.843 268.44C375.39 269.307 374.763 269.98 373.963 270.46C373.177 270.94 372.297 271.18 371.323 271.18C370.39 271.18 369.563 270.973 368.843 270.56C368.137 270.133 367.597 269.607 367.223 268.98V276.2H365.403V260.04H367.223V262.06ZM374.663 265.48C374.663 264.653 374.497 263.933 374.163 263.32C373.83 262.707 373.377 262.24 372.803 261.92C372.243 261.6 371.623 261.44 370.943 261.44C370.277 261.44 369.657 261.607 369.083 261.94C368.523 262.26 368.07 262.733 367.723 263.36C367.39 263.973 367.223 264.687 367.223 265.5C367.223 266.327 367.39 267.053 367.723 267.68C368.07 268.293 368.523 268.767 369.083 269.1C369.657 269.42 370.277 269.58 370.943 269.58C371.623 269.58 372.243 269.42 372.803 269.1C373.377 268.767 373.83 268.293 374.163 267.68C374.497 267.053 374.663 266.32 374.663 265.48Z" fill="#F1F1F1"/>
</svg>
