<svg width="167" height="18" viewBox="0 0 167 18" fill="none" xmlns="http://www.w3.org/2000/svg">
<path d="M6.42963 0H21.5704C21.5704 7.94118 21.5704 13.2353 28 18H0C6.42963 13.2353 6.42963 7.94118 6.42963 0Z" fill="black"/>
<path d="M50.088 0.10791V2.93991H43.488V17.4359H39.6V2.93991H33V0.10791H50.088Z" fill="black"/>
<path d="M56.4799 11.9399C55.0879 11.9399 54.0159 12.0999 53.2639 12.4199C52.5279 12.7239 52.1599 13.2359 52.1599 13.9559C52.1599 14.1639 52.1999 14.3799 52.2799 14.6039C52.3759 14.8279 52.5279 15.0359 52.7359 15.2279C52.9599 15.4199 53.2479 15.5799 53.5999 15.7079C53.9519 15.8199 54.3919 15.8759 54.9199 15.8759C55.3679 15.8759 55.8559 15.8119 56.3839 15.6839C56.9119 15.5399 57.3999 15.3159 57.8479 15.0119C58.3119 14.6919 58.6959 14.2839 58.9999 13.7879C59.3039 13.2759 59.4639 12.6599 59.4799 11.9399H56.4799ZM63.1279 15.1559C63.1279 15.5559 63.1359 15.9319 63.1519 16.2839C63.1679 16.6359 63.1919 17.0199 63.2239 17.4359H59.8639C59.8319 17.1639 59.8079 16.8919 59.7919 16.6199C59.7759 16.3319 59.7679 16.0519 59.7679 15.7799C58.9999 16.5479 58.1439 17.0919 57.1999 17.4119C56.2719 17.7319 55.2239 17.8919 54.0559 17.8919C52.9999 17.8919 52.1039 17.7799 51.3679 17.5559C50.6479 17.3319 50.0639 17.0439 49.6159 16.6919C49.1839 16.3399 48.8639 15.9479 48.6559 15.5159C48.4639 15.0679 48.3679 14.6279 48.3679 14.1959C48.3679 13.2519 48.5759 12.4919 48.9919 11.9159C49.4239 11.3399 50.0079 10.8919 50.7439 10.5719C51.4799 10.2519 52.3439 10.0439 53.3359 9.94791C54.3439 9.83591 55.4239 9.77991 56.5759 9.77991H59.4799C59.4799 9.25191 59.3919 8.81191 59.2159 8.45991C59.0399 8.10791 58.7999 7.83591 58.4959 7.64391C58.1919 7.43591 57.8319 7.29191 57.4159 7.21191C57.0159 7.13191 56.5919 7.09191 56.1439 7.09191C55.2479 7.09191 54.5519 7.25991 54.0559 7.59591C53.5759 7.91591 53.2959 8.30791 53.2159 8.77191H49.4239C49.5199 8.00391 49.7759 7.37191 50.1919 6.87591C50.6239 6.37991 51.1599 5.98791 51.7999 5.69991C52.4399 5.41191 53.1439 5.21191 53.9119 5.09991C54.6799 4.98791 55.4559 4.93191 56.2399 4.93191C57.0879 4.93191 57.9199 5.00391 58.7359 5.14791C59.5679 5.29191 60.3039 5.55591 60.9439 5.93991C61.5999 6.32391 62.1279 6.85191 62.5279 7.52391C62.9279 8.19591 63.1279 9.05991 63.1279 10.1159V15.1559Z" fill="black"/>
<path d="M70.4049 11.4119C70.4049 11.9879 70.4929 12.5319 70.6689 13.0439C70.8609 13.5399 71.1249 13.9799 71.4609 14.3639C71.7969 14.7319 72.1969 15.0279 72.6609 15.2519C73.1409 15.4759 73.6689 15.5879 74.2449 15.5879C74.8209 15.5879 75.3409 15.4759 75.8049 15.2519C76.2849 15.0279 76.6929 14.7319 77.0289 14.3639C77.3649 13.9799 77.6209 13.5399 77.7969 13.0439C77.9889 12.5319 78.0849 11.9879 78.0849 11.4119C78.0849 10.8359 77.9889 10.2999 77.7969 9.80391C77.6209 9.29191 77.3649 8.85191 77.0289 8.48391C76.6929 8.09991 76.2849 7.79591 75.8049 7.57191C75.3409 7.34791 74.8209 7.23591 74.2449 7.23591C73.6689 7.23591 73.1409 7.34791 72.6609 7.57191C72.1969 7.79591 71.7969 8.09991 71.4609 8.48391C71.1249 8.85191 70.8609 9.29191 70.6689 9.80391C70.4929 10.2999 70.4049 10.8359 70.4049 11.4119ZM66.7569 0.10791H70.4049V7.04391H70.4529C71.0609 6.22791 71.8049 5.67591 72.6849 5.38791C73.5649 5.08391 74.4609 4.93191 75.3729 4.93191C75.7729 4.93191 76.2049 4.97191 76.6689 5.05191C77.1489 5.11591 77.6289 5.24391 78.1089 5.43591C78.5889 5.62791 79.0529 5.88391 79.5009 6.20391C79.9649 6.52391 80.3649 6.92391 80.7009 7.40391C81.0529 7.88391 81.3329 8.46791 81.5409 9.15591C81.7649 9.82791 81.8769 10.6119 81.8769 11.5079C81.8769 12.3559 81.7409 13.1719 81.4689 13.9559C81.1969 14.7239 80.7809 15.4039 80.2209 15.9959C79.6769 16.5719 78.9889 17.0359 78.1569 17.3879C77.3249 17.7239 76.3489 17.8919 75.2289 17.8919C74.7489 17.8919 74.2689 17.8519 73.7889 17.7719C73.3249 17.7079 72.8769 17.5959 72.4449 17.4359C72.0129 17.2599 71.6129 17.0359 71.2449 16.7639C70.8769 16.4919 70.5649 16.1639 70.3089 15.7799H70.2609C70.2609 16.0519 70.2529 16.3319 70.2369 16.6199C70.2209 16.8919 70.1969 17.1639 70.1649 17.4359H66.6609C66.6929 17.0999 66.7169 16.6679 66.7329 16.1399C66.7489 15.6119 66.7569 15.0999 66.7569 14.6039V0.10791Z" fill="black"/>
<path d="M88.29 0.10791V17.4359H84.642V0.10791H88.29Z" fill="black"/>
<path d="M102.736 10.0679C102.688 9.52391 102.552 9.06791 102.328 8.69991C102.104 8.31591 101.816 8.00391 101.464 7.76391C101.128 7.52391 100.736 7.35591 100.288 7.25991C99.8556 7.14791 99.3916 7.09191 98.8956 7.09191C98.4476 7.09191 98.0076 7.15591 97.5756 7.28391C97.1436 7.39591 96.7516 7.57191 96.3996 7.81191C96.0476 8.05191 95.7516 8.36391 95.5116 8.74791C95.2716 9.11591 95.1276 9.55591 95.0796 10.0679H102.736ZM95.0796 12.2279C95.0796 12.8519 95.1996 13.3879 95.4396 13.8359C95.6796 14.2839 95.9916 14.6519 96.3756 14.9399C96.7756 15.2119 97.2236 15.4119 97.7196 15.5399C98.2156 15.6679 98.7196 15.7319 99.2316 15.7319C99.5036 15.7319 99.7996 15.7079 100.12 15.6599C100.44 15.6119 100.744 15.5319 101.032 15.4199C101.32 15.2919 101.576 15.1319 101.8 14.9399C102.04 14.7319 102.208 14.4839 102.304 14.1959H106.192C106.096 14.9479 105.792 15.5639 105.28 16.0439C104.768 16.5239 104.16 16.8999 103.456 17.1719C102.752 17.4439 102.008 17.6279 101.224 17.7239C100.456 17.8359 99.7596 17.8919 99.1356 17.8919C97.5996 17.8919 96.3276 17.7079 95.3196 17.3399C94.3116 16.9719 93.5036 16.4919 92.8956 15.8999C92.3036 15.2919 91.8876 14.6039 91.6476 13.8359C91.4076 13.0519 91.2876 12.2439 91.2876 11.4119C91.2876 10.5799 91.4076 9.77991 91.6476 9.01191C91.8876 8.22791 92.3036 7.53991 92.8956 6.94791C93.5036 6.33991 94.3116 5.85191 95.3196 5.48391C96.3276 5.11591 97.5996 4.93191 99.1356 4.93191C99.9996 4.93191 100.872 5.04391 101.752 5.26791C102.632 5.47591 103.424 5.83591 104.128 6.34791C104.848 6.84391 105.424 7.51591 105.856 8.36391C106.304 9.19591 106.528 10.2359 106.528 11.4839V12.2279H95.0796Z" fill="black"/>
<path d="M113.181 0.10791V17.4359H109.533V0.10791H113.181Z" fill="black"/>
<path d="M124.05 11.9399C122.658 11.9399 121.586 12.0999 120.834 12.4199C120.098 12.7239 119.73 13.2359 119.73 13.9559C119.73 14.1639 119.77 14.3799 119.85 14.6039C119.946 14.8279 120.098 15.0359 120.306 15.2279C120.53 15.4199 120.818 15.5799 121.17 15.7079C121.522 15.8199 121.962 15.8759 122.49 15.8759C122.938 15.8759 123.426 15.8119 123.954 15.6839C124.482 15.5399 124.97 15.3159 125.418 15.0119C125.882 14.6919 126.266 14.2839 126.57 13.7879C126.874 13.2759 127.034 12.6599 127.05 11.9399H124.05ZM130.698 15.1559C130.698 15.5559 130.706 15.9319 130.722 16.2839C130.738 16.6359 130.762 17.0199 130.794 17.4359H127.434C127.402 17.1639 127.378 16.8919 127.362 16.6199C127.346 16.3319 127.338 16.0519 127.338 15.7799C126.57 16.5479 125.714 17.0919 124.77 17.4119C123.842 17.7319 122.794 17.8919 121.626 17.8919C120.57 17.8919 119.674 17.7799 118.938 17.5559C118.218 17.3319 117.634 17.0439 117.186 16.6919C116.754 16.3399 116.434 15.9479 116.226 15.5159C116.034 15.0679 115.938 14.6279 115.938 14.1959C115.938 13.2519 116.146 12.4919 116.562 11.9159C116.994 11.3399 117.578 10.8919 118.314 10.5719C119.05 10.2519 119.914 10.0439 120.906 9.94791C121.914 9.83591 122.994 9.77991 124.146 9.77991H127.05C127.05 9.25191 126.962 8.81191 126.786 8.45991C126.61 8.10791 126.37 7.83591 126.066 7.64391C125.762 7.43591 125.402 7.29191 124.986 7.21191C124.586 7.13191 124.162 7.09191 123.714 7.09191C122.818 7.09191 122.122 7.25991 121.626 7.59591C121.146 7.91591 120.866 8.30791 120.786 8.77191H116.994C117.09 8.00391 117.346 7.37191 117.762 6.87591C118.194 6.37991 118.73 5.98791 119.37 5.69991C120.01 5.41191 120.714 5.21191 121.482 5.09991C122.25 4.98791 123.026 4.93191 123.81 4.93191C124.658 4.93191 125.49 5.00391 126.306 5.14791C127.138 5.29191 127.874 5.55591 128.514 5.93991C129.17 6.32391 129.698 6.85191 130.098 7.52391C130.498 8.19591 130.698 9.05991 130.698 10.1159V15.1559Z" fill="black"/>
<path d="M134.495 8.24391C134.495 7.71591 134.487 7.20391 134.471 6.70791C134.455 6.21191 134.431 5.77191 134.399 5.38791H137.903C137.935 5.72391 137.959 6.05991 137.975 6.39591C137.991 6.71591 137.999 7.04391 137.999 7.37991H138.047C138.655 6.51591 139.375 5.89191 140.207 5.50791C141.055 5.12391 142.031 4.93191 143.135 4.93191C143.679 4.93191 144.271 5.01191 144.911 5.17191C145.551 5.33191 146.143 5.61191 146.687 6.01191C147.247 6.39591 147.711 6.91591 148.079 7.57191C148.463 8.22791 148.655 9.04391 148.655 10.0199V17.4359H145.007V11.0519C145.007 10.3159 144.927 9.70791 144.767 9.22791C144.607 8.74791 144.383 8.37191 144.095 8.09991C143.823 7.82791 143.495 7.64391 143.111 7.54791C142.727 7.43591 142.319 7.37991 141.887 7.37991C141.407 7.37991 140.943 7.46791 140.495 7.64391C140.047 7.80391 139.647 8.05991 139.295 8.41191C138.959 8.76391 138.679 9.20391 138.455 9.73191C138.247 10.2599 138.143 10.8919 138.143 11.6279V17.4359H134.495V8.24391Z" fill="black"/>
<path d="M162.965 11.4119C162.965 10.8359 162.869 10.2999 162.677 9.80391C162.501 9.29191 162.245 8.85191 161.909 8.48391C161.573 8.09991 161.165 7.79591 160.685 7.57191C160.221 7.34791 159.701 7.23591 159.125 7.23591C158.549 7.23591 158.021 7.34791 157.541 7.57191C157.077 7.79591 156.677 8.09991 156.341 8.48391C156.005 8.85191 155.741 9.29191 155.549 9.80391C155.373 10.2999 155.285 10.8359 155.285 11.4119C155.285 11.9879 155.373 12.5319 155.549 13.0439C155.741 13.5399 156.005 13.9799 156.341 14.3639C156.677 14.7319 157.077 15.0279 157.541 15.2519C158.021 15.4759 158.549 15.5879 159.125 15.5879C159.701 15.5879 160.221 15.4759 160.685 15.2519C161.165 15.0279 161.573 14.7319 161.909 14.3639C162.245 13.9799 162.501 13.5399 162.677 13.0439C162.869 12.5319 162.965 11.9879 162.965 11.4119ZM166.613 14.6039C166.613 15.0999 166.621 15.6119 166.637 16.1399C166.653 16.6679 166.677 17.0999 166.709 17.4359H163.205C163.173 17.1639 163.149 16.8919 163.133 16.6199C163.117 16.3319 163.109 16.0519 163.109 15.7799H163.061C162.805 16.1639 162.493 16.4919 162.125 16.7639C161.757 17.0359 161.357 17.2599 160.925 17.4359C160.493 17.5959 160.037 17.7079 159.557 17.7719C159.093 17.8519 158.621 17.8919 158.141 17.8919C157.021 17.8919 156.045 17.7239 155.213 17.3879C154.381 17.0359 153.685 16.5719 153.125 15.9959C152.581 15.4039 152.173 14.7239 151.901 13.9559C151.629 13.1719 151.493 12.3559 151.493 11.5079C151.493 10.6119 151.597 9.82791 151.805 9.15591C152.029 8.46791 152.309 7.88391 152.645 7.40391C152.997 6.92391 153.397 6.52391 153.845 6.20391C154.309 5.88391 154.781 5.62791 155.261 5.43591C155.741 5.24391 156.213 5.11591 156.677 5.05191C157.157 4.97191 157.597 4.93191 157.997 4.93191C158.909 4.93191 159.805 5.08391 160.685 5.38791C161.565 5.67591 162.309 6.22791 162.917 7.04391H162.965V0.10791H166.613V14.6039Z" fill="black"/>
</svg>
