<svg width="24" height="25" viewBox="0 0 24 25" fill="none" xmlns="http://www.w3.org/2000/svg">
<path d="M21.3889 11.86L7.8911 3.61102C7.77741 3.54154 7.64726 3.5036 7.51404 3.50111C7.38083 3.49861 7.24935 3.53165 7.13314 3.59683C7.01692 3.662 6.92017 3.75696 6.85283 3.87193C6.7855 3.9869 6.75 4.11774 6.75 4.25098V20.7488C6.75 20.8821 6.7855 21.0129 6.85283 21.1279C6.92017 21.2429 7.01692 21.3378 7.13314 21.403C7.24935 21.4682 7.38083 21.5012 7.51404 21.4987C7.64726 21.4962 7.77741 21.4583 7.8911 21.3888L21.3889 13.1399C21.4985 13.0729 21.5891 12.9788 21.652 12.8668C21.7148 12.7547 21.7478 12.6284 21.7478 12.4999C21.7478 12.3714 21.7148 12.2451 21.652 12.133C21.5891 12.021 21.4985 11.927 21.3889 11.86Z" stroke="#F1F1F1" stroke-width="2" stroke-linecap="round" stroke-linejoin="round"/>
</svg>
