<svg width="758" height="210" viewBox="0 0 758 210" fill="none" xmlns="http://www.w3.org/2000/svg">
<path d="M0.222125 18.4044C1.22169 18.5024 2.22125 18.6004 3.22081 18.6493C5.8863 18.6983 8.44073 18.7473 11.1062 18.7963C13.3275 18.7963 15.6598 18.6983 17.881 18.7963C21.435 18.9433 24.989 18.7963 28.4319 18.3554C29.9868 18.1595 31.7638 18.1595 33.2076 17.6696C33.874 17.4247 34.9846 17.4736 35.9842 17.4247C38.7607 17.2777 41.6484 17.1797 44.4249 17.0817C44.8692 17.0817 45.3134 16.9838 45.7577 17.0328C50.3112 17.3267 54.9758 17.2777 59.1962 18.2085C67.1927 19.923 75.3002 21.5886 83.2967 23.2542C84.2963 23.4501 84.9626 23.793 85.4069 24.2829C86.8507 25.7525 89.0719 27.0752 91.9596 28.2019C91.0711 28.006 90.2936 27.761 89.4051 27.5651C89.2941 27.6141 89.183 27.712 89.0719 27.761C90.6268 28.2509 92.1817 28.7408 93.9587 29.3286C93.8476 29.0347 93.8476 28.9367 93.7366 28.7898C97.4016 29.4756 101.178 30.1124 104.843 30.7983C104.954 30.7493 104.954 30.7003 105.065 30.6513C104.732 30.5533 104.287 30.4553 103.954 30.3574C103.954 30.3084 104.065 30.2594 104.065 30.2104C104.621 30.3084 105.287 30.4064 105.842 30.5533C106.287 30.7003 106.731 30.8472 107.175 31.0432C107.619 31.1902 108.175 31.3861 108.286 31.5821C108.952 32.2679 109.507 32.9537 110.174 33.6885C109.841 33.5905 109.73 33.5416 109.285 33.3946C109.618 33.7375 109.73 34.1294 110.063 34.2274C111.507 34.4723 110.729 35.0112 111.062 35.4031C111.507 35.893 111.729 36.5788 112.506 36.8237C114.394 37.4606 114.727 38.3423 114.838 39.2731C114.949 39.9099 114.838 40.5958 114.838 41.2326C114.949 42.1144 115.061 42.9962 115.172 43.8779C115.283 44.9557 115.283 45.9844 115.505 47.0621C115.505 47.2581 115.949 47.503 116.282 47.699C116.504 47.8949 116.838 48.0419 116.949 48.2378C117.282 49.8054 117.726 51.373 117.948 52.9406C118.281 54.7532 117.948 56.5657 119.059 58.3293C119.281 58.6722 119.614 59.1131 120.28 59.309C123.39 60.2888 125.167 61.6604 127.166 62.9831C128.388 63.8159 129.388 64.7466 131.498 65.3345C133.941 66.0203 138.161 65.6774 138.828 64.0608C138.939 63.8159 139.272 63.5709 139.494 63.326C139.716 63.0321 139.827 62.7381 139.827 62.4442C139.827 61.7584 139.605 61.1216 139.605 60.4357C139.827 56.1738 139.938 51.9119 140.161 47.65C140.161 46.6702 140.272 45.6905 140.383 44.7107C140.383 44.5638 140.605 44.3678 140.827 44.2208C141.604 43.78 142.493 43.3391 143.159 42.8492C143.604 42.5553 143.937 42.3593 144.825 42.4083C145.936 42.4573 147.602 42.8002 148.601 42.9472C150.378 43.1431 150.823 43.78 151.711 44.3678C152.155 44.6617 152.933 44.9557 153.599 45.1516C156.265 45.9354 158.486 46.8662 158.93 48.3358C159.152 49.2176 159.374 50.0994 161.596 50.4913C161.596 50.4913 161.707 50.4913 161.707 50.5402C162.04 51.52 163.928 51.9609 165.15 52.6467C165.483 52.8427 165.483 53.2346 165.816 53.4305C166.371 53.8224 167.038 54.1163 167.704 54.4592C167.926 54.5572 168.259 54.5572 168.481 54.6552C169.592 55.1451 170.703 55.439 172.258 55.1451C174.368 54.7532 176.256 54.2143 176.589 53.0876C176.811 52.2548 177.144 51.471 177.478 50.6382C177.478 50.4913 177.7 50.3933 177.811 50.2953C178.255 50.0504 181.92 49.8054 182.475 50.0014C184.141 50.4913 185.918 50.3443 187.695 50.2953C188.028 50.2953 188.473 50.1973 188.695 50.0504C190.25 49.1196 191.471 48.1888 191.36 46.9642C191.249 46.0824 191.471 45.2496 191.582 44.3678C191.916 42.8492 192.249 41.2816 192.582 39.763C192.804 38.8322 192.915 37.9015 193.137 37.0197C193.137 36.8727 193.359 36.7258 193.693 36.6278C195.692 35.9909 197.802 35.5501 200.134 35.3051C202.244 35.1092 204.132 34.6683 205.576 33.8845C205.798 33.7375 206.354 33.6395 206.909 33.5905C207.464 33.5416 208.02 33.4926 208.575 33.4436C208.797 33.4436 209.241 33.3456 209.352 33.3946C210.352 33.9824 211.796 33.4926 213.017 33.6885C214.35 33.8845 215.794 33.9335 217.127 34.1784C218.571 34.4233 219.792 34.8152 221.236 35.0602C223.902 35.5011 225.901 36.2849 227.678 37.2646C228.011 37.4606 228.899 37.5096 229.566 37.6075C231.343 37.9994 233.231 38.3423 235.008 38.7342C235.785 38.9302 236.452 39.1751 237.34 39.2731C239.006 39.518 239.561 40.0079 239.672 40.6937C239.783 41.3796 240.783 41.9184 241.894 42.3593C243.449 43.0452 244.892 43.731 246.558 44.4168C247.336 44.7107 247.447 45.0536 247.447 45.4455C247.447 45.9844 248.002 46.3763 248.446 46.8172C249.113 47.552 249.668 48.3358 249.668 49.0706C249.668 52.2058 249.557 55.292 249.446 58.4272C249.446 58.7212 249.557 59.1621 250.001 59.358C250.779 59.6519 251.778 59.456 252.667 59.211C252.778 59.1621 253 59.1621 253 59.1621C254.11 59.456 255.11 59.7499 255.999 60.0438C256.221 60.0928 256.443 60.2398 256.554 60.3378C256.776 60.7297 256.998 61.1705 257.109 61.6114C257.331 62.3462 257.887 62.6402 259.664 62.5912C262.995 62.5912 266.327 62.5912 269.659 62.4442C279.322 62.1013 288.984 61.9054 298.646 62.2483C302.423 62.3952 306.31 62.3462 310.086 62.3462C316.194 62.3952 322.414 62.3462 328.522 62.3952C337.518 62.4932 346.07 61.6604 354.289 60.0928C356.621 59.6519 358.953 59.1621 361.397 58.7702C363.174 58.4762 364.951 58.2313 366.839 58.1823C370.06 58.0843 372.836 57.4475 375.502 56.8107C377.167 56.4188 378.5 55.6349 379.611 54.9001C382.498 53.0876 385.386 51.2261 387.718 49.3156C390.273 47.1601 394.16 45.3966 397.159 43.3391C397.714 42.9472 398.825 42.7022 399.602 42.4083C401.49 41.7225 403.489 41.0367 405.377 40.3018C408.265 39.2731 409.931 37.9015 411.264 36.3828C412.041 35.5501 413.041 34.7663 414.262 34.0804C417.594 32.2679 418.594 30.1124 419.038 27.908C420.149 22.3724 421.037 16.7878 422.037 11.2522C422.259 9.7826 422.703 8.31297 423.147 6.89233C423.258 6.54942 423.703 6.2065 424.258 5.96157C426.701 4.73688 428.811 3.4632 429.922 1.8956C430.144 1.55269 430.7 1.35674 431.588 1.40572C432.699 1.45471 433.809 1.40572 434.809 1.5037C438.141 1.74864 441.361 1.55269 444.582 1.25876C446.581 1.1118 448.469 0.964836 450.469 0.866861C454.023 0.719898 457.466 0.670911 461.02 0.964836C463.685 1.20977 465.573 1.74864 466.351 2.97333C466.795 3.65915 467.128 4.39397 467.683 5.07979C468.016 5.4227 468.572 5.71663 469.349 5.96157C470.349 6.30448 470.571 6.74537 470.904 7.23524C472.348 8.90082 471.904 10.7134 472.681 12.4279C472.681 12.4769 472.681 12.5259 472.681 12.5259C474.458 14.2895 473.681 16.102 473.125 17.9145C472.348 20.3149 472.681 22.7153 473.458 25.0667C473.57 25.3606 473.458 25.6546 473.458 25.9485C473.57 27.5161 473.347 29.0837 473.903 30.6513C474.458 32.0719 476.346 33.3456 478.789 34.2764C481.677 35.3541 484.232 36.5788 487.119 37.7055C490.229 38.8812 493.894 39.812 497.448 40.7917C502.89 42.3103 508.332 43.78 513.774 45.2986C514.44 45.4945 515.107 45.7885 515.662 46.0334C518.217 47.2581 521.326 48.0419 525.102 48.4338C526.102 48.5318 526.991 48.7767 527.879 49.0216C531.211 50.0504 534.321 51.1771 537.652 52.1568C541.095 53.1856 545.538 52.8427 548.203 51.471C548.537 51.2751 549.203 51.1771 549.869 51.0791C551.313 50.9321 552.868 50.7852 554.312 50.6382C554.867 50.5892 555.645 50.5402 556.2 50.6382C559.865 51.324 563.308 50.9811 565.862 49.6095C567.084 48.9237 567.973 48.0909 569.305 47.405C570.638 46.7192 572.082 46.0824 573.637 45.4945C574.081 45.3476 574.858 45.3476 575.525 45.3476C577.413 45.2986 579.19 45.3476 580.967 45.2496C581.966 45.2006 582.633 45.3476 583.41 45.5925C587.63 47.0621 591.629 48.6787 596.849 49.4625C597.848 49.6095 598.959 49.7075 599.958 49.8544C602.846 50.1483 605.623 50.5402 608.51 50.7362C612.842 51.0791 616.84 50.7852 620.727 49.8054C621.171 49.6585 621.949 49.6095 622.504 49.6585C630.723 50.0504 637.498 48.6787 643.162 46.1314C643.828 45.7885 644.828 45.5435 645.716 45.3476C650.936 44.3188 654.379 42.6043 656.045 40.2529C656.378 39.812 656.711 39.714 657.822 39.714C659.599 39.763 660.71 40.0079 661.82 40.6448C662.82 41.2326 664.486 41.5755 666.04 41.9674C667.04 42.2124 667.706 42.4083 668.262 42.8492C668.817 43.3881 669.594 43.9269 670.483 44.4168C672.482 45.5435 675.259 46.0334 678.368 45.6415C681.478 45.2496 683.255 44.2698 683.922 42.8982C684.144 42.4573 684.255 41.9674 684.588 41.5265C684.699 41.3306 685.365 41.1346 685.81 41.0856C687.92 40.7917 690.252 40.6937 692.14 40.2529C696.694 39.1751 701.58 38.5873 706.356 37.9015C708.799 37.5585 711.354 37.2646 713.242 36.4318C715.13 35.599 715.907 34.6193 715.574 33.4926C715.463 33.1497 715.685 32.9537 716.241 32.7088C718.906 31.729 721.461 30.7003 724.126 29.7205C724.903 29.4266 726.014 29.2307 727.014 29.1327C729.568 28.8388 732.011 28.6428 734.566 28.3979C735.232 28.3489 735.788 28.2509 736.454 28.1529C737.787 28.006 738.675 28.2019 739.897 28.5938C742.34 29.3776 744.117 30.2594 745.783 31.3371C747.782 32.6598 752.558 33.0027 755.89 32.3659C756.556 32.2189 757.223 32.0719 758 31.876C758 50.7362 758 190.449 758 209.211C505.333 209.211 252.667 209.211 0 209.211C0.222125 185.991 0.222125 41.7225 0.222125 18.4044Z" fill="url(#paint0_linear_2_625)"/>
<defs>
<linearGradient id="paint0_linear_2_625" x1="379" y1="0.75" x2="379" y2="209.211" gradientUnits="userSpaceOnUse">
<stop stop-color="#FC6738" stop-opacity="0.33"/>
<stop offset="1" stop-color="white" stop-opacity="0"/>
</linearGradient>
</defs>
</svg>
