<svg width="141" height="30" viewBox="0 0 141 30" fill="none" xmlns="http://www.w3.org/2000/svg">
<path d="M10.0244 14.0668L0.679611 0.0153579L140.751 4.20256L127.79 27.8343L124.1 25.8711L117.898 28.0199L115.311 27.6813L109.355 29.2044L110.159 23.0599L108.669 21.8781L120.813 17.0532L117.903 16.6723L108.987 19.4526C109.001 19.3448 108.99 18.9267 108.833 18.1167C108.675 17.3067 108.154 16.6025 107.912 16.3516L102.442 17.9382L99.7428 15.9403L94.5956 17.5692L91.7349 15.5502L90.9341 14.1296L86.7994 15.5621L85.7945 14.4438L83.5654 15.1389L77.8577 12.2539L70.8683 14.1351L68.8932 12.8898L72.2829 10.8664L65.8573 9.69654C64.6338 10.2491 61.9753 12.2147 61.1301 15.6566C60.0737 19.9589 58.2104 20.3729 58.4779 19.5856C58.7454 18.7983 55.6612 13.4606 53.7707 11.5686C52.2584 10.0549 49.2931 9.33789 47.9995 9.1686L40.4708 6.37417L33.2004 7.88968C33.1606 7.77483 33.0656 7.41153 33.004 6.87717C32.9423 6.34281 31.0943 5.96939 30.178 5.84947L28.1107 6.56572C27.9727 5.94461 27.1793 4.63468 25.1095 4.36381C23.0398 4.09294 22.4366 7.1937 22.3938 8.77794L22.3514 9.10134C21.4543 7.99713 19.2551 5.86728 17.6351 6.18156C16.0151 6.49584 15.9183 9.24622 16.0724 10.5821C15.2876 9.87637 13.3946 8.42254 12.101 8.25325C10.8074 8.08395 10.1776 12.0584 10.0244 14.0668Z" fill="#FDE2A1"/>
</svg>
