<svg width="14" height="31" viewBox="0 0 14 31" fill="none" xmlns="http://www.w3.org/2000/svg">
<path d="M11.6326 4.80497L12.107 4.64686L11.6326 4.80497ZM5.18846 29.2928L4.98539 29.7497L5.18846 29.2928ZM2.23127 1.43518C3.60363 1.59353 5.71014 1.97429 7.55826 2.59646C8.48316 2.90782 9.32267 3.27286 9.96875 3.68806C10.6249 4.10972 11.018 4.54236 11.1583 4.96308L12.107 4.64686C11.8605 3.90763 11.2414 3.31727 10.5094 2.84681C9.76728 2.3699 8.8427 1.97372 7.87731 1.64872C5.94486 0.998165 3.76601 0.605631 2.3459 0.441772L2.23127 1.43518ZM11.1583 4.96308C11.622 6.35434 12.2623 9.8496 12.4624 13.5717C12.5622 15.4269 12.5514 17.3207 12.3592 19.0216C12.1659 20.7313 11.7936 22.2035 11.1985 23.245L12.0667 23.7411C12.7604 22.5271 13.1534 20.8981 13.3528 19.1339C13.5532 17.361 13.5626 15.4085 13.461 13.518C13.2584 9.74879 12.6098 6.15547 12.107 4.64686L11.1583 4.96308ZM11.1985 23.245C10.5417 24.3943 10.0153 25.371 9.51398 26.2319C9.01788 27.0838 8.58529 27.7522 8.15686 28.2365C7.73111 28.7178 7.34096 28.9809 6.93819 29.0788C6.53948 29.1756 6.05136 29.1291 5.39153 28.8359L4.98539 29.7497C5.77549 30.1008 6.49565 30.2154 7.17431 30.0505C7.84893 29.8866 8.40526 29.465 8.90586 28.8991C9.40378 28.3362 9.8774 27.595 10.3781 26.7351C10.8736 25.8843 11.4347 24.8472 12.0667 23.7411L11.1985 23.245ZM5.39153 28.8359C3.15973 27.8439 1.79379 26.3603 1.41578 25.7933L0.583731 26.348C1.06494 27.0699 2.57739 28.6794 4.98539 29.7497L5.39153 28.8359Z" fill="black"/>
</svg>
