<svg width="295" height="488" viewBox="0 0 295 488" fill="none" xmlns="http://www.w3.org/2000/svg">
<path d="M2.00003 -2.55274e-05L2.00002 119.409L2.00785e-05 119.409L3.05176e-05 -2.57023e-05L2.00003 -2.55274e-05ZM81 198.409L90.2338 198.409L90.2338 200.409L81 200.409L81 198.409ZM90.2338 198.409L214 198.409L214 200.409L90.2338 200.409L90.2338 198.409ZM295 279.409L295 488L293 488L293 279.409L295 279.409ZM214 198.409C258.735 198.409 295 234.674 295 279.409L293 279.409C293 235.778 257.63 200.409 214 200.409L214 198.409ZM2.00002 119.409C2.00002 163.039 37.3695 198.409 81 198.409L81 200.409C36.2649 200.409 1.61677e-05 164.144 2.00785e-05 119.409L2.00002 119.409Z" fill="black"/>
</svg>
