<svg width="863" height="238" viewBox="0 0 863 238" fill="none" xmlns="http://www.w3.org/2000/svg">
<path d="M0.252894 20.4266C1.39092 20.538 2.52894 20.6493 3.66696 20.705C6.70168 20.7607 9.60996 20.8164 12.6447 20.8721C15.1736 20.8721 17.829 20.7607 20.358 20.8721C24.4043 21.0391 28.4506 20.8721 32.3704 20.3709C34.1407 20.1481 36.1638 20.1481 37.8076 19.5913C38.5663 19.3128 39.8308 19.3685 40.9688 19.3128C44.13 19.1458 47.4176 19.0344 50.5788 18.923C51.0845 18.923 51.5903 18.8117 52.0961 18.8674C57.2804 19.2015 62.5912 19.1458 67.3962 20.2038C76.5004 22.1529 85.731 24.0462 94.8352 25.9396C95.9732 26.1623 96.7319 26.5521 97.2376 27.109C98.8815 28.7796 101.41 30.2831 104.698 31.5639C103.686 31.3412 102.801 31.0627 101.79 30.84C101.663 30.8957 101.537 31.007 101.41 31.0627C103.181 31.6196 104.951 32.1765 106.974 32.8447C106.848 32.5106 106.848 32.3992 106.721 32.2322C110.894 33.0118 115.193 33.7357 119.366 34.5153C119.492 34.4596 119.492 34.4039 119.619 34.3482C119.239 34.2369 118.734 34.1255 118.354 34.0141C118.354 33.9584 118.481 33.9028 118.481 33.8471C119.113 33.9584 119.872 34.0698 120.504 34.2369C121.01 34.4039 121.515 34.571 122.021 34.7937C122.527 34.9608 123.159 35.1836 123.286 35.4063C124.044 36.1859 124.677 36.9655 125.435 37.8008C125.056 37.6894 124.93 37.6338 124.424 37.4667C124.803 37.8565 124.93 38.302 125.309 38.4134C126.953 38.6918 126.068 39.3044 126.447 39.7499C126.953 40.3067 127.206 41.0863 128.091 41.3648C130.24 42.0887 130.62 43.0911 130.746 44.1491C130.873 44.873 130.746 45.6526 130.746 46.3766C130.873 47.3789 130.999 48.3813 131.125 49.3837C131.252 50.6088 131.252 51.7782 131.505 53.0033C131.505 53.226 132.011 53.5045 132.39 53.7272C132.643 53.95 133.022 54.117 133.149 54.3398C133.528 56.1217 134.034 57.9037 134.287 59.6857C134.666 61.7461 134.287 63.8065 135.551 65.8112C135.804 66.201 136.183 66.7022 136.942 66.9249C140.482 68.0387 142.506 69.5979 144.782 71.1015C146.173 72.0481 147.311 73.1062 149.713 73.7744C152.495 74.554 157.3 74.1642 158.059 72.3266C158.185 72.0481 158.564 71.7697 158.817 71.4913C159.07 71.1571 159.197 70.823 159.197 70.4889C159.197 69.7093 158.944 68.9854 158.944 68.2058C159.197 63.361 159.323 58.5163 159.576 53.6715C159.576 52.5578 159.702 51.4441 159.829 50.3303C159.829 50.1633 160.082 49.9405 160.335 49.7735C161.22 49.2723 162.231 48.7711 162.99 48.2142C163.496 47.8801 163.875 47.6574 164.887 47.7131C166.151 47.7687 168.048 48.1585 169.186 48.3256C171.209 48.5484 171.715 49.2723 172.726 49.9405C173.232 50.2746 174.117 50.6088 174.876 50.8315C177.911 51.7225 180.44 52.7805 180.945 54.4511C181.198 55.4535 181.451 56.4559 183.98 56.9014C183.98 56.9014 184.107 56.9014 184.107 56.957C184.486 58.0708 186.636 58.572 188.027 59.3516C188.406 59.5743 188.406 60.0198 188.785 60.2426C189.417 60.688 190.176 61.0222 190.935 61.412C191.188 61.5233 191.567 61.5233 191.82 61.6347C193.084 62.1916 194.349 62.5257 196.119 62.1916C198.522 61.7461 200.671 61.1335 201.051 59.8527C201.303 58.9061 201.683 58.0151 202.062 57.0684C202.062 56.9014 202.315 56.79 202.441 56.6786C202.947 56.4002 207.12 56.1217 207.752 56.3445C209.649 56.9014 211.672 56.7343 213.695 56.6786C214.075 56.6786 214.58 56.5672 214.833 56.4002C216.604 55.3421 217.994 54.2841 217.868 52.8919C217.742 51.8896 217.994 50.9429 218.121 49.9405C218.5 48.2142 218.88 46.4323 219.259 44.706C219.512 43.6479 219.638 42.5899 219.891 41.5875C219.891 41.4205 220.144 41.2534 220.523 41.142C222.799 40.4181 225.202 39.9169 227.857 39.6385C230.26 39.4157 232.409 38.9146 234.053 38.0236C234.306 37.8565 234.938 37.7451 235.571 37.6894C236.203 37.6338 236.835 37.5781 237.467 37.5224C237.72 37.5224 238.226 37.411 238.352 37.4667C239.49 38.1349 241.134 37.5781 242.525 37.8008C244.043 38.0236 245.686 38.0793 247.204 38.3577C248.847 38.6361 250.238 39.0816 251.882 39.3601C254.917 39.8612 257.193 40.7522 259.216 41.866C259.595 42.0887 260.607 42.1444 261.366 42.2558C263.389 42.7012 265.538 43.0911 267.562 43.5365C268.447 43.7593 269.205 44.0377 270.217 44.1491C272.114 44.4275 272.746 44.9844 272.872 45.764C272.999 46.5436 274.137 47.1562 275.401 47.6574C277.172 48.437 278.815 49.2166 280.712 49.9962C281.597 50.3303 281.724 50.7201 281.724 51.1656C281.724 51.7782 282.356 52.2237 282.862 52.7248C283.62 53.5602 284.253 54.4511 284.253 55.2864C284.253 58.8504 284.126 62.3586 284 65.9226C284 66.2567 284.126 66.7579 284.632 66.9806C285.517 67.3148 286.655 67.092 287.667 66.8136C287.793 66.7579 288.046 66.7579 288.046 66.7579C289.31 67.092 290.449 67.4261 291.46 67.7603C291.713 67.8159 291.966 67.983 292.092 68.0944C292.345 68.5399 292.598 69.041 292.725 69.5422C292.977 70.3775 293.61 70.7116 295.633 70.656C299.426 70.656 303.22 70.656 307.013 70.4889C318.014 70.0991 329.015 69.8763 340.016 70.2662C344.315 70.4332 348.741 70.3775 353.04 70.3775C359.994 70.4332 367.075 70.3775 374.03 70.4332C384.272 70.5446 394.009 69.5979 403.366 67.8159C406.021 67.3148 408.676 66.7579 411.458 66.3124C413.481 65.9783 415.504 65.6998 417.654 65.6442C421.321 65.5328 424.482 64.8089 427.517 64.0849C429.414 63.6394 430.931 62.7485 432.195 61.9132C435.483 59.8527 438.771 57.7367 441.426 55.5649C444.334 53.1147 448.76 51.1099 452.174 48.7711C452.806 48.3256 454.071 48.0472 454.956 47.7131C457.105 46.9334 459.382 46.1538 461.531 45.3185C464.819 44.1491 466.715 42.5899 468.233 40.8636C469.118 39.9169 470.256 39.0259 471.647 38.2463C475.44 36.1859 476.578 33.7357 477.084 31.2298C478.349 24.9372 479.36 18.5889 480.498 12.2963C480.751 10.6257 481.257 8.95513 481.763 7.34021C481.889 6.95041 482.395 6.5606 483.027 6.28217C485.809 4.89 488.211 3.44215 489.476 1.66017C489.729 1.27037 490.361 1.04762 491.373 1.10331C492.637 1.15899 493.902 1.10331 495.04 1.21468C498.833 1.49311 502.5 1.27037 506.167 0.936246C508.443 0.769186 510.593 0.602126 512.869 0.490752C516.915 0.323692 520.835 0.268005 524.881 0.602126C527.916 0.880559 530.065 1.49311 530.951 2.88528C531.456 3.66489 531.836 4.50019 532.468 5.27981C532.847 5.66961 533.479 6.00373 534.365 6.28217C535.503 6.67197 535.755 7.17315 536.135 7.73002C537.779 9.62337 537.273 11.6838 538.158 13.6328C538.158 13.6885 538.158 13.7442 538.158 13.7442C540.181 15.7489 539.296 17.8093 538.664 19.8697C537.779 22.5984 538.158 25.327 539.043 28C539.17 28.3341 539.043 28.6682 539.043 29.0023C539.17 30.7843 538.917 32.5663 539.549 34.3482C540.181 35.9632 542.331 37.411 545.113 38.4691C548.4 39.6942 551.308 41.0863 554.596 42.3671C558.137 43.7036 562.309 44.7617 566.356 45.8754C572.552 47.6017 578.747 49.2723 584.943 50.9986C585.702 51.2213 586.461 51.5554 587.093 51.8339C590.001 53.226 593.542 54.117 597.841 54.5625C598.979 54.6739 599.99 54.9523 601.002 55.2308C604.795 56.4002 608.336 57.681 612.129 58.7947C616.049 59.9641 621.107 59.5743 624.142 58.0151C624.521 57.7923 625.28 57.681 626.039 57.5696C627.682 57.4025 629.453 57.2355 631.096 57.0684C631.729 57.0127 632.614 56.957 633.246 57.0684C637.419 57.848 641.339 57.4582 644.247 55.899C645.638 55.1194 646.649 54.1727 648.167 53.3931C649.684 52.6135 651.328 51.8896 653.098 51.2213C653.604 51.0543 654.489 51.0543 655.248 51.0543C657.397 50.9986 659.421 51.0543 661.444 50.9429C662.582 50.8872 663.34 51.0543 664.225 51.3327C669.03 53.0033 673.583 54.8409 679.526 55.7319C680.664 55.899 681.928 56.0104 683.066 56.1774C686.354 56.5115 689.515 56.957 692.803 57.1798C697.734 57.5696 702.286 57.2355 706.712 56.1217C707.218 55.9547 708.103 55.899 708.735 55.9547C718.092 56.4002 725.805 54.8409 732.254 51.9452C733.013 51.5554 734.151 51.277 735.162 51.0543C741.105 49.8848 745.025 47.9358 746.922 45.2628C747.301 44.7617 747.68 44.6503 748.945 44.6503C750.968 44.706 752.233 44.9844 753.497 45.7083C754.635 46.3766 756.532 46.7664 758.302 47.2119C759.44 47.4903 760.199 47.7131 760.831 48.2142C761.463 48.8268 762.348 49.4393 763.36 49.9962C765.636 51.277 768.797 51.8339 772.338 51.3884C775.878 50.9429 777.901 49.8291 778.66 48.2699C778.913 47.7687 779.039 47.2119 779.419 46.7107C779.545 46.4879 780.304 46.2652 780.81 46.2095C783.212 45.8754 785.867 45.764 788.017 45.2628C793.201 44.0377 798.765 43.3695 804.202 42.5899C806.984 42.2001 809.892 41.866 812.042 40.9193C814.192 39.9726 815.077 38.8589 814.697 37.5781C814.571 37.1883 814.824 36.9655 815.456 36.6871C818.491 35.5734 821.399 34.4039 824.434 33.2902C825.319 32.9561 826.583 32.7333 827.721 32.622C830.63 32.2878 833.411 32.0651 836.32 31.7867C837.078 31.731 837.711 31.6196 838.469 31.5082C839.987 31.3412 840.998 31.5639 842.389 32.0094C845.171 32.9004 847.194 33.9028 849.091 35.1279C851.367 36.6314 856.804 37.0212 860.598 36.2973C861.356 36.1302 862.115 35.9632 863 35.7404C863 57.1798 863 215.998 863 237.326C575.333 237.326 287.667 237.326 0 237.326C0.252894 210.931 0.252894 46.9334 0.252894 20.4266Z" fill="url(#paint0_linear_2_578)"/>
<defs>
<linearGradient id="paint0_linear_2_578" x1="431.5" y1="0.35791" x2="431.5" y2="237.326" gradientUnits="userSpaceOnUse">
<stop stop-color="#FC6738" stop-opacity="0.33"/>
<stop offset="1" stop-color="white" stop-opacity="0"/>
</linearGradient>
</defs>
</svg>
