<svg width="572" height="63" viewBox="0 0 572 63" fill="none" xmlns="http://www.w3.org/2000/svg">
<mask id="path-1-inside-1_103_646" fill="white">
<path d="M0 0H572V0C572 14.3807 560.868 26.3072 546.521 27.2969L32.0647 62.7879C14.7246 63.9842 0 50.2405 0 32.8591L0 0Z"/>
</mask>
<path d="M0 0H572V0C572 14.3807 560.868 26.3072 546.521 27.2969L32.0647 62.7879C14.7246 63.9842 0 50.2405 0 32.8591L0 0Z" fill="black"/>
<path d="M0 0V-2H-2V0L0 0ZM32.0647 62.7879L31.9271 60.7927L32.0647 62.7879ZM546.521 27.2969L546.384 25.3017L546.521 27.2969ZM0 2H572V-2H0V2ZM546.384 25.3017L31.9271 60.7927L32.2024 64.7832L546.659 29.2922L546.384 25.3017ZM2 32.8591V0L-2 0V32.8591H2ZM31.9271 60.7927C15.7429 61.9092 2 49.0817 2 32.8591H-2C-2 51.3992 13.7062 66.0592 32.2024 64.7832L31.9271 60.7927ZM570 0C570 13.3295 559.682 24.3843 546.384 25.3017L546.659 29.2922C562.054 28.2301 574 15.4318 574 0H570Z" fill="black" mask="url(#path-1-inside-1_103_646)"/>
</svg>
