<svg width="277" height="78" viewBox="0 0 277 78" fill="none" xmlns="http://www.w3.org/2000/svg">
<mask id="path-1-inside-1_103_57" fill="white">
<path d="M0 0H277V7.57654C277 22.0741 266.633 34.4975 252.369 37.0922L35.3691 76.5661C16.9531 79.9161 0 65.7686 0 47.0505L0 0Z"/>
</mask>
<path d="M0 0H277V7.57654C277 22.0741 266.633 34.4975 252.369 37.0922L35.3691 76.5661C16.9531 79.9161 0 65.7686 0 47.0505L0 0Z" fill="black"/>
<path d="M0 0V-2H-2V0L0 0ZM277 0H279V-2H277V0ZM252.369 37.0922L252.727 39.0599L252.369 37.0922ZM0 2H277V-2H0V2ZM275 0V7.57654H279V0H275ZM252.011 35.1245L35.0112 74.5984L35.727 78.5338L252.727 39.0599L252.011 35.1245ZM2 47.0505V0L-2 0V47.0505H2ZM35.0112 74.5984C17.8229 77.7251 2 64.5208 2 47.0505H-2C-2 67.0165 16.0833 82.1071 35.727 78.5338L35.0112 74.5984ZM275 7.57654C275 21.1076 265.324 32.7028 252.011 35.1245L252.727 39.0599C267.941 36.2923 279 23.0407 279 7.57654H275Z" fill="black" mask="url(#path-1-inside-1_103_57)"/>
</svg>
