<svg width="134" height="134" viewBox="0 0 134 134" fill="none" xmlns="http://www.w3.org/2000/svg">
<path d="M0 67C0 29.9969 29.9969 0 67 0H134V134H67C29.9969 134 0 104.003 0 67V67Z" fill="black"/>
<path d="M47.09 84C45.26 84 43.685 83.355 42.365 82.065C41.075 80.745 40.43 79.17 40.43 77.34V58.26C40.43 56.43 41.075 54.87 42.365 53.58C43.685 52.26 45.26 51.6 47.09 51.6H66.125C67.955 51.6 69.53 52.26 70.85 53.58C72.17 54.87 72.83 56.43 72.83 58.26V76.98H76.52V84H47.09ZM48.89 76.98H64.28C65.27 76.98 65.765 76.98 65.765 76.98C65.765 76.98 65.765 76.485 65.765 75.495V60.105C65.765 59.115 65.765 58.62 65.765 58.62C65.765 58.62 65.27 58.62 64.28 58.62H48.89C47.9 58.62 47.405 58.62 47.405 58.62C47.405 58.62 47.405 59.115 47.405 60.105V75.495C47.405 76.485 47.405 76.98 47.405 76.98C47.405 76.98 47.9 76.98 48.89 76.98ZM88.4355 84V62.085L86.9505 63.93H77.8155L88.1655 51.6H95.3205V84H88.4355Z" fill="#F1F1F1"/>
</svg>
