<svg width="680" height="376" viewBox="0 0 680 376" fill="none" xmlns="http://www.w3.org/2000/svg">
<g style="mix-blend-mode:darken">
<path d="M0 6.56443C3.34713 6.49028 6.69426 6.37906 10.1175 6.30491C9.623 7.71371 10.4217 8.26981 11.6769 8.86298C12.9701 9.45616 14.0732 10.4942 15.2523 11.3469C15.4044 11.4581 15.4805 11.7176 15.5566 11.9401C15.9749 13.1635 16.3553 14.3869 16.9258 15.5733C17.4583 14.7206 17.8006 14.0162 19.0178 14.3128C19.9306 14.5352 20.273 14.8318 20.273 15.7216C20.273 16.3148 20.1969 17.0933 20.5392 17.5011C22.2128 19.5031 21.1478 22.7655 23.9624 24.2485C24.4949 24.5451 24.7992 25.5461 24.9133 26.2505C25.1415 28.0671 25.0654 29.9207 25.3697 31.7003C25.7501 33.9617 26.3206 36.1861 26.9292 38.4106C27.0813 38.9296 27.6899 39.3745 28.1844 39.7081C29.4776 40.672 30.7327 41.7101 32.1781 42.4886C33.9658 43.4896 35.7154 44.4906 37.8834 44.9355C40.5079 45.4916 43.0182 45.2321 45.5286 44.9355C46.3654 44.8243 47.1641 44.3423 47.9629 44.0087C48.4954 43.7862 49.0279 43.5638 49.5984 43.3413C49.9027 43.193 50.4352 43.156 50.5112 42.9335C51.0437 41.4877 52.5652 41.6359 53.5541 40.9686C54.581 40.3013 55.8743 39.7823 55.9503 38.2623C55.9503 38.0027 56.2926 37.6691 56.5589 37.5579C57.1675 37.2613 57.8141 37.113 58.4226 36.8164C58.7269 36.6681 59.1453 36.4457 59.1834 36.2232C59.3735 34.4437 60.895 33.9988 62.1121 33.1832C62.4164 32.9608 62.5305 32.3305 62.5305 31.8485C62.4924 28.6973 62.4164 25.509 62.3023 22.3577C62.2262 20.9489 61.8839 19.5772 61.9219 18.1684C61.9599 17.0191 61.8839 15.7216 62.9108 14.7577C63.4433 14.2757 63.7857 13.6084 64.2421 13.0152C65.8396 13.423 64.5844 15.0172 65.4973 15.6845C66.5242 15.3879 67.399 16.2035 67.5892 17.7235C67.6272 18.0201 67.5892 18.3538 67.6653 18.6504C67.7413 19.0582 67.8174 19.7255 68.0456 19.7997C69.2628 20.1704 69.491 21.6533 70.6701 21.987C70.8983 22.0611 71.2026 22.2836 71.3167 22.2094C72.3817 21.4309 72.9142 22.1353 73.5608 22.8397C73.9792 23.2846 74.9681 22.7285 75.0442 21.9499C75.1203 20.8748 75.8049 20.2816 76.3754 19.5031C77.2502 18.3167 78.3913 18.7245 79.3422 19.0211C79.9508 19.2065 80.7495 19.9109 80.8636 20.5041C81.3581 22.8768 81.6243 25.3236 81.9286 27.7334C82.0808 29.068 82.0808 30.4027 82.1188 31.7373C82.1568 32.9978 83.374 34.9256 84.6292 35.3705C85.58 35.7042 86.1886 36.1861 86.4168 37.2242C86.6831 38.4476 88.0524 39.2632 89.3836 39.152C90.2584 39.0779 90.8289 39.3003 91.5136 39.9676C92.2363 40.635 93.3773 40.9316 94.4043 41.0798C95.6975 41.3023 97.0287 41.3023 98.36 41.2281C99.9195 41.154 100.528 41.5618 100.718 43.0818C100.794 43.4896 100.87 43.8974 100.984 44.3052C101.175 45.0096 101.517 45.3062 102.202 44.676C102.962 44.0087 104.294 44.0828 105.092 44.7501C106.081 45.5287 108.592 45.9735 109.314 45.0838C109.961 44.2682 111.254 43.7862 111.292 42.4145C111.292 41.9696 112.015 41.4135 112.509 41.154C113.27 40.7833 114.145 40.635 114.982 40.4496C116.008 40.2642 116.275 39.5228 116.617 38.7071C116.845 38.2252 117.302 37.7432 117.758 37.4837C118.557 37.0388 119.356 36.7052 119.47 35.63C119.508 35.3705 119.85 35.0739 120.078 34.9256C120.154 34.8886 120.535 35.1481 120.687 35.3335C121.448 36.2603 123.654 36.4827 124.148 35.4447C125.099 33.4056 126.849 33.591 128.56 33.3315C129.017 33.2573 129.549 33.2203 129.891 32.9608C131.223 31.9598 132.782 32.2564 134.266 32.1822C134.76 32.1451 135.369 32.2193 135.749 31.9968C138.83 30.1061 142.291 30.4027 145.638 30.1802C146.779 30.1061 147.958 30.1802 149.252 30.1802C149.252 30.2173 149.366 30.0319 149.366 29.8837C149.48 27.3627 149.594 24.8417 149.632 22.3207C149.67 19.948 149.632 17.5753 149.708 15.2025C149.708 14.8318 150.241 14.4611 150.507 14.0903C150.773 14.4611 151.077 14.7577 151.229 15.1655C151.382 15.5733 151.305 16.0182 151.305 16.426C151.534 16.463 151.648 16.5372 151.686 16.5001C153.169 15.7587 153.093 15.7957 153.968 17.2045C154.5 18.0943 155.223 18.9099 155.794 19.7626C155.984 20.0592 155.984 20.467 155.984 20.8377C155.984 21.8387 156.06 22.8397 157.049 23.5441C157.239 23.3216 157.391 23.1363 157.619 22.988C158.076 22.6172 158.494 22.6172 158.646 23.2846C158.76 23.7295 158.799 24.1743 158.799 24.6563C158.799 28.2895 158.684 31.9227 158.799 35.5188C158.837 36.2603 159.445 37.0018 159.94 37.6691C160.32 38.151 160.852 38.633 161.423 38.8184C162.564 39.2632 162.982 40.0047 163.059 41.154C163.059 41.4877 163.439 41.8955 163.743 42.1179C165.835 43.675 168.155 44.4165 170.856 44.3794C172.529 44.3794 174.203 44.7872 175.876 45.1209C176.219 45.195 176.599 45.677 176.675 46.0106C176.98 47.3823 177.778 48.0497 179.148 48.6058C181.163 49.4585 183.217 49.6438 185.347 49.718C187.972 49.8292 190.596 50.1629 193.221 50.1999C195.389 50.237 197.367 50.9414 199.459 51.3121C200.524 51.4975 201.627 51.6087 202.73 51.6087C204.213 51.6087 205.696 51.4233 207.18 51.3492C207.636 51.3121 208.131 51.3863 208.587 51.4233C211.135 51.5346 213.684 51.7199 216.232 51.7941C217.792 51.8312 219.351 51.8682 220.911 51.7199C222.394 51.5716 223.877 51.3492 225.285 50.9043C227.11 50.3482 228.898 50.4594 230.686 50.9414C233.691 51.757 236.733 52.239 239.852 51.9795C240.879 51.8682 241.906 51.5346 242.933 51.3492C243.504 51.238 244.074 51.2751 244.645 51.238C247.155 51.0526 249.704 50.9043 252.214 50.6448C256.665 50.2267 260.525 48.9092 264.575 48.0867C266.325 47.7531 267.999 47.1599 269.71 46.6038C271.003 46.196 271.422 45.1579 271.422 43.9345C271.422 43.2301 271.84 42.9706 272.373 42.5628C273.362 41.7842 274.274 40.8203 274.655 39.5228C274.731 39.2262 274.997 38.8554 275.263 38.7071C277.431 37.4096 279.942 36.6681 281.653 34.6291C281.844 34.4066 282.262 34.3325 282.604 34.2583C283.783 34.11 284.963 34.0359 286.104 33.8134C286.712 33.7022 287.321 33.3315 287.891 33.0349C288.081 32.9237 288.272 32.6642 288.462 32.7012C290.059 32.8125 290.478 31.552 291.238 30.6251C292.151 30.9588 293.33 30.1802 293.406 29.2163C293.597 25.9539 293.825 22.6914 294.053 19.5401C294.395 19.0953 294.776 18.6133 295.194 18.0943C297.514 18.3167 297.59 18.4279 297.59 21.468C298.009 21.6163 298.465 21.7646 298.731 21.8758C300.177 20.5782 301.584 19.3177 303.144 17.9089C303.258 19.3919 303.372 20.7265 303.486 22.0241C303.6 22.0241 303.752 22.0241 303.866 22.0611C303.942 21.6904 304.018 21.3567 304.094 20.986C304.551 18.9099 304.817 16.7967 305.502 14.7947C305.882 13.6825 306.795 12.7186 307.632 11.8289C307.974 11.4581 308.735 11.4581 309.305 11.3469C310.066 11.1986 310.294 11.6435 310.484 12.2737C310.56 12.5333 310.903 12.6815 311.169 12.9411C311.892 11.9772 312.69 12.1996 313.603 12.4962C314.516 12.8298 315.505 12.9781 316.494 13.0894C318.396 13.3118 320.526 11.4211 320.564 9.56738C320.602 8.30688 321.074 8.88763 321.074 7.62713C321.074 6.77444 321.416 6.18126 322.177 5.62516C322.938 5.06906 323.508 6.97824 324.041 6.16262C324.687 5.12456 325.296 5.61573 326.079 3.25546C327.068 2.84765 328.057 2.10618 328.665 1.25349C329.274 0.363726 330.909 0.0671387 330.909 0.0671387C330.909 0.0671387 368.994 0.16644 374 0.16644C379.006 0.16644 379.006 2.57772 379.006 2.57772C379.006 2.57772 385.517 6.3182 385.897 6.54578C387.989 7.9175 387.738 7.49127 388.309 9.38201C389.546 13.2668 393.524 14.3128 395.307 19.4876C395.816 20.9654 397.328 21.2553 397.887 21.5113C399.257 22.1386 399.631 20.7173 399.906 18.8418C400.022 18.1624 401.029 18.2337 401.161 18.8788C401.46 23.0522 401.547 19.5202 401.846 22.4319C402.172 24.6547 403.585 24.7946 405.875 24.6784C406.871 24.6278 407.862 24.5821 408.844 24.5821C410.361 24.5821 413.303 25.7707 413.561 25.1012C414.398 25.1012 415.196 25.027 415.995 25.1382C416.337 25.1753 416.68 25.6202 416.946 25.9539C417.25 26.3617 417.364 26.9548 417.783 27.2885C419.19 28.4749 419.685 30.0319 419.38 31.6261C419.114 33.1832 419.837 34.0359 420.864 34.8144C421.586 35.3335 421.929 35.9637 422.043 36.8164C422.195 37.7432 422.461 38.6701 422.727 39.5969C422.803 39.8564 422.994 40.1159 423.184 40.3384C423.906 41.1911 424.857 41.8955 425.276 42.8594C425.732 43.9345 426.265 44.3794 427.444 44.4906C429.574 44.676 430.334 44.0828 430.258 42.3774C430.144 37.7062 430.068 33.0349 430.144 28.3636C430.182 26.1392 430.563 23.9519 430.753 21.7646C430.905 19.985 430.981 18.2055 431.133 16.3889C431.209 15.6845 431.437 15.0172 431.514 14.3128C431.666 13.0894 431.78 11.8659 431.78 10.6054C431.78 9.53031 431.628 8.49225 431.552 7.41712C431.514 6.41613 432.008 5.78588 432.997 5.45222C434.785 4.91611 440.969 4.64913 440.969 6.40692C440.969 9.6261 441.783 13.2377 442.278 15.944C442.43 16.7967 442.202 17.6865 442.24 18.5392C442.392 22.3577 442.544 26.1763 442.772 29.9949C442.962 33.4427 443.267 36.8535 443.533 40.3013C443.571 40.9686 443.913 41.1911 444.598 41.2281C445.016 41.2652 445.473 41.673 445.777 42.0067C446.195 42.4886 446.424 43.3784 446.88 43.5267C447.945 43.8233 449.124 43.8604 450.227 43.8233C450.455 43.8233 450.836 43.1189 450.874 42.7482C451.102 39.8935 451.33 37.0388 451.406 34.1842C451.528 30.1772 451.542 27.4355 451.54 25.5933C454.762 22.4528 453.979 22.5932 454.744 17.2787C454.896 16.1665 455.733 16.1665 456.341 15.7957C456.456 15.7216 456.722 16.9079 456.722 17.946C456.608 17.464 458.1 22.8026 458.138 22.3207C459.926 28.4749 459.698 34.7774 459.698 41.0798C459.888 41.1169 460.078 41.154 460.23 41.154C460.497 40.4496 460.953 39.7823 460.953 39.0779C461.029 36.1861 461.029 33.2573 461.029 30.3656C461.029 27.6222 460.953 24.8787 461.029 22.0982C461.067 20.9119 461.371 19.7626 461.638 18.6133C461.714 18.3167 462.094 18.0943 462.322 17.8718C462.436 17.946 462.589 18.0201 462.703 18.0943C462.703 19.3791 462.68 20.9489 462.795 22.3577C463.023 22.2836 463.882 22.0982 464.072 21.7646C464.947 20.467 464.909 14.2016 465.023 13.0523C467.153 12.8298 469.321 12.6445 471.527 12.422C472.326 12.3479 473.163 12.422 473.923 12.1996C475.254 11.8659 476.396 11.1986 477.004 9.86397C477.08 9.6786 477.384 9.41909 477.499 9.45616C477.841 9.60445 478.107 9.8269 478.526 10.0864C479.476 9.60446 479.971 9.82689 480.199 11.2357C480.998 16.6484 481.302 22.0982 480.998 27.5851C480.884 29.9949 481.568 32.4788 481.987 34.8886C482.253 36.631 482.671 38.3364 483.014 40.0418C483.356 41.7842 483.394 41.9325 485.22 42.1179C487.882 42.4145 490.545 42.9335 493.283 42.674C494.348 42.5628 495.489 42.7482 496.669 42.5628C497.962 42.3774 499.369 43.0447 500.738 43.0818C503.439 43.193 506.101 43.1189 508.802 43.193C509.486 43.193 510.209 43.4155 510.894 43.4155C511.312 43.4155 511.769 43.193 512.187 42.8964C512.872 43.1189 513.518 43.9345 514.431 43.1189C514.507 43.0447 514.773 43.2301 514.964 43.2672C515.268 43.3784 515.648 43.6379 515.838 43.5267C517.056 42.9706 518.006 43.5638 518.653 43.9716C519.414 43.4526 519.908 43.0077 520.479 42.7482C520.669 42.674 521.049 43.0447 521.125 43.0818C522.609 42.8964 523.902 42.6369 525.233 42.6369C526.602 42.6369 527.972 42.9335 529.417 43.1189C529.95 42.3403 530.254 42.3033 530.862 42.9706C531.509 42.9706 531.927 42.9706 532.384 42.9706C533.563 42.9335 534.704 42.8594 535.883 42.8223C536.073 42.8223 536.264 42.7111 536.454 42.7482C539.839 43.2672 543.224 42.5999 546.609 42.7482C550.983 42.9335 555.357 42.8223 559.77 42.8223C562.166 42.8223 564.6 42.7852 566.996 42.7852C567.453 42.7852 567.871 43.0818 568.366 43.193C568.746 43.3043 569.164 43.3784 569.545 43.3413C570.305 43.3043 571.028 43.1189 571.789 43.0818C573.919 42.9706 576.087 42.9335 578.255 42.8964C580.651 42.8594 583.047 42.8594 585.444 42.8594C587.117 42.8594 588.791 42.8223 590.464 42.8594C595.789 42.9335 601.152 43.0447 606.477 43.0447C614.655 43.0818 622.832 43.0077 631.01 43.0077C636.754 43.0077 642.459 43.1189 648.202 43.156C655.049 43.193 661.857 43.2301 668.703 43.2672C672.089 43.2672 675.474 43.3413 678.859 43.3043C679.962 43.3043 679.962 43.9345 679.962 44.7501C679.962 57.5405 680 373.555 680 375.891H0V6.56443Z" fill="url(#paint0_linear_2_696)"/>
</g>
<defs>
<linearGradient id="paint0_linear_2_696" x1="340" y1="0.0671387" x2="340" y2="375.891" gradientUnits="userSpaceOnUse">
<stop stop-color="#FC6738" stop-opacity="0.33"/>
<stop offset="1" stop-color="white" stop-opacity="0"/>
</linearGradient>
</defs>
</svg>
