<svg width="302" height="418" viewBox="0 0 302 418" fill="none" xmlns="http://www.w3.org/2000/svg">
<path d="M296.629 303.704L295.629 303.738L296.629 303.704ZM299.5 417.534L295.629 303.738L297.628 303.67L301.499 417.466L299.5 417.534ZM216.675 227.423L204.766 227.423L204.766 225.423L216.675 225.423L216.675 227.423ZM204.766 227.423L81 227.423L81 225.423L204.766 225.423L204.766 227.423ZM1.63073e-05 146.423L1.55182e-05 -8.74246e-08L2.00002 8.7421e-08L2.00002 146.423L1.63073e-05 146.423ZM81 227.423C36.2649 227.423 1.65688e-05 191.158 1.63073e-05 146.423L2.00002 146.423C2.00002 190.054 37.3695 225.423 81 225.423L81 227.423ZM295.629 303.738C294.182 261.177 259.26 227.423 216.675 227.423L216.675 225.423C260.338 225.423 296.144 260.032 297.628 303.67L295.629 303.738Z" fill="black"/>
</svg>
