<svg width="57" height="44" viewBox="0 0 57 44" fill="none" xmlns="http://www.w3.org/2000/svg">
<path d="M48.2202 3.65362C44.4613 1.9312 40.548 0.678529 36.4803 0C35.9654 0.939502 35.3989 2.13998 34.987 3.13167C30.6618 2.45314 26.2851 2.45314 21.9598 3.13167C21.4964 2.03559 20.9815 0.991696 20.4151 0C16.3473 0.678529 12.3825 1.9312 8.67518 3.70581C1.26049 14.9276 -0.74766 25.8363 0.230667 36.6406C4.60739 39.9288 9.44754 42.4342 14.6481 44C15.8324 42.382 16.8622 40.7117 17.7376 38.9371C16.0384 38.3108 14.4422 37.5279 12.8974 36.5884C13.3094 36.2752 13.6698 35.962 14.0817 35.6489C23.1956 40.0332 33.8027 40.0332 42.9166 35.6489C43.3285 35.962 43.689 36.2752 44.1009 36.5884C42.5562 37.5279 40.9085 38.3108 39.2093 38.9371C40.0846 40.7117 41.1144 42.382 42.2987 44C47.4993 42.382 52.3909 39.9288 56.7162 36.6406C57.849 24.1139 54.6565 13.2574 48.2202 3.65362ZM18.9734 29.9597C16.1414 29.9597 13.8758 27.3499 13.8758 24.1661C13.8758 20.9822 16.1414 18.3203 18.9734 18.3203C21.8568 18.3203 24.1224 20.93 24.1224 24.1661C24.071 27.3499 21.8568 29.9597 18.9734 29.9597ZM37.922 29.9597C35.09 29.9597 32.8244 27.3499 32.8244 24.1661C32.8244 20.9822 35.09 18.3203 37.922 18.3203C40.8055 18.3203 43.0711 20.93 43.0196 24.1661C42.9681 27.4021 40.754 29.9597 37.922 29.9597Z" fill="#F1F1F1"/>
</svg>
