<svg width="18" height="14" viewBox="0 0 18 14" fill="none" xmlns="http://www.w3.org/2000/svg">
<path fill-rule="evenodd" clip-rule="evenodd" d="M9.01714 3.46621C11.4421 3.46632 13.7743 4.42689 15.5317 6.1494C15.664 6.28238 15.8756 6.2807 16.0059 6.14564L17.2709 4.82943C17.3369 4.76092 17.3737 4.66813 17.3732 4.57158C17.3726 4.47503 17.3348 4.38268 17.268 4.31498C12.6553 -0.242362 5.37823 -0.242362 0.76551 4.31498C0.698692 4.38263 0.66078 4.47495 0.660164 4.5715C0.659548 4.66805 0.696278 4.76087 0.762227 4.82943L2.02764 6.14564C2.1579 6.28091 2.36959 6.28259 2.50185 6.1494C4.25951 4.42678 6.59198 3.4662 9.01714 3.46621ZM9.01711 7.74846C10.3495 7.74837 11.6343 8.25891 12.6219 9.18087C12.7554 9.31172 12.9659 9.30888 13.0961 9.17448L14.3597 7.85827C14.4262 7.78923 14.4631 7.69557 14.4622 7.59825C14.4612 7.50093 14.4224 7.40806 14.3546 7.34043C11.3471 4.45638 6.68967 4.45638 3.68222 7.34043C3.61428 7.40806 3.57552 7.50097 3.57463 7.59833C3.57374 7.69568 3.61079 7.78933 3.67747 7.85827L4.9407 9.17448C5.07092 9.30888 5.28134 9.31172 5.41492 9.18087C6.40187 8.25952 7.68565 7.74903 9.01711 7.74846ZM11.5483 10.6296C11.5502 10.7272 11.513 10.8213 11.4454 10.8896L9.25965 13.1637C9.19558 13.2305 9.10823 13.2681 9.01708 13.2681C8.92593 13.2681 8.83857 13.2305 8.7745 13.1637L6.58838 10.8896C6.52085 10.8212 6.4837 10.7271 6.4857 10.6295C6.48771 10.5319 6.52868 10.4395 6.59896 10.3741C7.99487 9.15689 10.0393 9.15689 11.4352 10.3741C11.5054 10.4395 11.5463 10.532 11.5483 10.6296Z" fill="black"/>
</svg>
