<svg width="19" height="13" viewBox="0 0 19 13" fill="none" xmlns="http://www.w3.org/2000/svg">
<path d="M9.39062 12.7444C9.83887 12.7444 10.0674 12.551 10.2432 12.0588L11.2715 9.21997H16.1318L17.1514 12.0588C17.3271 12.551 17.5557 12.7444 18.0039 12.7444C18.4961 12.7444 18.8213 12.4543 18.8213 11.9973C18.8213 11.8391 18.7861 11.6985 18.7246 11.5051L14.8838 1.25708C14.6729 0.685791 14.2949 0.41333 13.6973 0.41333C13.126 0.41333 12.7393 0.685791 12.5371 1.24829L8.69629 11.5227C8.62598 11.7161 8.59961 11.8567 8.59961 12.0061C8.59961 12.4631 8.89844 12.7444 9.39062 12.7444ZM11.6934 7.86646L13.6709 2.32935H13.7236L15.6924 7.86646H11.6934ZM0.882812 12.7444C1.25195 12.7444 1.49805 12.5598 1.64746 12.0852L2.28027 10.2571H5.33008L5.96289 12.0852C6.12109 12.5686 6.36719 12.7444 6.73633 12.7444C7.18457 12.7444 7.50098 12.4543 7.50098 12.0325C7.50098 11.8743 7.46582 11.7161 7.38672 11.4963L4.92578 4.94849C4.73242 4.42114 4.37207 4.09595 3.79199 4.09595C3.23828 4.09595 2.88672 4.42114 2.69336 4.94849L0.223633 11.4963C0.144531 11.7161 0.118164 11.8831 0.118164 12.0325C0.118164 12.4543 0.425781 12.7444 0.882812 12.7444ZM2.66699 9.05298L3.74805 5.80103H3.85352L4.94336 9.05298H2.66699Z" fill="black"/>
</svg>
