<svg width="296" height="624" viewBox="0 0 296 624" fill="none" xmlns="http://www.w3.org/2000/svg">
<path d="M149.061 274.451L223.928 274.451L223.928 276.451L149.061 276.451L149.061 274.451ZM294 204.379L294 -1.28373e-05L296 -1.26796e-05L296 204.379L294 204.379ZM223.928 274.451C262.628 274.451 294 243.079 294 204.379L296 204.379C296 244.183 263.732 276.451 223.928 276.451L223.928 274.451Z" fill="black"/>
<path d="M199.561 276.452L67.2843 276.452L67.2843 274.452L199.561 274.452L199.561 276.452ZM1.9995 341.736L1.99951 624L-0.000488281 624L-0.000497699 341.736L1.9995 341.736ZM67.2843 276.452C31.2285 276.452 1.9995 305.681 1.9995 341.736L-0.000497699 341.736C-0.000500947 304.576 30.1239 274.452 67.2843 274.452L67.2843 276.452Z" fill="black"/>
</svg>
