<svg width="475" height="264" viewBox="0 0 475 264" fill="none" xmlns="http://www.w3.org/2000/svg">
<g style="mix-blend-mode:darken">
<path d="M0 5.10949C2.33807 5.05768 4.67614 4.97997 7.06735 4.92817C6.72195 5.91249 7.2799 6.30104 8.15667 6.71549C9.06002 7.12995 9.83052 7.85524 10.6542 8.45101C10.7604 8.52872 10.8136 8.71005 10.8667 8.86547C11.159 9.72027 11.4247 10.5751 11.8232 11.404C12.1952 10.8082 12.4343 10.316 13.2845 10.5233C13.9221 10.6787 14.1613 10.8859 14.1613 11.5076C14.1613 11.9221 14.1081 12.466 14.3472 12.751C15.5163 14.1497 14.7723 16.4292 16.7384 17.4654C17.1104 17.6726 17.323 18.372 17.4027 18.8641C17.5621 20.1334 17.5089 21.4286 17.7215 22.6719C17.9872 24.252 18.3857 25.8062 18.8108 27.3604C18.9171 27.7231 19.3422 28.0339 19.6876 28.267C20.5909 28.9405 21.4677 29.6658 22.4773 30.2098C23.7261 30.9092 24.9483 31.6086 26.4627 31.9194C28.2959 32.308 30.0495 32.1266 31.8031 31.9194C32.3876 31.8417 32.9455 31.5049 33.5035 31.2718C33.8754 31.1164 34.2474 30.961 34.6459 30.8056C34.8585 30.7019 35.2304 30.676 35.2836 30.5206C35.6556 29.5104 36.7183 29.614 37.4091 29.1477C38.1265 28.6815 39.0298 28.3188 39.083 27.2568C39.083 27.0755 39.3221 26.8424 39.5081 26.7646C39.9332 26.5574 40.3848 26.4538 40.8099 26.2466C41.0225 26.143 41.3147 25.9875 41.3413 25.8321C41.4742 24.5888 42.5369 24.2779 43.3871 23.7081C43.5997 23.5526 43.6794 23.1123 43.6794 22.7755C43.6528 20.5738 43.5997 18.3461 43.52 16.1443C43.4668 15.16 43.2277 14.2015 43.2543 13.2172C43.2808 12.4142 43.2277 11.5076 43.9451 10.8341C44.317 10.4974 44.5562 10.0311 44.875 9.61666C45.9909 9.9016 45.1141 11.0154 45.7518 11.4817C46.4691 11.2745 47.0802 11.8443 47.2131 12.9064C47.2396 13.1136 47.2131 13.3467 47.2662 13.554C47.3193 13.8389 47.3725 14.3052 47.5319 14.357C48.3821 14.616 48.5415 15.6521 49.3651 15.8853C49.5246 15.9371 49.7371 16.0925 49.8168 16.0407C50.5607 15.4967 50.9327 15.9889 51.3844 16.481C51.6766 16.7919 52.3674 16.4033 52.4206 15.8594C52.4737 15.1082 52.9519 14.6937 53.3505 14.1497C53.9616 13.3208 54.7586 13.6058 55.4229 13.813C55.848 13.9425 56.4059 14.4347 56.4856 14.8491C56.831 16.5069 57.017 18.2166 57.2296 19.9003C57.3358 20.8328 57.3358 21.7653 57.3624 22.6978C57.389 23.5785 58.2392 24.9255 59.116 25.2364C59.7802 25.4695 60.2053 25.8062 60.3647 26.5315C60.5507 27.3863 61.5072 27.9562 62.4371 27.8785C63.0482 27.8267 63.4467 27.9821 63.9249 28.4484C64.4297 28.9146 65.2268 29.1218 65.9442 29.2255C66.8475 29.3809 67.7774 29.3809 68.7073 29.3291C69.7967 29.2773 70.2218 29.5622 70.3546 30.6242C70.4078 30.9092 70.4609 31.1941 70.5406 31.479C70.6734 31.9712 70.9126 32.1784 71.3908 31.7381C71.9222 31.2718 72.8521 31.3236 73.4101 31.7899C74.1008 32.3339 75.8544 32.6447 76.3592 32.023C76.8109 31.4531 77.7142 31.1164 77.7408 30.158C77.7408 29.8471 78.2456 29.4586 78.591 29.2773C79.1224 29.0182 79.7335 28.9146 80.318 28.7851C81.0353 28.6556 81.2213 28.1375 81.4605 27.5676C81.6199 27.2309 81.9387 26.8942 82.2575 26.7128C82.8155 26.402 83.3734 26.1689 83.4531 25.4177C83.4797 25.2364 83.7188 25.0291 83.8782 24.9255C83.9314 24.8996 84.197 25.0809 84.3033 25.2104C84.8347 25.858 86.3757 26.0135 86.7211 25.2882C87.3853 23.8635 88.6075 23.993 89.8031 23.8117C90.1219 23.7599 90.4939 23.734 90.733 23.5526C91.6629 22.8532 92.7523 23.0605 93.7884 23.0087C94.1338 22.9828 94.5589 23.0346 94.8246 22.8792C96.9767 21.5581 99.3945 21.7653 101.733 21.6099C102.53 21.5581 103.353 21.6099 104.257 21.6099C104.257 21.6358 104.336 21.5063 104.336 21.4027C104.416 19.6412 104.496 17.8798 104.522 16.1184C104.549 14.4606 104.522 12.8028 104.575 11.145C104.575 10.8859 104.947 10.6269 105.133 10.3679C105.319 10.6269 105.532 10.8341 105.638 11.1191C105.744 11.404 105.691 11.7148 105.691 11.9998C105.851 12.0257 105.93 12.0775 105.957 12.0516C106.993 11.5335 106.94 11.5594 107.551 12.5437C107.923 13.1654 108.428 13.7353 108.826 14.3311C108.959 14.5383 108.959 14.8232 108.959 15.0823C108.959 15.7816 109.012 16.481 109.703 16.9732C109.836 16.8178 109.942 16.6883 110.102 16.5846C110.421 16.3256 110.713 16.3256 110.819 16.7919C110.899 17.1027 110.925 17.4136 110.925 17.7503C110.925 20.2888 110.846 22.8273 110.925 25.34C110.952 25.858 111.377 26.3761 111.723 26.8424C111.988 27.1791 112.36 27.5158 112.759 27.6454C113.556 27.9562 113.848 28.4743 113.901 29.2773C113.901 29.5104 114.167 29.7953 114.379 29.9508C115.841 31.0387 117.461 31.5568 119.348 31.5309C120.517 31.5309 121.686 31.8158 122.855 32.0489C123.094 32.1007 123.36 32.4375 123.413 32.6706C123.625 33.629 124.183 34.0953 125.14 34.4838C126.548 35.0796 127.983 35.2091 129.471 35.2609C131.304 35.3386 133.137 35.5718 134.97 35.5977C136.485 35.6236 137.866 36.1157 139.328 36.3748C140.072 36.5043 140.842 36.582 141.613 36.582C142.649 36.582 143.685 36.4525 144.721 36.4007C145.04 36.3748 145.385 36.4266 145.704 36.4525C147.484 36.5302 149.264 36.6597 151.045 36.7115C152.134 36.7374 153.223 36.7633 154.313 36.6597C155.349 36.5561 156.385 36.4007 157.368 36.0898C158.643 35.7013 159.892 35.779 161.141 36.1157C163.24 36.6856 165.365 37.0224 167.544 36.841C168.261 36.7633 168.979 36.5302 169.696 36.4007C170.095 36.323 170.493 36.3489 170.892 36.323C172.645 36.1934 174.425 36.0898 176.179 35.9085C179.288 35.6163 181.985 34.6958 184.814 34.1212C186.036 33.8881 187.205 33.4736 188.401 33.085C189.304 32.8001 189.596 32.0748 189.596 31.22C189.596 30.7279 189.888 30.5465 190.26 30.2616C190.951 29.7176 191.589 29.0441 191.854 28.1375C191.908 27.9303 192.094 27.6713 192.28 27.5676C193.794 26.661 195.548 26.143 196.743 24.7183C196.876 24.5629 197.168 24.5111 197.407 24.4593C198.231 24.3556 199.055 24.3038 199.852 24.1484C200.277 24.0707 200.702 23.8117 201.101 23.6044C201.233 23.5267 201.366 23.3454 201.499 23.3713C202.615 23.449 202.907 22.5683 203.439 21.9207C204.076 22.1539 204.9 21.6099 204.953 20.9364C205.086 18.6569 205.245 16.3774 205.405 14.1756C205.644 13.8648 205.909 13.5281 206.202 13.1654C207.822 13.3208 207.876 13.3985 207.876 15.5226C208.168 15.6262 208.487 15.7298 208.673 15.8075C209.682 14.9009 210.665 14.0202 211.755 13.0359C211.834 14.072 211.914 15.0045 211.994 15.9112C212.073 15.9112 212.18 15.9112 212.259 15.9371C212.313 15.678 212.366 15.4449 212.419 15.1859C212.738 13.7353 212.924 12.2588 213.402 10.86C213.668 10.0829 214.305 9.40943 214.89 8.78776C215.129 8.52872 215.66 8.52872 216.059 8.45101C216.59 8.3474 216.75 8.65824 216.882 9.09859C216.936 9.27992 217.175 9.38353 217.361 9.56485C217.866 8.89137 218.423 9.04679 219.061 9.25402C219.699 9.48714 220.39 9.59076 221.08 9.66847C222.409 9.82389 223.897 8.50282 223.923 7.20766C223.95 6.32694 224.28 6.73271 224.28 5.852C224.28 5.25622 224.519 4.84177 225.05 4.45322C225.582 4.06467 225.98 5.39862 226.352 4.82875C226.804 4.10345 227.229 4.44664 227.776 2.79751C228.467 2.51257 229.157 1.99451 229.582 1.39873C230.008 0.77705 231.15 0.569824 231.15 0.569824C231.15 0.569824 257.753 0.639206 261.25 0.639206C264.747 0.639206 264.747 2.32397 264.747 2.32397C264.747 2.32397 269.295 4.93745 269.56 5.09646C271.021 6.05488 270.847 5.75707 271.245 7.07814C272.109 9.79243 274.888 10.5233 276.133 14.139C276.489 15.1715 277.545 15.374 277.936 15.5529C278.893 15.9912 279.154 14.9981 279.346 13.6877C279.427 13.213 280.13 13.2628 280.223 13.7136C280.432 16.6295 280.492 14.1617 280.701 16.1961C280.929 17.7492 281.916 17.8469 283.516 17.7657C284.211 17.7304 284.904 17.6985 285.59 17.6985C286.649 17.6985 288.704 18.5289 288.884 18.0611C289.469 18.0611 290.027 18.0093 290.585 18.087C290.824 18.1129 291.063 18.4238 291.249 18.6569C291.462 18.9418 291.541 19.3563 291.834 19.5894C292.817 20.4183 293.162 21.5063 292.949 22.6201C292.763 23.7081 293.268 24.3038 293.986 24.8478C294.49 25.2104 294.73 25.6508 294.809 26.2466C294.916 26.8942 295.102 27.5417 295.287 28.1893C295.341 28.3707 295.473 28.552 295.606 28.7074C296.111 29.3032 296.775 29.7953 297.068 30.4688C297.386 31.22 297.758 31.5309 298.582 31.6086C300.07 31.7381 300.601 31.3236 300.548 30.1321C300.468 26.8683 300.415 23.6044 300.468 20.3406C300.495 18.7864 300.761 17.2581 300.894 15.7298C301 14.4865 301.053 13.2431 301.159 11.9739C301.212 11.4817 301.372 11.0154 301.425 10.5233C301.531 9.66847 301.611 8.81366 301.611 7.93295C301.611 7.18175 301.505 6.45646 301.451 5.70526C301.425 5.00588 301.77 4.56552 302.461 4.33239C303.71 3.95781 308.03 3.77127 308.03 4.99944C308.03 7.24868 308.599 9.77208 308.944 11.663C309.05 12.2588 308.891 12.8805 308.917 13.4763C309.024 16.1443 309.13 18.8123 309.289 21.4804C309.422 23.8894 309.635 26.2725 309.821 28.6815C309.847 29.1478 310.086 29.3032 310.565 29.3291C310.857 29.355 311.176 29.6399 311.388 29.873C311.681 30.2098 311.84 30.8315 312.159 30.9351C312.903 31.1423 313.726 31.1682 314.497 31.1423C314.656 31.1423 314.922 30.6501 314.949 30.3911C315.108 28.3966 315.267 26.402 315.32 24.4074C315.406 21.6077 315.415 19.6921 315.414 18.405C317.664 16.2107 317.117 16.3088 317.652 12.5955C317.758 11.8184 318.343 11.8184 318.768 11.5594C318.848 11.5076 319.034 12.3365 319.034 13.0618C318.954 12.7251 319.997 16.4551 320.023 16.1184C321.272 20.4183 321.113 24.8219 321.113 29.2255C321.245 29.2514 321.378 29.2773 321.484 29.2773C321.67 28.7851 321.989 28.3188 321.989 27.8267C322.042 25.8062 322.042 23.7599 322.042 21.7394C322.042 19.8226 321.989 17.9057 322.042 15.963C322.069 15.1341 322.282 14.3311 322.468 13.5281C322.521 13.3208 322.786 13.1654 322.946 13.01C323.025 13.0618 323.132 13.1136 323.211 13.1654C323.211 14.0631 323.196 15.16 323.276 16.1443C323.435 16.0925 324.035 15.963 324.168 15.7298C324.779 14.8232 324.752 10.4456 324.832 9.64256C326.32 9.48714 327.834 9.35763 329.375 9.20221C329.933 9.1504 330.518 9.20221 331.049 9.04679C331.979 8.81366 332.776 8.3474 333.201 7.41488C333.255 7.28537 333.467 7.10404 333.547 7.12995C333.786 7.23356 333.972 7.38898 334.264 7.5703C334.928 7.23356 335.274 7.38898 335.433 8.3733C335.991 12.1552 336.204 15.963 335.991 19.7967C335.911 21.4804 336.39 23.2159 336.682 24.8996C336.868 26.1171 337.16 27.3086 337.399 28.5002C337.638 29.7176 337.665 29.8212 338.94 29.9508C340.8 30.158 342.66 30.5206 344.573 30.3393C345.317 30.2616 346.114 30.3911 346.938 30.2616C347.841 30.1321 348.824 30.5983 349.78 30.6242C351.667 30.7019 353.527 30.6501 355.413 30.7019C355.891 30.7019 356.396 30.8574 356.874 30.8574C357.167 30.8574 357.485 30.7019 357.778 30.4947C358.256 30.6501 358.708 31.22 359.345 30.6501C359.398 30.5983 359.584 30.7278 359.717 30.7538C359.93 30.8315 360.195 31.0128 360.328 30.9351C361.179 30.5465 361.843 30.961 362.294 31.2459C362.826 30.8833 363.171 30.5724 363.57 30.3911C363.703 30.3393 363.968 30.5983 364.021 30.6242C365.058 30.4947 365.961 30.3134 366.891 30.3134C367.847 30.3134 368.804 30.5206 369.813 30.6501C370.185 30.1062 370.398 30.0803 370.823 30.5465C371.275 30.5465 371.567 30.5465 371.886 30.5465C372.709 30.5206 373.507 30.4688 374.33 30.4429C374.463 30.4429 374.596 30.3652 374.729 30.3911C377.093 30.7538 379.458 30.2875 381.823 30.3911C384.878 30.5206 387.933 30.4429 391.015 30.4429C392.689 30.4429 394.39 30.417 396.064 30.417C396.382 30.417 396.675 30.6242 397.02 30.7019C397.286 30.7797 397.578 30.8315 397.844 30.8056C398.375 30.7797 398.88 30.6501 399.411 30.6242C400.899 30.5465 402.414 30.5206 403.928 30.4947C405.602 30.4688 407.276 30.4688 408.95 30.4688C410.119 30.4688 411.288 30.4429 412.457 30.4688C416.176 30.5206 419.923 30.5983 423.642 30.5983C429.354 30.6242 435.067 30.5724 440.779 30.5724C444.791 30.5724 448.776 30.6501 452.788 30.676C457.571 30.7019 462.327 30.7278 467.109 30.7538C469.474 30.7538 471.838 30.8056 474.203 30.7797C474.973 30.7797 474.973 31.22 474.973 31.7899C474.973 40.7265 475 261.526 475 263.158H0V5.10949Z" fill="url(#paint0_linear_2_600)"/>
</g>
<defs>
<linearGradient id="paint0_linear_2_600" x1="237.5" y1="0.569824" x2="237.5" y2="263.158" gradientUnits="userSpaceOnUse">
<stop stop-color="#FC6738" stop-opacity="0.33"/>
<stop offset="1" stop-color="white" stop-opacity="0"/>
</linearGradient>
</defs>
</svg>
