<svg width="402" height="356" viewBox="0 0 402 356" fill="none" xmlns="http://www.w3.org/2000/svg">
<path d="M0.347626 355.573C0.927032 355.573 1.50647 355.665 2.20178 355.665C44.4993 355.665 86.9127 355.665 129.21 355.665C190.744 355.665 252.163 355.665 313.697 355.665C314.624 355.665 315.667 355.482 316.594 355.482C317.289 355.482 317.984 355.665 318.564 355.665C336.41 355.665 354.14 355.665 371.986 355.665C372.566 355.665 373.261 355.482 373.84 355.482C374.304 355.482 374.883 355.665 375.347 355.665C376.506 355.665 377.78 355.665 378.939 355.665C386.008 355.665 393.077 355.665 400.146 355.665C400.725 355.665 401.189 355.665 401.884 355.665C402 345.043 402 105.598 402 95.1595C402 84.6294 402 74.1908 402 63.6608C402 53.2222 402 42.6921 402 32.2536C402 21.7235 402 11.1934 402 0.66333C401.073 0.754896 400.262 0.846462 399.335 0.938028C399.451 1.39586 400.378 1.76212 399.682 2.31152C398.755 2.03682 397.712 1.85369 396.669 1.48742C396.322 1.57899 395.858 1.76212 395.742 1.76212C395.163 2.49465 394.699 3.04405 394.236 3.50188C393.772 3.95971 393.656 4.41754 393.656 4.96693C393.541 5.60789 393.772 6.24886 393.309 6.88982C392.266 5.97416 391.223 5.97416 390.064 6.43199C389.137 6.79825 388.094 7.16452 387.399 7.89705C387.167 8.17174 386.472 8.17174 385.892 8.35488C386.008 8.53801 386.124 8.81271 386.24 9.17897C384.849 9.45367 383.69 10.2778 382.184 10.0946C381.489 10.0031 381.141 10.2778 381.025 10.8272C380.909 11.4681 380.909 11.4681 379.982 11.8344C379.866 11.6513 379.75 11.3766 379.634 11.1934C378.36 11.1934 378.592 12.3838 377.549 12.6585C376.853 12.8416 376.39 13.6657 375.81 14.3067C375.231 14.8561 374.767 15.497 374.072 16.2296C374.072 15.9549 373.956 15.6802 373.956 15.497C373.029 15.5886 372.218 15.6802 371.291 15.7717C370.943 16.9621 370.596 18.244 368.626 18.244C366.887 18.244 366.308 17.1452 365.96 15.8633C365.265 16.5043 364.917 17.0536 364.917 17.6946C363.643 17.8777 362.6 18.0609 361.441 18.0609C360.05 18.0609 358.66 17.9693 357.269 17.7862C356.342 17.6946 355.762 17.9693 355.183 18.4271C354.835 18.7018 354.372 19.0681 353.792 19.1597C352.865 19.4344 352.634 19.9838 352.634 20.6247C352.634 21.9066 352.634 23.1886 352.518 24.4705C352.518 24.8368 352.518 25.2946 352.402 25.6609C351.475 27.7669 351.707 29.9645 351.591 32.162C351.475 34.3596 351.591 36.4656 351.707 38.6632C351.707 39.8536 350.895 40.6777 349.505 40.6777C347.767 40.6777 346.028 40.4945 344.406 40.403C343.479 40.3114 342.668 40.2198 341.741 40.2198C339.075 40.1283 336.526 40.0367 333.86 39.3958C332.586 39.0295 331.195 38.9379 329.805 38.7548C328.646 38.6632 327.603 38.7548 326.676 39.3958C325.749 40.0367 324.59 40.4945 323.315 40.6777C322.852 40.7692 322.388 41.0439 322.04 41.3186C320.766 42.509 319.375 43.7909 318.216 45.0728C317.289 46.0801 316.246 46.8126 314.624 46.9042C314.508 46.9042 314.392 46.9042 314.392 46.9957C312.538 47.8198 310.684 48.5524 308.83 49.3764C308.714 49.468 308.598 49.468 308.482 49.5596C307.555 50.8415 306.048 51.4825 304.426 51.9403C303.847 52.1234 303.267 52.4897 302.92 52.856C301.529 54.1379 299.907 54.962 297.821 55.4198C297.125 55.6029 296.546 55.8776 295.967 56.3355C295.619 56.7017 294.924 56.9764 294.344 57.068C292.722 57.3427 291.099 57.6174 289.361 57.8005C288.55 57.8921 287.739 57.8005 286.812 57.8005C286.696 59.2656 286.696 60.6391 286.232 61.921C285.769 63.4776 285.769 64.9427 285.769 66.4993C285.769 67.415 286.001 68.2391 286.001 69.1547C286.116 71.9017 286.232 74.7402 286.348 77.4872C286.348 77.8535 286.348 78.3113 286.232 78.6776C286.001 80.2342 286.001 80.2342 286.464 81.6077C286.696 82.1571 287.044 82.6149 286.348 83.0727C286.232 83.1643 286.348 83.5306 286.348 83.8053C286.812 85.2703 286.001 86.3691 284.146 86.6438C281.945 87.0101 279.743 87.3763 277.657 87.7426C277.193 87.8342 276.73 87.9257 276.266 88.1089C275.339 88.3836 274.528 88.8414 273.601 89.1161C273.022 89.2992 272.674 89.5739 272.442 90.0318C271.747 91.7715 271.052 93.4197 270.356 95.1595C270.125 95.7089 270.125 96.2583 270.009 96.8076C269.661 96.8992 269.313 96.8992 268.966 96.9908C268.386 97.0823 267.923 97.1739 267.343 97.357C266.069 97.8149 262.592 100.379 261.781 101.203C260.506 102.576 259.231 103.858 257.841 105.14C256.914 105.964 256.334 106.88 256.103 107.979C255.755 109.902 255.291 111.733 254.364 113.473C253.669 114.663 253.437 116.037 252.858 117.318C252.626 117.959 252.163 118.692 251.699 119.333C251.467 119.608 251.004 119.699 250.656 119.791C249.265 119.974 247.875 120.157 246.484 120.34C245.21 120.432 243.935 120.432 242.544 120.523C241.849 120.615 241.27 120.432 240.806 119.974C239.531 118.6 237.677 117.868 235.707 117.41C233.969 117.044 232.115 116.677 230.261 116.311C229.797 116.22 229.449 116.037 229.102 115.853C228.059 115.121 227.248 114.205 226.436 113.198C225.509 112.008 224.93 110.817 224.698 109.444C224.582 108.528 224.003 107.704 223.192 107.063C222.496 106.514 222.381 105.964 222.265 105.323C221.917 101.294 221.453 97.1739 221.106 93.145C220.99 92.3209 220.874 91.4968 220.642 90.6727C220.179 88.933 219.02 87.651 216.934 86.827C216.934 86.4607 216.934 86.0944 216.934 85.7282C217.05 83.0727 216.702 80.4173 216.123 77.8535C215.891 76.9378 215.543 76.0222 214.848 75.1981C214.616 75.0149 214.5 74.7402 214.385 74.5571C214.153 73.1836 213.342 71.9933 212.878 70.7113C212.878 70.6198 212.762 70.5282 212.762 70.5282C212.878 68.5137 210.676 67.9643 209.054 67.2318C208.243 66.774 206.968 66.774 205.809 66.6824C203.955 66.5909 202.101 66.133 200.247 65.7668C198.045 65.3089 195.843 64.9427 193.526 65.2174C193.41 65.2174 193.294 65.3089 193.294 65.2174C191.555 64.4848 189.701 64.8511 187.847 64.4848C187.384 64.3933 186.92 64.3017 186.457 64.2101C185.066 64.027 183.791 63.5692 182.285 63.4776C181.242 63.4776 180.199 62.8367 179.156 62.6535C178.461 62.4704 177.765 62.4704 176.954 62.2873C176.954 62.8367 177.07 63.1114 177.07 63.5692C174.752 63.386 172.435 63.5692 170.233 63.0198C169.306 62.7451 168.263 62.4704 167.104 62.7451C166.177 62.4704 165.25 62.3788 164.207 62.2873C163.396 62.2873 162.469 62.1041 161.658 62.0126C160.615 61.921 159.572 61.8294 158.529 61.7379C157.949 61.6463 157.602 61.4632 157.486 61.0053C157.254 60.4559 156.79 60.1812 156.095 60.0897C155.4 59.9981 154.705 59.815 153.893 59.7234C153.546 59.7234 153.082 59.815 152.734 59.9065C152.619 59.7234 152.619 59.6318 152.503 59.3571C152.271 59.6318 152.155 59.7234 151.807 59.9981C151.692 59.7234 151.576 59.5403 151.576 59.2656C150.88 58.9909 150.301 59.174 149.837 59.6318C149.258 59.3571 148.679 58.9909 148.099 58.8078C147.867 58.7162 147.52 58.7162 147.172 58.7162C146.245 58.7162 145.318 59.2656 144.623 58.2584C143.348 58.2584 142.421 57.5258 141.146 57.5258C139.64 57.5258 138.133 57.3427 136.627 57.2511C135.468 57.1596 134.309 56.8849 133.266 56.6102C132.455 56.427 131.76 56.427 130.833 56.6102C129.79 56.8849 128.631 56.9764 127.588 57.068C127.008 57.1596 126.661 57.1596 126.313 57.5258C126.081 57.8005 125.618 57.9837 125.27 58.2584C124.575 58.8078 123.648 59.2656 123.068 59.9065C122.373 60.6391 121.562 60.9138 120.403 60.7306C120.287 60.4559 120.287 60.1812 120.171 59.6318C119.708 60.1812 119.36 60.5475 119.012 61.0053C118.781 61.0053 118.433 61.0053 118.201 60.9138C117.39 60.6391 116.579 60.6391 115.884 61.1885C115.768 61.28 115.42 61.3716 115.188 61.3716C114.145 61.1885 113.218 61.6463 112.291 61.921C112.059 62.0126 111.828 62.1041 111.48 62.1041C109.278 62.2873 107.54 63.2945 105.686 64.027C102.441 65.4005 98.9645 66.133 95.2563 65.8583C92.9386 65.6752 90.505 65.8583 88.1874 65.4921C86.2173 65.9499 83.8997 65.6752 82.2773 67.0487C80.5391 68.3306 78.4531 69.1547 76.1355 69.7957C74.9766 70.1619 73.8178 70.7113 72.7748 71.2607C71.2683 71.9933 69.9937 72.8174 68.4872 73.5499C67.9078 73.8246 67.4442 74.1908 67.4442 74.7402C67.0966 76.8463 65.8219 78.4944 63.8518 79.9595C63.1565 80.4173 62.8089 80.9667 62.4612 81.6077C61.5341 83.1643 60.2594 84.6294 58.9847 85.9113C58.2894 86.5522 57.0147 86.9185 55.9717 87.2848C55.0447 87.5595 54.1176 87.9257 53.5382 88.5667C52.6111 89.3908 51.4523 90.0318 50.0617 90.2149C48.9028 90.398 47.6281 90.6727 46.3534 90.7643C45.774 90.7643 45.3105 91.039 44.8469 91.2221C43.3404 91.9546 41.9498 92.5956 40.5592 93.4197C40.3275 93.6028 40.0957 93.8775 40.0957 94.1522C39.9798 95.1595 39.4004 95.9836 38.7051 96.8992C38.1257 97.6317 37.778 98.4558 37.1986 99.2799C36.7351 99.9209 36.2715 100.653 35.808 101.294C35.6921 101.386 35.5762 101.478 35.5762 101.569C35.1127 103.217 33.4903 104.041 31.6362 104.682C31.4044 104.774 31.1726 104.957 31.0568 105.232C30.9409 105.506 30.825 105.781 30.7091 106.056C30.1297 106.971 29.8979 107.063 28.6232 106.88C27.5803 106.788 26.5373 106.697 25.6103 106.697C24.9149 106.697 24.3355 106.514 24.1038 105.964C23.5244 104.591 22.4814 103.4 22.0179 102.027C21.6702 100.745 20.9749 99.4631 20.3955 98.1811C20.1637 97.5402 19.9319 96.8076 19.9319 96.1667C19.8161 94.2438 19.4684 92.3209 18.1937 90.5812C18.0778 90.4896 18.0778 90.3065 17.9619 90.2149C16.919 89.7571 17.0349 88.933 17.0349 88.2004C17.0349 87.3763 16.919 86.5523 16.8031 85.7282C17.3825 85.4535 17.9619 85.0872 18.6573 84.7209C16.4555 82.8896 15.2966 80.692 14.3696 78.3113C14.0219 77.3957 13.2107 76.6631 12.6313 75.839C11.936 74.8318 11.1248 73.9161 10.5454 72.9089C10.0819 72.1764 9.38657 71.9933 8.57538 71.9017C6.3736 71.8101 4.17178 71.7186 1.97 71.627C1.27469 71.627 0.695312 71.4439 0 71.4439C0.347656 89.7571 0.347626 337.168 0.347626 355.573Z" fill="url(#paint0_linear_2_697)"/>
<defs>
<linearGradient id="paint0_linear_2_697" x1="201" y1="0.66333" x2="201" y2="355.665" gradientUnits="userSpaceOnUse">
<stop stop-color="#FC6738" stop-opacity="0.33"/>
<stop offset="1" stop-color="white" stop-opacity="0"/>
</linearGradient>
</defs>
</svg>
