<svg width="295" height="289" viewBox="0 0 295 289" fill="none" xmlns="http://www.w3.org/2000/svg">
<path d="M204.766 166.745L204.766 167.745L204.766 166.745ZM293 -2.57105e-05L293 86.7451L295 86.7451L295 -2.55193e-05L293 -2.57105e-05ZM214 165.745L204.766 165.745L204.766 167.745L214 167.745L214 165.745ZM204.766 165.745L81.0001 165.745L81.0001 167.745L204.766 167.745L204.766 165.745ZM6.67515e-05 246.745L1.45363e-05 289L2.00001 289L2.00007 246.745L6.67515e-05 246.745ZM81.0001 165.745C36.2651 165.745 0.000121968 202.01 6.67515e-05 246.745L2.00007 246.745C2.00012 203.115 37.3696 167.745 81.0001 167.745L81.0001 165.745ZM293 86.7451C293 130.376 257.631 165.745 214 165.745L214 167.745C258.735 167.745 295 131.48 295 86.7451L293 86.7451Z" fill="black"/>
</svg>
